<svg width="190" height="160" viewBox="0 0 190 160" fill="none" xmlns="http://www.w3.org/2000/svg">
<g filter="url(#filter0_d_394_2435)">
<g clip-path="url(#clip0_394_2435)">
<rect x="5" y="4" width="180" height="150" rx="15" fill="#F5F5F5"/>
<path d="M21.9783 126.28H11.0792V130.886H21.9783V126.28Z" fill="#EBEBEB"/>
<path d="M15.8991 132.087H5V136.693H15.8991V132.087Z" fill="#EBEBEB"/>
<path d="M120.252 96.9463H109.352V101.552H120.252V96.9463Z" fill="#EBEBEB"/>
<path d="M114.172 102.753H103.273V107.359H114.172V102.753Z" fill="#EBEBEB"/>
<path d="M185 132.087H174.101V136.693H185V132.087Z" fill="#EBEBEB"/>
<path d="M178.921 42.166H168.021V46.7718H178.921V42.166Z" fill="#EBEBEB"/>
<path d="M185 47.9727H174.101V52.5784H185V47.9727Z" fill="#EBEBEB"/>
<path d="M108.093 96.9463H97.1938V101.552H108.093V96.9463Z" fill="#EBEBEB"/>
<path d="M21.9783 42.166H11.0792V46.7718H21.9783V42.166Z" fill="#EBEBEB"/>
<path d="M167.931 38.4611H113.728V14.4814H167.931V38.4611ZM115.374 36.8147H166.285V16.1278H115.374V36.8147Z" fill="#EBEBEB"/>
<path d="M141.013 15.9307H139.366V37.0086H141.013V15.9307Z" fill="#EBEBEB"/>
<path d="M75.6082 109.1C73.3444 104.779 69.6903 95.4398 69.6903 95.4398L69.7681 82.9043C69.6766 82.9043 71.4602 83.444 72.0044 83.572C75.535 84.8754 76.5092 85.4974 78.0229 88.6027C79.2257 91.0768 83.2777 102.359 84.7183 106.178L93.339 100.045C95.5114 98.2158 96.019 95.609 97.3453 93.9855C98.6715 92.362 100.176 91.9138 101.676 90.5372C103.176 89.1606 103.743 88.1362 104.32 89.2384C104.896 90.3405 103.259 92.3665 102.975 92.8559C102.778 93.2035 102.28 93.4596 102.166 93.8483C101.978 94.516 102.97 94.4108 103.396 94.3056C105.5 93.8483 107.411 92.0738 108.71 90.4503C109.218 89.8146 111.07 87.345 111.541 89.339C111.925 90.9625 110.59 92.0007 110.494 93.4961C110.447 94.3246 110.229 95.1344 109.853 95.8743C109.538 96.5511 109.684 97.3377 109.46 98.0466C108.769 100.251 107.018 101.006 104.983 101.705C102.948 102.405 100.748 102.885 99.0603 104.184C97.0114 105.766 92.0585 111.099 89.0447 114.305C85.2168 118.38 82.6923 119.335 80.4514 116.934C78.2104 114.533 76.4634 110.701 75.6082 109.1Z" fill="#E9BFA8"/>
<path d="M111.555 89.3612C111.097 87.3672 109.231 89.8185 108.724 90.4725C107.425 92.096 105.522 93.8705 103.409 94.3278C102.984 94.4193 101.992 94.5245 102.179 93.8705C102.294 93.4818 102.792 93.2257 102.989 92.8781C103.272 92.3887 104.909 90.3582 104.333 89.2606C103.757 88.163 103.194 89.1782 101.69 90.5594C100.185 91.9405 98.6852 92.3887 97.3589 94.0077C96.0326 95.6267 95.5296 98.2426 93.3527 100.067L92.7627 100.488C93.1194 102.898 94.592 105.258 96.7278 106.342C97.6699 105.427 98.4931 104.664 99.0739 104.211C100.761 102.912 103.016 102.381 104.996 101.732C106.977 101.083 108.783 100.287 109.474 98.0734C109.698 97.3645 109.551 96.5779 109.867 95.9011C110.243 95.1612 110.461 94.3514 110.507 93.5229C110.603 92.0229 111.939 90.9847 111.555 89.3612Z" fill="#455A64"/>
<path d="M93.7964 99.6475C93.7552 100.443 94.1988 102.565 95.2095 103.695C95.8971 104.423 96.7268 105.002 97.6471 105.396L98.013 105.113C98.013 105.113 98.3606 105.149 97.4276 106.087C96.4946 107.024 96.2751 107.372 95.7538 107.294C95.2324 107.216 93.7598 106.379 92.7628 104.829C92.0375 103.738 91.6074 102.477 91.5143 101.17C91.5417 100.713 92.182 100.384 92.7628 99.963C93.3436 99.5423 93.9473 98.8425 94.272 99.1215L93.7964 99.6475Z" fill="#303564"/>
<path opacity="0.2" d="M93.7964 99.6475C93.7552 100.443 94.1988 102.565 95.2095 103.695C95.8971 104.423 96.7268 105.002 97.6471 105.396L98.013 105.113C98.013 105.113 98.3606 105.149 97.4276 106.087C96.4946 107.024 96.2751 107.372 95.7538 107.294C95.2324 107.216 93.7598 106.379 92.7628 104.829C92.0375 103.738 91.6074 102.477 91.5143 101.17C91.5417 100.713 92.182 100.384 92.7628 99.963C93.3436 99.5423 93.9473 98.8425 94.272 99.1215L93.7964 99.6475Z" fill="black"/>
<path d="M70.8794 83.1104C73.189 83.6454 74.9954 84.5189 76.093 85.4519C77.7852 86.9154 78.5581 89.1975 79.7106 92.3119C80.863 95.4263 83.8266 103.014 83.8266 103.014C80.3962 104.105 77.4739 106.396 75.5946 109.466L67.7467 93.1351L70.8794 83.1104Z" fill="#E0E0E0"/>
<path d="M84.7548 106.187C83.2326 106.954 81.999 108.192 81.2379 109.718C81.2379 109.718 81.2379 107.198 84.4393 105.313L84.7548 106.187Z" fill="#F28F8F"/>
<path d="M44.3357 84.4264C44.3357 84.4264 41.6512 86.7862 40.9652 89.3382C40.6313 90.5913 40.3203 91.6248 41.3813 98.5946C42.392 105.24 43.11 105.24 43.6268 110.307L42.886 122.989C46.8602 127.644 65.4188 130.013 74.7027 123.743C74.7027 123.743 75.1051 104.49 74.4511 96.5595C73.9938 91.1675 71.73 85.6383 70.8793 83.1093C68.3549 82.6519 65.9264 82.3775 65.9264 82.3775L56.6426 81.8379L44.3357 84.4264Z" fill="#FAFAFA"/>
<path d="M70.2986 65.4207C71.5151 62.6218 70.3215 58.9083 68.8626 57.1659C66.7543 54.646 63.4752 53.5575 58.5269 53.8639C54.7676 54.0972 51.0677 55.6612 50.3635 59.5211C47.3451 60.4358 47.688 65.3841 48.4381 67.5748C49.9656 72.0201 52.9657 75.8845 53.0114 78.1575L70.2986 65.4207Z" fill="#37474F"/>
<path d="M70.294 75.8712C69.6995 78.0161 68.4647 79.5893 66.4753 79.9003C65.4333 79.9985 64.3845 79.9985 63.3425 79.9003L63.4203 82.6443C67.5363 87.8533 57.9048 88.9098 53.1486 83.2022L52.865 73.9778C52.865 73.9778 51.6531 75.3498 49.6637 74.051C48.8545 73.454 48.2761 72.5961 48.0261 71.6221C47.7762 70.6481 47.87 69.6176 48.2917 68.7048C49.2841 66.6147 51.2689 67.4791 51.8817 68.1148C52.4946 68.7505 53.2034 69.9441 53.7111 69.7795C54.0043 69.6883 54.2703 69.5256 54.485 69.306C54.6998 69.0865 54.8566 68.817 54.9413 68.5218C55.4031 67.2206 55.6216 65.8456 55.5862 64.4653C56.1738 64.165 56.701 63.7588 57.1411 63.2671C57.9444 62.4222 58.4294 61.3246 58.5131 60.1618C62.7983 58.8218 67.7284 59.4529 69.4891 60.8341C70.5135 62.6405 70.5547 66.8388 70.7239 69.2581C70.9114 71.8878 70.7925 74.0784 70.294 75.8712Z" fill="#E9BFA8"/>
<path d="M63.3426 79.9124C61.1473 79.7889 56.7341 78.7644 55.5679 77.5434C54.4017 76.3223 53.894 73.8115 53.894 73.8115C53.894 73.8115 54.0678 76.9763 54.9779 78.3849C55.888 79.7934 58.1793 80.3926 59.5513 80.7401C60.8126 81.0023 62.0875 81.1946 63.37 81.3164L63.3426 79.9124Z" fill="#F28F8F"/>
<path d="M61.9523 67.8594C61.9524 68.0966 61.8604 68.3245 61.6958 68.4951C61.5311 68.6658 61.3066 68.7658 61.0696 68.7741C60.8875 68.7805 60.7076 68.7323 60.553 68.6357C60.3985 68.5392 60.2762 68.3987 60.2021 68.2322C60.1279 68.0657 60.1052 67.8809 60.1368 67.7014C60.1684 67.5219 60.2529 67.356 60.3794 67.2248C60.506 67.0937 60.6688 67.0033 60.847 66.9654C61.0253 66.9274 61.2108 66.9436 61.3798 67.0117C61.5488 67.0799 61.6936 67.1971 61.7956 67.3481C61.8976 67.4991 61.9521 67.6772 61.9523 67.8594Z" fill="#263238"/>
<path d="M60.7129 65.023L58.9155 66.2349C58.7575 65.9875 58.7011 65.6885 58.7582 65.4005C58.8153 65.1124 58.9814 64.8576 59.222 64.6891C59.3408 64.6099 59.4744 64.5556 59.6148 64.5295C59.7552 64.5034 59.8994 64.506 60.0388 64.5372C60.1782 64.5685 60.3097 64.6276 60.4256 64.7111C60.5414 64.7946 60.6392 64.9007 60.7129 65.023Z" fill="#263238"/>
<path d="M69.4342 65.59L67.4631 64.6479C67.518 64.5165 67.599 64.3977 67.7013 64.2987C67.8036 64.1996 67.925 64.1225 68.0582 64.072C68.1913 64.0215 68.3333 63.9987 68.4755 64.0049C68.6178 64.0111 68.7573 64.0463 68.8854 64.1083C69.1485 64.2389 69.3518 64.4649 69.4538 64.7403C69.5557 65.0157 69.5488 65.3196 69.4342 65.59Z" fill="#263238"/>
<path d="M68.7483 67.5426C68.7429 67.7168 68.6863 67.8856 68.5856 68.0278C68.4849 68.1701 68.3445 68.2795 68.182 68.3425C68.0195 68.4054 67.842 68.4191 67.6717 68.3819C67.5015 68.3446 67.346 68.258 67.2246 68.1329C67.1033 68.0078 67.0215 67.8497 66.9894 67.6784C66.9573 67.5071 66.9764 67.3301 67.0443 67.1696C67.1122 67.0091 67.2259 66.8721 67.3711 66.7758C67.5164 66.6794 67.6868 66.628 67.861 66.6279C68.0988 66.6351 68.3245 66.7346 68.4901 66.9053C68.6558 67.0761 68.7484 67.3047 68.7483 67.5426Z" fill="#263238"/>
<path d="M63.9919 65.9512L64.6322 72.3264L68.0576 71.2928L63.9919 65.9512Z" fill="#F28F8F"/>
<path d="M61.9475 73.8115L65.6062 74.6256C65.5661 74.8715 65.4762 75.1067 65.3419 75.3166C65.2077 75.5265 65.032 75.7068 64.8256 75.8465C64.6192 75.9861 64.3864 76.082 64.1416 76.1285C63.8968 76.1749 63.645 76.1708 63.4018 76.1165C62.9098 75.9925 62.4844 75.684 62.2136 75.2549C61.9429 74.8258 61.8476 74.309 61.9475 73.8115Z" fill="#B16668"/>
<path d="M63.4157 76.1177C63.4913 76.1311 63.5677 76.1403 63.6443 76.1452C63.6347 75.6995 63.4507 75.2755 63.1316 74.9642C62.8126 74.6529 62.3842 74.4792 61.9385 74.4805C61.9899 74.8709 62.1586 75.2365 62.4224 75.5289C62.6862 75.8212 63.0326 76.0266 63.4157 76.1177Z" fill="#F28F8F"/>
<path d="M47.7108 65.0227C47.8242 66.1401 48.0983 67.2353 48.5249 68.2744C48.7672 67.9679 49.0462 67.6661 49.3298 67.3597C50.985 65.7367 52.9141 64.4191 55.0281 63.4678C59.917 61.1811 65.9035 60.4128 70.6964 61.7436C70.5206 60.7938 70.2208 59.8713 69.8046 58.9996C68.6567 56.5024 66.6599 54.4935 64.1696 53.3305C61.6793 52.1676 58.8571 51.926 56.2054 52.6489C53.5537 53.3718 51.2446 55.0122 49.689 57.2781C48.1335 59.544 47.4325 62.2884 47.7108 65.0227Z" fill="#303564"/>
<path d="M52.7415 53.4698C53.3223 53.1862 56.2446 52.3127 56.4824 52.2396C57.9962 51.7822 60.4338 51.8097 62.9354 53.8677C64.8889 55.4981 66.2623 57.717 66.8502 60.1926L63.7403 61.1667L62.7479 61.2628C62.3821 58.9761 59.3682 54.0506 55.1333 53.8677C54.9354 53.854 54.7367 53.854 54.5388 53.8677C53.9778 53.8958 53.4243 54.0083 52.897 54.2015C52.3214 54.6041 51.7729 55.0441 51.2551 55.5186C51.3072 55.0786 51.4711 54.6592 51.7313 54.3005C51.9915 53.9419 52.3393 53.6558 52.7415 53.4698Z" fill="#303564"/>
<path opacity="0.45" d="M52.7415 53.4698C53.3223 53.1862 56.2446 52.3127 56.4824 52.2396C57.9962 51.7822 60.4338 51.8097 62.9354 53.8677C64.8889 55.4981 66.2623 57.717 66.8502 60.1926L63.7403 61.1667L62.7479 61.2628C62.3821 58.9761 59.3682 54.0506 55.1333 53.8677C54.9354 53.854 54.7367 53.854 54.5388 53.8677C53.9778 53.8958 53.4243 54.0083 52.897 54.2015C52.3214 54.6041 51.7729 55.0441 51.2551 55.5186C51.3072 55.0786 51.4711 54.6592 51.7313 54.3005C51.9915 53.9419 52.3393 53.6558 52.7415 53.4698Z" fill="white"/>
<path d="M62.7571 61.2674C62.2998 58.6057 58.2661 52.3082 52.9062 54.2061C52.3291 54.6086 51.7791 55.0486 51.2598 55.5232C51.3119 55.0833 51.4753 54.6638 51.7346 54.3045C51.9938 53.9452 52.3404 53.658 52.7415 53.4698C54.1364 52.7975 56.9353 52.4683 59.8302 54.8418C61.7819 56.4711 63.1537 58.6884 63.7404 61.1622L62.7571 61.2674Z" fill="#303564"/>
<path opacity="0.3" d="M62.7571 61.2674C62.2998 58.6057 58.2661 52.3082 52.9062 54.2061C52.3291 54.6086 51.7791 55.0486 51.2598 55.5232C51.3119 55.0833 51.4753 54.6638 51.7346 54.3045C51.9938 53.9452 52.3404 53.658 52.7415 53.4698C54.1364 52.7975 56.9353 52.4683 59.8302 54.8418C61.7819 56.4711 63.1537 58.6884 63.7404 61.1622L62.7571 61.2674Z" fill="black"/>
<path d="M54.941 62.5529C55.1651 62.3563 56.249 60.0239 60.1089 57.9796C62.4916 56.7082 67.3759 56.6442 69.5666 56.6808C73.4036 56.7448 74.3183 57.5589 74.3686 58.126C74.3686 58.2586 74.4326 58.8806 74.4509 59.0178C74.4685 59.1456 74.4392 59.2756 74.3686 59.3836C73.7969 60.2526 70.7099 61.7618 70.7099 61.7618C65.917 60.4309 59.9305 61.1992 55.0417 63.4859L54.941 62.5529Z" fill="#303564"/>
<path opacity="0.15" d="M54.941 62.5529C55.1651 62.3563 56.249 60.0239 60.1089 57.9796C62.4916 56.7082 67.3759 56.6442 69.5666 56.6808C73.4036 56.7448 74.3183 57.5589 74.3686 58.126C74.3686 58.2586 74.4326 58.8806 74.4509 59.0178C74.4685 59.1456 74.4392 59.2756 74.3686 59.3836C73.7969 60.2526 70.7099 61.7618 70.7099 61.7618C65.917 60.4309 59.9305 61.1992 55.0417 63.4859L54.941 62.5529Z" fill="black"/>
<path d="M55.0282 63.4667C59.9171 61.1801 65.9036 60.4118 70.6964 61.7426C70.6964 61.7426 73.7972 60.2334 74.3551 59.3645C74.6661 58.8843 74.3871 57.654 69.6446 57.5763C67.4494 57.5397 62.5651 57.6037 60.1824 58.8751C56.3362 60.956 55.2523 63.2701 55.0282 63.4667Z" fill="#303564"/>
<path opacity="0.3" d="M55.0282 63.4667C59.9171 61.1801 65.9036 60.4118 70.6964 61.7426C70.6964 61.7426 73.7972 60.2334 74.3551 59.3645C74.6661 58.8843 74.3871 57.654 69.6446 57.5763C67.4494 57.5397 62.5651 57.6037 60.1824 58.8751C56.3362 60.956 55.2523 63.2701 55.0282 63.4667Z" fill="black"/>
<path d="M75.2058 102.016C75.2058 102.016 65.7985 104.133 51.6943 103.164C51.6943 112.484 52.6776 123.176 48.214 123.117L42.886 122.989C42.5888 136.947 40.2289 166.047 40.2289 166.047C40.0186 167.762 37.5352 175.052 37.4438 181.253C37.302 190.981 37.0962 198.353 37.0962 198.353C37.0962 198.353 42.5293 200.502 46.5218 199.012C46.5218 199.012 51.7126 178.335 53.1715 171.882C54.9048 164.195 58.4857 149.99 58.4857 149.99L58.9202 170.218C58.4122 174.294 58.357 178.414 58.7555 182.502C59.2128 186.618 60.8821 198.01 60.8821 198.01C60.8821 198.01 65.8808 199.016 70.2163 197.731C70.2163 197.731 72.8277 173.232 73.0426 169.459C73.2759 165.343 74.5747 127.535 74.6936 124.009C75.8827 106.232 75.2058 102.016 75.2058 102.016Z" fill="#455A64"/>
<path d="M51.6943 103.164C51.0357 94.7217 51.054 87.784 47.8893 83.6817L51.9321 82.8311C51.9321 82.8311 55.4307 90.5783 55.4307 103.452L51.6943 103.164Z" fill="#455A64"/>
<path d="M71.4923 102.946C71.4923 93.749 69.4663 85.8646 66.2559 82.4209L70.8795 83.1115C70.8795 83.1115 75.2059 90.0721 75.2059 102.946H71.4923Z" fill="#455A64"/>
<path d="M56.7753 105.095C56.7753 105.095 64.2069 105.553 70.4495 104.368L70.7331 110.693L64.5042 114.599L56.7753 112.074V105.095Z" fill="#37474F"/>
<path d="M44.8068 123.452C48.3877 124.938 57.0816 125.83 64.0605 125.739C71.0394 125.647 74.6935 124.006 74.6935 124.006L74.5792 128.259C74.5792 128.259 62.1946 133.454 44.2762 127.344L44.8068 123.452Z" fill="#303564"/>
<path opacity="0.3" d="M44.8068 123.452C48.3877 124.938 57.0816 125.83 64.0605 125.739C71.0394 125.647 74.6935 124.006 74.6935 124.006L74.5792 128.259C74.5792 128.259 62.1946 133.454 44.2762 127.344L44.8068 123.452Z" fill="black"/>
<path d="M58.4856 149.991L61.8058 136.573C61.8058 136.573 66.7816 136.637 70.0378 133.596C70.0378 133.596 69.5805 137.021 63.6672 138.85L60.5939 149.511L58.8515 169.839L58.4856 149.991Z" fill="#37474F"/>
<path d="M53.1988 82.2598L53.2262 83.1744C53.942 85.2039 54.4612 87.2974 54.7766 89.4262C55.737 95.2206 55.9016 102.817 55.9016 111.378V134.967C55.9016 134.967 45.1772 135.653 41.77 127.467L43.142 110.308C43.142 110.308 41.1755 101.436 40.6404 96.3639C40.1053 91.2921 39.1495 87.7386 43.8921 83.8604L53.1988 82.2598Z" fill="#303564"/>
<path d="M42.1543 105.511C42.6894 108.227 43.1513 110.308 43.1513 110.308L43.101 110.98C46.4166 113.148 51.333 114.539 55.9063 114.328V109.535C50.9122 109.764 45.4242 108.063 42.1543 105.511Z" fill="#F0F0F0"/>
<path d="M55.8972 123.851V119.04C51.1958 119.255 46.0691 117.759 42.7535 115.459L42.4059 120C45.6987 122.456 51.0266 124.071 55.8972 123.851Z" fill="#F0F0F0"/>
<path d="M63.5895 82.1505C66.5899 83.9572 68.7597 86.8712 69.6309 90.2636C71.076 95.9436 71.291 100.426 71.4922 107.72C71.6934 115.014 71.3962 135.366 71.3962 135.366C71.3962 135.366 74.5975 133.962 75.3018 132.439C75.3018 132.439 76.2165 106.595 75.2057 97.4345C74.195 88.2742 70.8794 83.1109 70.8794 83.1109C70.8794 83.1109 68.5104 82.1413 63.5895 82.1505Z" fill="#303564"/>
<path d="M71.5699 113.41C72.954 113.37 74.3317 113.205 75.6859 112.916C75.6859 111.316 75.6859 109.715 75.6859 108.128C74.3059 108.418 72.902 108.58 71.4922 108.613C71.5425 109.994 71.5608 111.636 71.5699 113.41Z" fill="#F0F0F0"/>
<path d="M75.6082 122.461C75.6357 120.988 75.6677 119.36 75.686 117.649C74.3396 117.924 72.9712 118.077 71.5974 118.107C71.5974 119.73 71.5974 121.354 71.5974 122.904C72.9446 122.872 74.2865 122.723 75.6082 122.461Z" fill="#F0F0F0"/>
<path d="M46.2887 83.9561C43.5447 83.9561 40.3434 83.8372 38.546 87.7977C37.9607 89.0874 36.1542 96.67 34.1465 103.663C30.5519 99.0893 27.4831 94.4016 27.0853 93.5693C26.0197 91.3421 26.006 89.8374 24.9175 87.5371C24.2907 86.2776 23.8059 84.9524 23.4723 83.5857C23.2116 82.671 22.3976 83.3433 22.1003 83.7549C21.6242 84.4495 21.3619 85.2682 21.3457 86.1102C21.3457 86.7047 21.3457 87.313 21.3 87.8983C21.2543 88.4837 21.0576 88.4609 20.582 88.1956C19.6033 87.6468 18.7526 86.7001 17.9569 85.941C17.1611 85.1818 16.0727 84.4683 15.2129 83.6543C14.3531 82.8402 13.9186 82.0125 13.2189 81.1893C12.693 80.5719 11.7966 79.7715 11.106 80.6542C10.6944 81.1893 11.074 81.8112 11.2569 82.3463C11.4673 82.9546 11.2569 83.4028 11.1426 84.0019C10.9404 84.6528 10.9597 85.3524 11.1975 85.9913C11.5268 86.6361 11.8195 87.034 11.7326 87.7932C11.664 88.4197 11.4399 89.0188 11.5313 89.6636C11.6045 90.1942 11.9887 90.5783 12.2539 91.0357C12.7223 91.8477 13.3027 92.5898 13.9781 93.24C14.774 94.046 15.6352 94.7848 16.5529 95.4489C18.7526 97.1593 19.5713 97.6944 20.3076 98.2661C21.4098 99.1167 22.5485 101.298 23.1888 102.501C24.4373 104.861 27.131 111.437 30.7256 116.143C32.8065 118.855 35.6374 119.72 38.1344 116.655C39.4424 115.046 40.5537 112.494 41.2763 110.564C44.0523 103.169 46.06 97.0862 46.06 97.0862C46.06 97.0862 48.301 90.1759 46.2887 83.9561Z" fill="#E9BFA8"/>
<path d="M28.4161 95.7142C27.7027 94.6349 27.227 93.8528 27.0853 93.5601C26.0197 91.3329 26.006 89.8283 24.9175 87.5279C24.2913 86.2714 23.8066 84.9492 23.4723 83.5857C23.2116 82.671 22.3976 83.3433 22.1003 83.7549C21.6242 84.4495 21.3619 85.2682 21.3457 86.1102C21.3457 86.7047 21.3457 87.313 21.3 87.8983C21.2543 88.4837 21.0576 88.4609 20.582 88.1956C19.6033 87.6468 18.7526 86.7001 17.9569 85.941C17.1611 85.1818 16.0727 84.4683 15.2129 83.6543C14.3531 82.8402 13.9186 82.0125 13.2189 81.1893C12.693 80.5719 11.7966 79.7715 11.106 80.6542C10.6944 81.1893 11.074 81.8112 11.2569 82.3463C11.4673 82.9546 11.2569 83.4028 11.1426 84.0019C10.9404 84.6528 10.9597 85.3524 11.1975 85.9913C11.5268 86.6361 11.8195 87.034 11.7326 87.7932C11.664 88.4197 11.4399 89.0188 11.5313 89.6636C11.6045 90.1942 11.9887 90.5783 12.2539 91.0357C12.7223 91.8477 13.3027 92.5898 13.9781 93.24C14.774 94.046 15.6352 94.7848 16.5529 95.4489C18.7526 97.1593 19.5713 97.6944 20.3076 98.2661C21.3549 99.0756 22.4342 101.083 23.0882 102.309C25.2742 100.909 27.2545 98.2204 28.4161 95.7142Z" fill="#455A64"/>
<path d="M27.7208 94.6488L27.3778 94.1366C27.3778 94.1366 27.515 93.5375 28.073 94.3927C28.5747 95.1049 29.008 95.8628 29.3672 96.6565C29.4358 96.9812 28.8824 99.7801 27.1446 101.17C25.4067 102.561 23.8792 102.977 23.3944 102.917C22.9097 102.858 22.7725 102.419 22.4798 101.838C22.1871 101.257 21.5102 100.544 21.716 100.009L22.1093 100.562C23.6699 100.162 25.0689 99.2898 26.1156 98.0651C27.6568 96.1031 27.7208 94.6488 27.7208 94.6488Z" fill="#303564"/>
<path opacity="0.2" d="M27.7208 94.6488L27.3778 94.1366C27.3778 94.1366 27.515 93.5375 28.073 94.3927C28.5747 95.1049 29.008 95.8628 29.3672 96.6565C29.4358 96.9812 28.8824 99.7801 27.1446 101.17C25.4067 102.561 23.8792 102.977 23.3944 102.917C22.9097 102.858 22.7725 102.419 22.4798 101.838C22.1871 101.257 21.5102 100.544 21.716 100.009L22.1093 100.562C23.6699 100.162 25.0689 99.2898 26.1156 98.0651C27.6568 96.1031 27.7208 94.6488 27.7208 94.6488Z" fill="black"/>
<path d="M34.1465 103.664C35.462 106.153 36.2572 108.883 36.4835 111.69C36.9408 107.523 35.674 103.714 34.5032 102.429L34.1465 103.664Z" fill="#F28F8F"/>
<path d="M46.7415 83.3662C44.1255 83.7778 43.5676 83.8235 41.8983 84.3998C40.229 84.976 39.0308 85.5477 37.4896 90.5738C36.0079 95.4215 34.6267 100.937 34.6267 100.937C34.6267 100.937 36.0902 104.769 43.316 105.51L47.1439 94.8361C47.1439 94.8361 48.3239 88.3969 46.7415 83.3662Z" fill="#EBEBEB"/>
<path d="M21.0347 89.2515C21.0695 89.5387 21.0185 89.8297 20.888 90.0879C20.7576 90.3461 20.5535 90.5599 20.3016 90.7021C20.0497 90.8444 19.7613 90.9088 19.4728 90.8873C19.1843 90.8657 18.9087 90.7591 18.6807 90.581C18.4528 90.4028 18.2827 90.1611 18.1921 89.8864C18.1015 89.6117 18.0943 89.3162 18.1715 89.0374C18.2486 88.7586 18.4067 88.5089 18.6257 88.3199C18.8448 88.1309 19.1149 88.0111 19.402 87.9755C19.5931 87.9512 19.7871 87.965 19.9729 88.0161C20.1586 88.0672 20.3324 88.1546 20.4842 88.2733C20.636 88.3919 20.7628 88.5394 20.8573 88.7073C20.9518 88.8752 21.0121 89.0601 21.0347 89.2515Z" fill="#263238"/>
<path d="M17.847 89.7365C16.818 89.2791 16.7083 88.3965 17.6047 87.7242C18.1115 87.3831 18.6919 87.1668 19.2984 87.0929C19.9048 87.019 20.5201 87.0896 21.0941 87.2989C22.1231 87.7562 22.2329 88.6389 21.3365 89.3111C20.8296 89.6522 20.2492 89.8685 19.6428 89.9424C19.0363 90.0163 18.421 89.9458 17.847 89.7365Z" fill="#37474F"/>
<path d="M17.7282 89.2208C16.6672 88.7635 16.5528 87.8488 17.4767 87.1445C17.9983 86.7905 18.5961 86.5645 19.2215 86.4851C19.8469 86.4056 20.4823 86.4749 21.0759 86.6872C22.1369 87.1445 22.2512 88.0592 21.3274 88.7635C20.8058 89.1175 20.208 89.3435 19.5825 89.423C18.9571 89.5024 18.3218 89.4332 17.7282 89.2208Z" fill="#263238"/>
<path d="M17.6092 88.684C16.5116 88.2267 16.3973 87.2571 17.3485 86.5437C17.8868 86.1802 18.5035 85.9493 19.1481 85.8698C19.7927 85.7903 20.447 85.8645 21.0575 86.0863C22.1505 86.5437 22.2694 87.5132 21.3182 88.2267C20.7799 88.5901 20.1632 88.821 19.5186 88.9005C18.8739 88.98 18.2197 88.9058 17.6092 88.684Z" fill="#37474F"/>
<path d="M17.4857 88.1314C16.3561 87.6741 16.2326 86.6634 17.2159 85.9271C17.7718 85.5562 18.4072 85.3215 19.0706 85.2421C19.7341 85.1626 20.4069 85.2406 21.0346 85.4697C22.1643 85.9271 22.2877 86.9378 21.3045 87.6786C20.7482 88.0487 20.1126 88.2826 19.4492 88.3612C18.7857 88.4399 18.1131 88.3612 17.4857 88.1314Z" fill="#263238"/>
<path d="M17.376 87.551C16.2236 87.0616 16.1001 86.0555 17.1016 85.3009C17.6693 84.9234 18.318 84.6852 18.9951 84.6057C19.6722 84.5262 20.3585 84.6077 20.9981 84.8435C22.1506 85.3329 22.2741 86.3436 21.2725 87.0936C20.7052 87.4718 20.0564 87.7104 19.3792 87.7899C18.702 87.8694 18.0156 87.7875 17.376 87.551Z" fill="#37474F"/>
<path d="M17.257 70.3678C15.419 70.592 13.7452 71.5369 12.6038 72.9949C11.4623 74.4528 10.9465 76.3044 11.1699 78.1425C11.8422 83.6305 16.4933 84.0055 16.7631 86.2236C16.8058 86.4351 16.9042 86.6314 17.0481 86.7922C17.192 86.953 17.3762 87.0725 17.5818 87.1383C18.1387 87.3394 18.7351 87.4069 19.3229 87.3354C19.9107 87.2639 20.4735 87.0554 20.966 86.7267C21.15 86.6157 21.3009 86.4575 21.403 86.2685C21.5052 86.0795 21.5548 85.8666 21.5468 85.6519C21.277 83.4339 25.704 81.9658 25.0363 76.4641C24.9264 75.5527 24.638 74.672 24.1874 73.8722C23.7369 73.0725 23.1331 72.3694 22.4106 71.8032C21.688 71.237 20.861 70.8187 19.9767 70.5725C19.0924 70.3262 18.1682 70.2566 17.257 70.3678Z" fill="#303564"/>
<g opacity="0.6">
<path d="M17.257 70.3678C15.419 70.592 13.7452 71.5369 12.6038 72.9949C11.4623 74.4528 10.9465 76.3044 11.1699 78.1425C11.8422 83.6305 16.4933 84.0055 16.7631 86.2236C16.8058 86.4351 16.9042 86.6314 17.0481 86.7922C17.192 86.953 17.3762 87.0725 17.5818 87.1383C18.1387 87.3394 18.7351 87.4069 19.3229 87.3354C19.9107 87.2639 20.4735 87.0554 20.966 86.7267C21.15 86.6157 21.3009 86.4575 21.403 86.2685C21.5052 86.0795 21.5548 85.8666 21.5468 85.6519C21.277 83.4339 25.704 81.9658 25.0363 76.4641C24.9264 75.5527 24.638 74.672 24.1874 73.8722C23.7369 73.0725 23.1331 72.3694 22.4106 71.8032C21.688 71.237 20.861 70.8187 19.9767 70.5725C19.0924 70.3262 18.1682 70.2566 17.257 70.3678Z" fill="white"/>
</g>
<path d="M17.9844 86.7644C17.2343 86.4443 17.152 85.7857 17.806 85.2964C18.1757 85.0487 18.5985 84.8914 19.0403 84.8374C19.482 84.7834 19.9303 84.8341 20.3488 84.9854C21.0988 85.3055 21.1811 85.9641 20.5271 86.4535C20.1579 86.7022 19.735 86.8601 19.2931 86.9141C18.8511 86.9682 18.4027 86.9169 17.9844 86.7644Z" fill="#303564"/>
<path d="M20.0514 85.5879C19.9901 85.5957 19.9283 85.5789 19.8794 85.5412C19.8306 85.5035 19.7987 85.4479 19.7907 85.3867C19.6288 84.0516 19.6288 82.7018 19.7907 81.3667C19.8356 80.9814 19.9059 80.5995 20.001 80.2234C19.7793 80.172 19.5633 80.0985 19.3562 80.0039C18.9879 79.8349 18.6472 79.6113 18.3455 79.3407C18.1173 79.6748 17.8416 79.9737 17.5269 80.228C17.3513 80.3696 17.1612 80.4922 16.9598 80.5938C17.1436 80.9363 17.3041 81.2907 17.44 81.6549C17.9173 82.912 18.2428 84.2216 18.4095 85.5559C18.4148 85.6181 18.3958 85.6799 18.3566 85.7284C18.3174 85.777 18.261 85.8086 18.1992 85.8166C18.1363 85.8217 18.0739 85.8022 18.0252 85.762C17.9765 85.7219 17.9454 85.6643 17.9385 85.6016C17.7742 84.3083 17.4579 83.0388 16.9964 81.8195C16.8626 81.4574 16.7021 81.1058 16.5162 80.7676C16.2865 80.8445 16.0415 80.8643 15.8024 80.8253C15.5634 80.7862 15.3374 80.6895 15.1442 80.5435C14.9993 80.4357 14.8977 80.2798 14.8575 80.1038C14.8172 79.9278 14.8411 79.7432 14.9246 79.5831C14.9825 79.4722 15.0722 79.3811 15.1822 79.3216C15.2922 79.2621 15.4176 79.2369 15.542 79.2493C15.9216 79.2813 16.3332 79.6151 16.7174 80.2005C16.9008 80.1118 17.0728 80.0012 17.2296 79.8713C17.5372 79.6298 17.803 79.3393 18.0162 79.0115C17.8511 78.8424 17.7216 78.642 17.6352 78.4221C17.5488 78.2022 17.5073 77.9671 17.5132 77.7309C17.5367 77.5898 17.6052 77.4601 17.7084 77.3611C17.8117 77.2622 17.9442 77.1992 18.0862 77.1817C18.2282 77.1642 18.372 77.1931 18.4962 77.2641C18.6204 77.335 18.7183 77.4443 18.7754 77.5754C18.8417 77.8041 18.8601 78.044 18.8295 78.2801C18.7988 78.5161 18.7196 78.7434 18.597 78.9474C18.8817 79.2165 19.2094 79.436 19.5666 79.5969C19.7509 79.6833 19.9441 79.7493 20.1428 79.7935C20.3761 79.1349 20.6916 78.7096 21.0575 78.5907C21.1756 78.553 21.3022 78.5506 21.4217 78.584C21.5411 78.6173 21.6482 78.6848 21.7298 78.7782C21.8464 78.9155 21.9105 79.0897 21.9105 79.2699C21.9105 79.45 21.8464 79.6242 21.7298 79.7615C21.579 79.9474 21.3854 80.094 21.1656 80.1888C20.9457 80.2836 20.7062 80.3237 20.4675 80.3057C20.3643 80.6805 20.2909 81.0628 20.248 81.4491C20.0994 82.7421 20.0994 84.0479 20.248 85.341C20.2525 85.3719 20.2509 85.4034 20.2433 85.4337C20.2356 85.464 20.222 85.4925 20.2033 85.5176C20.1847 85.5427 20.1612 85.5638 20.1343 85.5798C20.1075 85.5958 20.0777 85.6063 20.0468 85.6108L20.0514 85.5879ZM15.4734 79.7066C15.4369 79.7066 15.3911 79.7341 15.35 79.8118C15.2539 79.981 15.4094 80.1319 15.4597 80.1777C15.5722 80.2582 15.7005 80.3137 15.8362 80.3405C15.9719 80.3674 16.1117 80.3648 16.2463 80.3332C15.9399 79.9033 15.6701 79.7158 15.51 79.7066H15.4734ZM20.6367 79.7981C20.7753 79.7994 20.9123 79.7692 21.0375 79.7098C21.1627 79.6503 21.2727 79.5632 21.3593 79.4551C21.3959 79.4048 21.5148 79.2173 21.3822 79.0755C21.3624 79.0468 21.334 79.0252 21.3011 79.0137C21.2683 79.0022 21.2326 79.0014 21.1993 79.0115C21.0483 79.0663 20.8334 79.3133 20.6367 79.8027V79.7981ZM18.1443 77.6395C18.0254 77.6395 17.9934 77.7081 17.9796 77.7858C17.9796 78.0604 18.0768 78.3261 18.254 78.5358C18.3752 78.2889 18.406 78.0073 18.3409 77.7401C18.3274 77.7014 18.2992 77.6696 18.2624 77.6516C18.2255 77.6336 18.1831 77.6309 18.1443 77.644V77.6395Z" fill="white"/>
<path d="M21.7298 68.1553C21.6728 68.1332 21.6208 68.0999 21.5769 68.0573C21.533 68.0148 21.4981 67.9639 21.4742 67.9076C21.4503 67.8513 21.438 67.7908 21.4379 67.7297C21.4378 67.6685 21.4499 67.608 21.4736 67.5516L22.3883 65.3199C22.4348 65.2086 22.5234 65.1203 22.6348 65.074C22.7461 65.0278 22.8712 65.0274 22.9828 65.0729C23.0393 65.0951 23.0908 65.1282 23.1343 65.1704C23.1778 65.2127 23.2124 65.2631 23.2363 65.3189C23.2601 65.3746 23.2726 65.4345 23.2731 65.4952C23.2735 65.5558 23.2619 65.6159 23.2389 65.672L22.3243 67.9084C22.3022 67.9654 22.2688 68.0173 22.2263 68.0612C22.1837 68.1051 22.1328 68.1401 22.0765 68.1639C22.0203 68.1878 21.9598 68.2002 21.8986 68.2003C21.8375 68.2003 21.777 68.1882 21.7206 68.1645L21.7298 68.1553Z" fill="#E0E0E0"/>
<path d="M16.4432 67.4971C16.3682 67.4672 16.3025 67.418 16.2527 67.3546C16.2029 67.2911 16.1708 67.2156 16.1596 67.1358L15.8258 64.7485C15.8088 64.6272 15.8407 64.5041 15.9144 64.4063C15.9882 64.3086 16.0978 64.2441 16.2191 64.2271C16.3404 64.2101 16.4634 64.242 16.5612 64.3158C16.659 64.3896 16.7234 64.4991 16.7404 64.6204L17.0697 67.0077C17.0787 67.0678 17.0757 67.1292 17.0607 67.1881C17.0457 67.2471 17.0191 67.3024 16.9825 67.351C16.9459 67.3995 16.9 67.4403 16.8474 67.4709C16.7948 67.5014 16.7367 67.5212 16.6764 67.5291C16.5972 67.5389 16.5168 67.5279 16.4432 67.4971Z" fill="#E0E0E0"/>
<path d="M11.5358 69.572C11.462 69.5418 11.3974 69.493 11.3483 69.4302L9.86654 67.5277C9.82931 67.4796 9.8019 67.4247 9.78588 67.3661C9.76987 67.3074 9.76556 67.2462 9.77321 67.1859C9.78085 67.1256 9.8003 67.0674 9.83044 67.0146C9.86058 66.9618 9.90082 66.9155 9.94886 66.8783C9.99691 66.841 10.0518 66.8136 10.1105 66.7976C10.1691 66.7816 10.2303 66.7773 10.2906 66.7849C10.3509 66.7926 10.4091 66.812 10.4619 66.8422C10.5147 66.8723 10.561 66.9125 10.5983 66.9606L12.08 68.8585C12.118 68.9063 12.146 68.9611 12.1624 69.0199C12.1789 69.0786 12.1834 69.1401 12.1757 69.2006C12.168 69.2611 12.1483 69.3194 12.1178 69.3722C12.0872 69.425 12.0464 69.4712 11.9977 69.5079C11.9335 69.5591 11.8568 69.592 11.7755 69.6032C11.6943 69.6145 11.6115 69.6037 11.5358 69.572Z" fill="#E0E0E0"/>
<path d="M6.09349 72.9164C5.98009 72.8697 5.88987 72.7799 5.8427 72.6667C5.79553 72.5535 5.79526 72.4261 5.84196 72.3127C5.88866 72.1993 5.97849 72.1091 6.09171 72.0619C6.20492 72.0148 6.33223 72.0145 6.44564 72.0612L8.67743 72.9759C8.73358 72.9987 8.78469 73.0323 8.82784 73.0749C8.87098 73.1175 8.90532 73.1682 8.92889 73.224C8.95246 73.2798 8.9648 73.3398 8.9652 73.4004C8.96561 73.461 8.95407 73.5211 8.93125 73.5773C8.90843 73.6334 8.87477 73.6845 8.83219 73.7277C8.78962 73.7708 8.73897 73.8052 8.68312 73.8287C8.62728 73.8523 8.56733 73.8646 8.50672 73.865C8.44611 73.8654 8.38601 73.8539 8.32986 73.8311L6.09807 72.9164H6.09349Z" fill="#E0E0E0"/>
<path d="M5.28403 79.4378C5.20996 79.4073 5.14521 79.3578 5.09625 79.2944C5.04729 79.231 5.01584 79.1559 5.00506 79.0765C4.99604 79.0163 4.9991 78.955 5.01407 78.8961C5.02904 78.8371 5.05561 78.7818 5.09224 78.7332C5.12886 78.6847 5.1748 78.6439 5.22736 78.6133C5.27993 78.5827 5.33806 78.563 5.39837 78.5551L7.78565 78.2213C7.90694 78.2043 8.03001 78.2362 8.12779 78.3099C8.22556 78.3837 8.29003 78.4933 8.30701 78.6146C8.32399 78.7359 8.29209 78.8589 8.21833 78.9567C8.14457 79.0545 8.03499 79.1189 7.9137 79.1359L5.52642 79.4698C5.44423 79.4828 5.36003 79.4717 5.28403 79.4378Z" fill="#E0E0E0"/>
<path d="M28.0455 76.2681C27.9467 76.2333 27.8628 76.1657 27.8078 76.0765C27.7529 75.9874 27.7302 75.882 27.7436 75.7782C27.757 75.6743 27.8056 75.5782 27.8814 75.5058C27.9571 75.4335 28.0554 75.3894 28.1598 75.3808L30.5471 75.047C30.6076 75.038 30.6692 75.0412 30.7284 75.0564C30.7877 75.0717 30.8432 75.0987 30.8918 75.1358C30.9404 75.1729 30.9811 75.2193 31.0114 75.2724C31.0418 75.3255 31.0612 75.3841 31.0684 75.4449C31.0775 75.505 31.0744 75.5663 31.0594 75.6253C31.0445 75.6842 31.0179 75.7396 30.9813 75.7881C30.9446 75.8367 30.8987 75.8774 30.8461 75.908C30.7936 75.9386 30.7354 75.9584 30.6751 75.9662L28.2878 76.2955C28.2061 76.3099 28.1219 76.3004 28.0455 76.2681Z" fill="#E0E0E0"/>
<path d="M25.9784 71.3661C25.9024 71.3354 25.836 71.2849 25.7863 71.2198C25.7469 71.1718 25.7176 71.1163 25.7004 71.0566C25.6831 70.9969 25.6782 70.9344 25.6859 70.8728C25.6936 70.8112 25.7138 70.7518 25.7452 70.6982C25.7766 70.6446 25.8186 70.598 25.8686 70.5612L27.7711 69.0794C27.8192 69.0422 27.8741 69.0148 27.9327 68.9988C27.9913 68.9828 28.0526 68.9785 28.1129 68.9861C28.1732 68.9937 28.2314 69.0132 28.2842 69.0433C28.337 69.0735 28.3833 69.1137 28.4205 69.1618C28.4578 69.2098 28.4852 69.2647 28.5012 69.3233C28.5172 69.382 28.5215 69.4432 28.5139 69.5035C28.5062 69.5638 28.4868 69.622 28.4566 69.6748C28.4265 69.7276 28.3862 69.7739 28.3382 69.8112L26.4357 71.2929C26.3729 71.3447 26.2974 71.3788 26.217 71.3917C26.1366 71.4046 26.0542 71.3957 25.9784 71.3661Z" fill="#E0E0E0"/>
<path d="M41.7656 124.107L39.3417 125.442C39.1843 125.54 39.0525 125.674 38.9571 125.833C38.8617 125.992 38.8054 126.172 38.7929 126.357C38.7334 128.52 38.5322 137.026 38.8798 141.092C38.9044 141.278 38.9696 141.457 39.0707 141.615C39.1719 141.773 39.3065 141.907 39.4652 142.007C40.8372 142.78 44.5599 144.819 46.2657 145.29C46.6554 145.357 47.0559 145.314 47.4228 145.167L49.1424 144.476C49.3026 144.401 49.4395 144.284 49.5386 144.138C49.6376 143.991 49.6951 143.821 49.7049 143.644C49.7049 139.327 50.4915 133.496 51.2049 128.794C51.2243 128.621 51.191 128.446 51.1094 128.292C51.0278 128.138 50.9018 128.012 50.7476 127.93L42.8312 124.07C42.6609 124.001 42.478 123.969 42.2945 123.975C42.1109 123.982 41.9307 124.026 41.7656 124.107Z" fill="#455A64"/>
<path d="M38.8798 141.074C38.5322 137.008 38.7334 128.502 38.7929 126.339C38.7842 126.27 38.7959 126.2 38.8264 126.137C38.857 126.075 38.905 126.023 38.9648 125.987C39.0245 125.952 39.0933 125.935 39.1627 125.938C39.2321 125.941 39.2991 125.964 39.3554 126.005L46.7276 129.664C46.8817 129.75 47.0088 129.877 47.0952 130.031C47.1815 130.186 47.2236 130.36 47.217 130.537C47.0615 132.453 46.5904 139.661 46.8283 144.751C46.8378 144.825 46.8293 144.9 46.8034 144.969C46.7775 145.039 46.735 145.101 46.6796 145.151C46.6242 145.2 46.5576 145.236 46.4854 145.254C46.4133 145.272 46.3379 145.272 46.2657 145.254C44.5599 144.797 40.8418 142.743 39.4652 141.97C39.3087 141.872 39.1754 141.741 39.0743 141.586C38.9733 141.432 38.9069 141.257 38.8798 141.074Z" fill="#37474F"/>
<path d="M46.3389 145.277C46.7007 145.317 47.0668 145.267 47.4045 145.131L49.1286 144.44C49.2859 144.363 49.42 144.245 49.5171 144.099C49.6143 143.952 49.6712 143.783 49.682 143.608C50.0204 139.176 50.4686 133.464 51.1866 128.763C51.2072 128.605 51.1768 128.445 51.0997 128.306L47.1118 130.135C47.1776 130.267 47.2076 130.413 47.1987 130.56C47.0386 132.486 46.5721 139.707 46.8099 144.779C46.8158 144.843 46.8079 144.909 46.7866 144.97C46.7654 145.031 46.7314 145.087 46.6869 145.134C46.6423 145.181 46.5883 145.219 46.5283 145.243C46.4683 145.268 46.4037 145.28 46.3389 145.277Z" fill="#263238"/>
<path d="M39.8219 127.729L46.2794 130.742L45.9684 136.23L39.6481 133.518C39.6481 133.518 39.7075 129.594 39.8219 127.729Z" fill="#263238"/>
<path d="M45.9914 135.897L39.9363 133.304C39.9363 133.304 39.9912 129.718 40.0918 127.866L46.2658 130.743L45.9914 135.897Z" fill="#303564"/>
<path opacity="0.4" d="M45.9914 135.897L39.9363 133.304C39.9363 133.304 39.9912 129.718 40.0918 127.866L46.2658 130.743L45.9914 135.897Z" fill="black"/>
<path d="M43.2885 129.837L41.9348 131.794L42.7855 132.087L42.1223 133.816L43.6361 131.776L42.7855 131.456L43.2885 129.837Z" fill="#FAFAFA"/>
<path d="M45.5613 137.489L45.5202 138.033C45.5211 138.069 45.5127 138.104 45.4956 138.136C45.4786 138.168 45.4536 138.194 45.423 138.213C45.3925 138.232 45.3575 138.243 45.3216 138.244C45.2857 138.245 45.2501 138.237 45.2183 138.22L44.2396 137.818C44.1604 137.78 44.0937 137.721 44.0475 137.646C44.0012 137.571 43.9774 137.485 43.9789 137.397L44.011 136.844C44.009 136.808 44.0167 136.772 44.0331 136.741C44.0496 136.709 44.0742 136.682 44.1045 136.663C44.1348 136.644 44.1697 136.633 44.2055 136.632C44.2413 136.631 44.2768 136.639 44.3082 136.656L45.3006 137.068C45.3799 137.106 45.4466 137.165 45.4928 137.24C45.539 137.315 45.5628 137.401 45.5613 137.489Z" fill="#263238"/>
<path d="M45.566 139.257L45.5386 139.801C45.5399 139.837 45.532 139.872 45.5155 139.904C45.499 139.936 45.4746 139.963 45.4446 139.982C45.4146 140.001 45.3801 140.013 45.3445 140.015C45.3088 140.017 45.2733 140.009 45.2413 139.993L44.2535 139.605C44.1748 139.568 44.1081 139.51 44.0611 139.437C44.0142 139.365 43.9889 139.28 43.9882 139.193V138.635C43.9859 138.6 43.9931 138.564 44.0089 138.532C44.0248 138.5 44.0489 138.473 44.0786 138.454C44.1084 138.434 44.1428 138.423 44.1783 138.421C44.2138 138.419 44.2492 138.427 44.2809 138.443L45.2779 138.841C45.3616 138.874 45.4335 138.932 45.4848 139.006C45.536 139.08 45.5643 139.167 45.566 139.257Z" fill="#263238"/>
<path d="M45.5751 141.029V141.573C45.5773 141.609 45.57 141.645 45.5539 141.678C45.5377 141.71 45.5134 141.738 45.4833 141.758C45.4531 141.777 45.4183 141.789 45.3822 141.791C45.3462 141.794 45.3102 141.786 45.2779 141.77L44.29 141.4C44.2088 141.365 44.1392 141.308 44.0897 141.235C44.0402 141.162 44.0129 141.076 44.011 140.988V140.43C44.0087 140.395 44.0159 140.359 44.0318 140.327C44.0476 140.295 44.0717 140.268 44.1014 140.249C44.1312 140.229 44.1656 140.218 44.2011 140.216C44.2367 140.214 44.2721 140.222 44.3037 140.238L45.3053 140.618C45.3848 140.653 45.4525 140.711 45.5003 140.784C45.5481 140.857 45.5741 140.942 45.5751 141.029Z" fill="#263238"/>
<path d="M45.5844 142.82V143.365C45.587 143.401 45.5802 143.436 45.5646 143.469C45.5491 143.501 45.5253 143.529 45.4957 143.549C45.4661 143.57 45.4317 143.582 45.3959 143.585C45.3601 143.588 45.3242 143.581 45.2917 143.566L44.2947 143.209C44.214 143.176 44.1444 143.121 44.0941 143.049C44.0439 142.978 44.0151 142.894 44.0112 142.807V142.249C44.0076 142.213 44.0135 142.177 44.0285 142.145C44.0434 142.112 44.0668 142.084 44.0961 142.064C44.1255 142.043 44.1598 142.031 44.1955 142.028C44.2312 142.025 44.267 142.032 44.2993 142.048L45.31 142.413C45.3897 142.448 45.4578 142.505 45.5064 142.577C45.555 142.649 45.5821 142.734 45.5844 142.82Z" fill="#263238"/>
<path d="M43.3663 136.488L43.3388 137.055C43.3408 137.091 43.3331 137.126 43.3166 137.158C43.3002 137.19 43.2756 137.217 43.2453 137.236C43.2149 137.255 43.1801 137.266 43.1443 137.267C43.1085 137.268 43.073 137.259 43.0416 137.242L42.072 136.84C41.9911 136.803 41.9224 136.744 41.8745 136.67C41.8266 136.595 41.8015 136.508 41.8022 136.419V135.843C41.7992 135.807 41.806 135.771 41.8219 135.739C41.8377 135.707 41.862 135.68 41.8921 135.661C41.9222 135.642 41.957 135.631 41.9927 135.63C42.0284 135.629 42.0638 135.638 42.0949 135.655L43.0827 136.067C43.1662 136.101 43.2377 136.159 43.2882 136.234C43.3387 136.309 43.3658 136.397 43.3663 136.488Z" fill="#263238"/>
<path d="M43.3617 138.248L43.3342 138.815C43.3362 138.851 43.3285 138.886 43.3121 138.918C43.2956 138.95 43.271 138.977 43.2407 138.996C43.2104 139.015 43.1755 139.026 43.1397 139.027C43.1039 139.028 43.0684 139.019 43.037 139.002L42.0674 138.604C41.9856 138.569 41.9161 138.51 41.8673 138.435C41.8185 138.36 41.7927 138.273 41.793 138.184V137.607C41.7901 137.572 41.7969 137.536 41.8127 137.504C41.8286 137.472 41.8528 137.445 41.8829 137.426C41.913 137.406 41.9478 137.396 41.9835 137.395C42.0193 137.394 42.0546 137.402 42.0857 137.42L43.0736 137.827C43.1579 137.861 43.2304 137.919 43.2817 137.993C43.333 138.068 43.3609 138.157 43.3617 138.248Z" fill="#263238"/>
<path d="M43.3525 140.004V140.572C43.3548 140.607 43.3477 140.643 43.3318 140.674C43.3159 140.706 43.2919 140.733 43.2621 140.753C43.2324 140.772 43.198 140.784 43.1624 140.786C43.1269 140.787 43.0915 140.78 43.0598 140.764L42.0811 140.37C42.0002 140.334 41.9316 140.275 41.8836 140.2C41.8357 140.125 41.8106 140.038 41.8113 139.95V139.373C41.808 139.338 41.8143 139.302 41.8295 139.27C41.8448 139.238 41.8685 139.211 41.898 139.191C41.9275 139.172 41.9619 139.16 41.9973 139.158C42.0328 139.157 42.0681 139.165 42.0994 139.181L43.0873 139.588C43.1666 139.625 43.2338 139.684 43.2808 139.757C43.3279 139.831 43.3527 139.917 43.3525 140.004Z" fill="#263238"/>
<path d="M43.3432 141.765V142.332C43.3447 142.367 43.3369 142.402 43.3207 142.433C43.3044 142.464 43.2803 142.491 43.2507 142.51C43.2211 142.529 43.187 142.539 43.1519 142.541C43.1168 142.543 43.0818 142.535 43.0505 142.519L42.0718 142.131C41.9914 142.095 41.9228 142.038 41.8742 141.965C41.8255 141.892 41.7989 141.807 41.7974 141.719V141.138C41.7951 141.103 41.8023 141.067 41.8181 141.035C41.834 141.003 41.8581 140.976 41.8878 140.957C41.9176 140.937 41.952 140.926 41.9875 140.924C42.023 140.922 42.0585 140.93 42.0901 140.946L43.078 141.348C43.1573 141.385 43.2245 141.444 43.2715 141.518C43.3186 141.591 43.3434 141.677 43.3432 141.765Z" fill="#263238"/>
<path d="M41.1755 135.503V136.093C41.1776 136.128 41.1701 136.163 41.1539 136.195C41.1377 136.226 41.1133 136.252 41.0834 136.271C41.0535 136.29 41.019 136.3 40.9837 136.301C40.9484 136.302 40.9136 136.293 40.8828 136.276L39.9178 135.873C39.8369 135.837 39.7683 135.778 39.7203 135.703C39.6724 135.628 39.6473 135.541 39.648 135.453V134.849C39.6454 134.815 39.6522 134.78 39.6676 134.749C39.6829 134.718 39.7064 134.692 39.7354 134.673C39.7644 134.655 39.798 134.644 39.8325 134.643C39.867 134.641 39.9012 134.649 39.9315 134.666L40.9102 135.082C40.9903 135.119 41.058 135.179 41.1051 135.253C41.1521 135.328 41.1766 135.415 41.1755 135.503Z" fill="#263238"/>
<path d="M41.1847 137.201V137.791C41.1879 137.826 41.1813 137.861 41.1657 137.893C41.1501 137.925 41.1261 137.951 41.0964 137.97C41.0666 137.989 41.0323 137.999 40.997 138C40.9618 138.001 40.9271 137.992 40.8966 137.974L39.9316 137.571C39.8498 137.536 39.7803 137.477 39.7315 137.402C39.6828 137.327 39.6569 137.24 39.6573 137.151V136.547C39.6541 136.512 39.6607 136.477 39.6763 136.445C39.6919 136.413 39.7159 136.387 39.7456 136.368C39.7754 136.349 39.8097 136.339 39.845 136.338C39.8802 136.337 39.9149 136.346 39.9454 136.364L40.9241 136.78C41.0033 136.818 41.07 136.878 41.1162 136.952C41.1625 137.027 41.1862 137.113 41.1847 137.201Z" fill="#263238"/>
<path d="M41.1893 138.91V139.5C41.1914 139.535 41.1839 139.57 41.1677 139.602C41.1515 139.633 41.1272 139.659 41.0972 139.678C41.0673 139.697 41.0329 139.707 40.9976 139.708C40.9623 139.709 40.9274 139.7 40.8966 139.683L39.9316 139.28C39.8518 139.242 39.7841 139.183 39.7357 139.108C39.6873 139.034 39.6602 138.948 39.6573 138.86V138.256C39.6541 138.221 39.6607 138.186 39.6763 138.154C39.6919 138.122 39.7159 138.096 39.7456 138.077C39.7754 138.058 39.8097 138.048 39.845 138.047C39.8802 138.046 39.9149 138.055 39.9454 138.073L40.9241 138.489C41.0042 138.526 41.0718 138.586 41.1189 138.66C41.166 138.735 41.1904 138.822 41.1893 138.91Z" fill="#263238"/>
<path d="M41.1939 140.621V141.211C41.197 141.246 41.1905 141.281 41.1749 141.313C41.1593 141.345 41.1353 141.371 41.1056 141.39C41.0758 141.409 41.0414 141.419 41.0062 141.42C40.971 141.421 40.9362 141.412 40.9058 141.394L39.9363 140.992C39.8553 140.955 39.7867 140.896 39.7388 140.821C39.6909 140.747 39.6657 140.66 39.6664 140.571V139.967C39.6639 139.933 39.6706 139.898 39.686 139.867C39.7014 139.836 39.7248 139.81 39.7538 139.791C39.7829 139.773 39.8164 139.762 39.8509 139.761C39.8854 139.76 39.9197 139.768 39.95 139.784L40.9287 140.196C41.0074 140.236 41.0738 140.297 41.1205 140.372C41.1673 140.446 41.1927 140.533 41.1939 140.621Z" fill="#263238"/>
<path d="M116.927 131.647H101.779V146.796H116.927V131.647Z" fill="#A6A6A6"/>
<path d="M114.519 139.235C114.474 138.823 114.406 138.413 114.316 138.009C114.021 136.921 113.372 135.963 112.472 135.286C111.811 134.787 111.035 134.462 110.216 134.341C109.397 134.221 108.561 134.308 107.784 134.596C106.865 134.925 106.067 135.526 105.496 136.319C104.872 137.162 104.536 138.184 104.536 139.232C104.536 140.281 104.872 141.302 105.496 142.146C105.784 142.549 106.134 142.905 106.534 143.198C106.914 143.485 107.335 143.711 107.784 143.869C108.561 144.157 109.397 144.244 110.216 144.124C111.035 144.003 111.811 143.678 112.472 143.179C113.373 142.503 114.022 141.544 114.316 140.456C114.406 140.053 114.473 139.645 114.519 139.235C114.548 139.653 114.511 140.074 114.408 140.48C114.179 141.433 113.682 142.3 112.973 142.977C112.265 143.654 111.377 144.113 110.415 144.299C109.508 144.474 108.571 144.4 107.702 144.086C107.233 143.923 106.792 143.689 106.394 143.391C105.971 143.085 105.6 142.713 105.293 142.291C104.638 141.405 104.284 140.332 104.284 139.23C104.284 138.128 104.638 137.055 105.293 136.169C105.601 135.749 105.973 135.38 106.394 135.074C106.792 134.776 107.233 134.541 107.702 134.378C108.571 134.064 109.508 133.991 110.415 134.166C111.377 134.352 112.265 134.81 112.973 135.488C113.682 136.165 114.179 137.032 114.408 137.985C114.511 138.393 114.548 138.815 114.519 139.235Z" fill="#29363D"/>
<path d="M108.344 139.107C108.344 139.269 108.296 139.428 108.205 139.563C108.115 139.698 107.987 139.804 107.836 139.865C107.686 139.927 107.521 139.943 107.362 139.911C107.202 139.879 107.056 139.801 106.941 139.685C106.827 139.57 106.749 139.423 106.718 139.264C106.687 139.104 106.704 138.939 106.767 138.789C106.829 138.64 106.935 138.512 107.071 138.422C107.207 138.333 107.366 138.285 107.528 138.286C107.636 138.286 107.742 138.307 107.842 138.349C107.941 138.39 108.031 138.451 108.107 138.527C108.183 138.603 108.243 138.694 108.283 138.793C108.324 138.893 108.345 138.999 108.344 139.107Z" fill="#29363D"/>
<path d="M112.322 139.107C112.322 139.269 112.274 139.428 112.183 139.563C112.093 139.698 111.965 139.804 111.814 139.865C111.664 139.927 111.499 139.943 111.34 139.911C111.18 139.879 111.034 139.801 110.919 139.685C110.805 139.57 110.727 139.423 110.696 139.264C110.665 139.104 110.682 138.939 110.745 138.789C110.808 138.64 110.913 138.512 111.049 138.422C111.185 138.333 111.344 138.285 111.506 138.286C111.614 138.286 111.72 138.307 111.82 138.349C111.919 138.39 112.009 138.451 112.085 138.527C112.161 138.603 112.221 138.694 112.261 138.793C112.302 138.893 112.323 138.999 112.322 139.107Z" fill="#29363D"/>
<path d="M104.41 145.334C104.411 145.475 104.369 145.614 104.291 145.732C104.213 145.851 104.102 145.943 103.971 145.998C103.84 146.052 103.696 146.067 103.557 146.039C103.418 146.012 103.29 145.944 103.19 145.844C103.09 145.743 103.022 145.616 102.994 145.477C102.967 145.338 102.981 145.194 103.036 145.063C103.091 144.932 103.183 144.821 103.301 144.742C103.42 144.664 103.558 144.623 103.7 144.624C103.888 144.624 104.069 144.699 104.202 144.832C104.335 144.965 104.41 145.145 104.41 145.334Z" fill="#E0E0E0"/>
<path d="M104.009 144.976C104.033 145.044 103.884 145.16 103.744 145.334C103.604 145.507 103.512 145.671 103.44 145.657C103.367 145.642 103.362 145.396 103.551 145.174C103.739 144.952 103.99 144.914 104.009 144.976Z" fill="#29363D"/>
<path d="M104.014 145.54C103.947 145.564 103.831 145.414 103.647 145.289C103.464 145.163 103.29 145.101 103.29 145.028C103.29 144.956 103.546 144.907 103.797 145.086C104.048 145.265 104.082 145.511 104.014 145.54Z" fill="#29363D"/>
<path d="M116.218 145.334C116.219 145.475 116.178 145.614 116.1 145.732C116.022 145.85 115.911 145.942 115.78 145.997C115.65 146.052 115.506 146.067 115.367 146.04C115.228 146.013 115.1 145.945 115 145.845C114.9 145.746 114.831 145.618 114.803 145.48C114.775 145.341 114.789 145.197 114.843 145.066C114.897 144.935 114.988 144.823 115.106 144.745C115.224 144.666 115.362 144.624 115.504 144.624C115.692 144.624 115.873 144.699 116.007 144.832C116.141 144.965 116.217 145.145 116.218 145.334Z" fill="#E0E0E0"/>
<path d="M115.817 144.976C115.817 145.044 115.691 145.16 115.552 145.334C115.412 145.507 115.32 145.671 115.247 145.657C115.175 145.642 115.17 145.396 115.358 145.174C115.547 144.952 115.798 144.914 115.817 144.976Z" fill="#29363D"/>
<path d="M115.822 145.54C115.754 145.564 115.639 145.414 115.455 145.289C115.272 145.163 115.098 145.101 115.098 145.028C115.098 144.956 115.354 144.907 115.581 145.086C115.808 145.265 115.89 145.511 115.822 145.54Z" fill="#29363D"/>
<path d="M116.218 133.072C116.218 133.213 116.176 133.351 116.097 133.469C116.019 133.586 115.907 133.678 115.777 133.732C115.646 133.786 115.503 133.8 115.364 133.773C115.225 133.745 115.098 133.677 114.998 133.577C114.898 133.477 114.83 133.35 114.803 133.211C114.775 133.073 114.789 132.929 114.843 132.798C114.897 132.668 114.989 132.556 115.106 132.478C115.224 132.399 115.362 132.357 115.503 132.357C115.693 132.357 115.875 132.433 116.009 132.567C116.143 132.701 116.218 132.882 116.218 133.072Z" fill="#E0E0E0"/>
<path d="M115.817 132.714C115.817 132.776 115.691 132.897 115.552 133.066C115.412 133.235 115.32 133.404 115.247 133.39C115.175 133.375 115.17 133.129 115.358 132.907C115.547 132.685 115.798 132.646 115.817 132.714Z" fill="#29363D"/>
<path d="M115.822 133.28C115.754 133.28 115.639 133.149 115.455 133.029C115.272 132.908 115.098 132.836 115.098 132.768C115.098 132.7 115.354 132.647 115.581 132.821C115.808 132.995 115.89 133.26 115.822 133.28Z" fill="#29363D"/>
<path d="M104.405 133.072C104.405 133.213 104.363 133.352 104.284 133.469C104.206 133.587 104.094 133.679 103.963 133.732C103.832 133.786 103.688 133.8 103.549 133.772C103.411 133.744 103.283 133.676 103.184 133.575C103.084 133.475 103.016 133.347 102.989 133.208C102.962 133.069 102.977 132.926 103.032 132.795C103.087 132.665 103.179 132.553 103.297 132.475C103.415 132.398 103.554 132.356 103.695 132.357C103.789 132.357 103.882 132.376 103.968 132.412C104.054 132.448 104.133 132.501 104.199 132.567C104.265 132.633 104.317 132.712 104.352 132.799C104.388 132.886 104.406 132.978 104.405 133.072Z" fill="#E0E0E0"/>
<path d="M104.004 132.714C104.004 132.776 103.879 132.897 103.739 133.066C103.599 133.235 103.507 133.404 103.435 133.39C103.362 133.375 103.358 133.129 103.546 132.907C103.734 132.685 103.985 132.646 104.004 132.714Z" fill="#29363D"/>
<path d="M104.009 133.28C103.942 133.28 103.826 133.149 103.647 133.029C103.469 132.908 103.285 132.836 103.285 132.768C103.285 132.7 103.541 132.647 103.792 132.821C104.043 132.995 104.077 133.26 104.009 133.28Z" fill="#29363D"/>
<path d="M134.022 131.647H118.873V146.796H134.022V131.647Z" fill="#29363D"/>
<path d="M123.054 131.647C123.099 131.794 123.154 131.937 123.218 132.077C123.433 132.462 123.714 132.807 124.048 133.096C125.294 134.151 126.664 135.05 128.127 135.775C129.04 136.258 130.058 136.769 131.154 137.291L132.863 138.087C133.483 138.351 134.081 138.666 134.649 139.029C135.902 139.804 136.856 140.979 137.357 142.364C137.606 143.115 137.692 143.909 137.609 144.695C137.527 145.481 137.278 146.24 136.879 146.923C136.481 147.605 135.941 148.194 135.297 148.652C134.653 149.11 133.918 149.425 133.143 149.577C131.692 149.814 130.203 149.591 128.885 148.939C127.706 148.364 126.631 147.595 125.704 146.666C124.816 145.816 124.072 144.957 123.391 144.175C122.016 142.63 120.833 141.438 120.056 140.578C119.665 140.153 119.361 139.816 119.163 139.584L118.941 139.318C118.914 139.289 118.891 139.257 118.873 139.222C118.873 139.222 118.907 139.222 118.96 139.299L119.201 139.55L120.128 140.516C120.929 141.356 122.127 142.524 123.507 144.064C124.202 144.836 124.956 145.686 125.829 146.521C126.747 147.425 127.807 148.172 128.967 148.732C130.242 149.357 131.679 149.569 133.08 149.34C133.822 149.196 134.525 148.896 135.141 148.459C135.757 148.021 136.273 147.458 136.655 146.805C137.036 146.153 137.273 145.426 137.351 144.675C137.429 143.923 137.345 143.163 137.106 142.447C136.632 141.117 135.724 139.986 134.528 139.236C133.973 138.878 133.388 138.566 132.781 138.305L131.072 137.494C129.976 136.963 128.962 136.446 128.05 135.949C126.584 135.203 125.22 134.274 123.99 133.183C123.656 132.878 123.381 132.515 123.179 132.111C123.131 132.005 123.097 131.893 123.078 131.778C123.062 131.736 123.053 131.692 123.054 131.647Z" fill="#A6A6A6"/>
<path d="M129.059 131.647C129.028 131.804 128.976 131.955 128.904 132.096C128.732 132.496 128.511 132.874 128.248 133.221C127.351 134.366 126.111 135.193 124.709 135.582C123.93 135.757 123.124 135.785 122.334 135.664C121.695 135.567 121.068 135.405 120.461 135.181C120.052 135.04 119.654 134.866 119.274 134.66C119.127 134.597 118.991 134.511 118.873 134.404C118.873 134.365 119.486 134.694 120.519 135.012C121.121 135.2 121.738 135.334 122.363 135.413C123.124 135.513 123.897 135.478 124.647 135.312C125.997 134.933 127.203 134.158 128.108 133.086C128.453 132.626 128.771 132.145 129.059 131.647Z" fill="#A6A6A6"/>
<path d="M124.627 138.527H124.145C122.247 138.43 120.316 137.653 118.675 136.904L119.076 136.026C120.635 136.736 122.455 137.474 124.193 137.566C125.896 137.702 127.591 137.208 128.953 136.176C129.598 135.668 130.097 134.999 130.398 134.235C130.699 133.472 130.792 132.642 130.667 131.831L131.632 131.638C131.796 132.62 131.692 133.629 131.331 134.558C130.97 135.486 130.365 136.3 129.58 136.914C128.164 138.005 126.415 138.574 124.627 138.527Z" fill="#A6A6A6"/>
<path d="M125.868 131.647C125.81 131.771 125.739 131.887 125.656 131.995C125.417 132.309 125.134 132.587 124.816 132.821C124.308 133.169 123.782 133.491 123.242 133.786C122.536 134.182 121.906 134.698 121.378 135.312C121.074 135.665 120.837 136.07 120.678 136.509C120.51 136.975 120.496 137.483 120.64 137.957C120.939 138.951 122.016 139.642 123.155 139.801C124.294 139.96 125.569 139.593 126.785 139.193C128.002 138.792 129.382 138.362 130.806 138.633C131.509 138.771 132.15 139.125 132.641 139.647C132.889 139.898 133.078 140.202 133.193 140.536C133.307 140.871 133.345 141.227 133.302 141.578C133.186 142.244 132.845 142.85 132.337 143.296C131.875 143.72 131.353 144.073 130.787 144.344C128.845 145.273 126.707 145.721 124.555 145.647C123.113 145.62 121.684 145.372 120.316 144.913C119.945 144.786 119.581 144.64 119.225 144.474C119.101 144.42 118.98 144.359 118.863 144.291C118.994 144.324 119.122 144.369 119.245 144.426C119.491 144.532 119.863 144.662 120.345 144.817C121.711 145.239 123.13 145.461 124.56 145.473C126.677 145.516 128.774 145.058 130.681 144.136C131.224 143.874 131.725 143.532 132.168 143.122C132.634 142.712 132.945 142.155 133.051 141.544C133.086 141.23 133.05 140.913 132.946 140.616C132.841 140.318 132.671 140.048 132.448 139.825C131.991 139.346 131.398 139.019 130.749 138.889C129.411 138.633 128.084 139.053 126.853 139.439C125.622 139.825 124.352 140.207 123.111 140.038C122.512 139.956 121.94 139.731 121.446 139.381C120.968 139.055 120.611 138.58 120.432 138.029C120.28 137.511 120.298 136.958 120.485 136.451C120.655 135.994 120.907 135.572 121.229 135.205C121.778 134.585 122.431 134.065 123.16 133.67C123.792 133.313 124.338 133.028 124.748 132.734C125.177 132.434 125.555 132.067 125.868 131.647Z" fill="#A6A6A6"/>
<path d="M140.669 137.304C140.462 137.403 140.245 137.481 140.022 137.536C139.422 137.712 138.806 137.828 138.183 137.884C136.112 138.053 134.031 137.722 132.115 136.918C130.212 136.109 128.471 134.964 126.974 133.539C126.399 132.998 125.965 132.53 125.675 132.197C125.516 132.031 125.373 131.85 125.25 131.656C125.423 131.804 125.585 131.966 125.733 132.139C126.042 132.453 126.491 132.897 127.08 133.418C128.591 134.793 130.32 135.905 132.197 136.711C134.079 137.499 136.116 137.849 138.154 137.734C139.001 137.647 139.841 137.503 140.669 137.304Z" fill="#A6A6A6"/>
<path d="M143.107 135.375C142.88 135.821 142.559 136.213 142.165 136.524C141.772 136.834 141.316 137.054 140.828 137.17C140.799 137.103 141.393 136.823 142.011 136.326C142.629 135.828 143.049 135.317 143.107 135.375Z" fill="#FF725E"/>
<path d="M144 138.053C143.494 137.799 142.97 137.584 142.431 137.41C141.874 137.316 141.311 137.27 140.746 137.27C141.294 137.019 141.915 136.981 142.489 137.164C143.084 137.266 143.622 137.582 144 138.053Z" fill="#FF725E"/>
<path d="M142.175 139.834C142.141 139.834 142.243 139.645 142.277 139.351C142.309 138.967 142.209 138.583 141.992 138.265C141.76 137.949 141.466 137.685 141.128 137.487C140.867 137.323 140.693 137.232 140.703 137.198C140.713 137.164 140.915 137.198 141.186 137.328C141.582 137.498 141.924 137.774 142.175 138.125C142.301 138.305 142.389 138.51 142.432 138.726C142.475 138.942 142.473 139.165 142.426 139.38C142.364 139.718 142.195 139.853 142.175 139.834Z" fill="#FF725E"/>
<mask id="path-120-outside-1_394_2435" maskUnits="userSpaceOnUse" x="54.6434" y="93.9473" width="7" height="6" fill="black">
<rect fill="white" x="54.6434" y="93.9473" width="7" height="6"/>
<path d="M59.4117 98.6825V98.9473H55.6434V98.6825H56.173V94.6433H59.1284V95.4869H57.1335V96.4166H59.0299V97.2602H57.1335V98.6825H59.4117ZM61.4331 98.6825V98.9473H59.4135V98.6825H59.9431V94.6433H60.9036V98.6825H61.4331Z"/>
</mask>
<path d="M59.4117 98.6825V98.9473H55.6434V98.6825H56.173V94.6433H59.1284V95.4869H57.1335V96.4166H59.0299V97.2602H57.1335V98.6825H59.4117ZM61.4331 98.6825V98.9473H59.4135V98.6825H59.9431V94.6433H60.9036V98.6825H61.4331Z" fill="#303564"/>
<path d="M59.4117 98.6825H59.4886V98.6055H59.4117V98.6825ZM59.4117 98.9473V99.0242H59.4886V98.9473H59.4117ZM55.6434 98.9473H55.5665V99.0242H55.6434V98.9473ZM55.6434 98.6825V98.6055H55.5665V98.6825H55.6434ZM56.173 98.6825V98.7595H56.2499V98.6825H56.173ZM56.173 94.6433V94.5664H56.096V94.6433H56.173ZM59.1284 94.6433H59.2054V94.5664H59.1284V94.6433ZM59.1284 95.4869V95.5639H59.2054V95.4869H59.1284ZM57.1335 95.4869V95.4099H57.0565V95.4869H57.1335ZM57.1335 96.4166H57.0565V96.4936H57.1335V96.4166ZM59.0299 96.4166H59.1069V96.3397H59.0299V96.4166ZM59.0299 97.2602V97.3371H59.1069V97.2602H59.0299ZM57.1335 97.2602V97.1832H57.0565V97.2602H57.1335ZM57.1335 98.6825H57.0565V98.7595H57.1335V98.6825ZM59.3347 98.6825V98.9473H59.4886V98.6825H59.3347ZM59.4117 98.8703H55.6434V99.0242H59.4117V98.8703ZM55.7204 98.9473V98.6825H55.5665V98.9473H55.7204ZM55.6434 98.7595H56.173V98.6055H55.6434V98.7595ZM56.2499 98.6825V94.6433H56.096V98.6825H56.2499ZM56.173 94.7203H59.1284V94.5664H56.173V94.7203ZM59.0515 94.6433V95.4869H59.2054V94.6433H59.0515ZM59.1284 95.4099H57.1335V95.5639H59.1284V95.4099ZM57.0565 95.4869V96.4166H57.2105V95.4869H57.0565ZM57.1335 96.4936H59.0299V96.3397H57.1335V96.4936ZM58.953 96.4166V97.2602H59.1069V96.4166H58.953ZM59.0299 97.1832H57.1335V97.3371H59.0299V97.1832ZM57.0565 97.2602V98.6825H57.2105V97.2602H57.0565ZM57.1335 98.7595H59.4117V98.6055H57.1335V98.7595ZM61.4331 98.6825H61.5101V98.6055H61.4331V98.6825ZM61.4331 98.9473V99.0242H61.5101V98.9473H61.4331ZM59.4135 98.9473H59.3366V99.0242H59.4135V98.9473ZM59.4135 98.6825V98.6055H59.3366V98.6825H59.4135ZM59.9431 98.6825V98.7595H60.02V98.6825H59.9431ZM59.9431 94.6433V94.5664H59.8661V94.6433H59.9431ZM60.9036 94.6433H60.9806V94.5664H60.9036V94.6433ZM60.9036 98.6825H60.8266V98.7595H60.9036V98.6825ZM61.3562 98.6825V98.9473H61.5101V98.6825H61.3562ZM61.4331 98.8703H59.4135V99.0242H61.4331V98.8703ZM59.4905 98.9473V98.6825H59.3366V98.9473H59.4905ZM59.4135 98.7595H59.9431V98.6055H59.4135V98.7595ZM60.02 98.6825V94.6433H59.8661V98.6825H60.02ZM59.9431 94.7203H60.9036V94.5664H59.9431V94.7203ZM60.8266 94.6433V98.6825H60.9806V94.6433H60.8266ZM60.9036 98.7595H61.4331V98.6055H60.9036V98.7595Z" fill="#2E353A" mask="url(#path-120-outside-1_394_2435)"/>
<mask id="path-122-outside-2_394_2435" maskUnits="userSpaceOnUse" x="64.3411" y="93.9473" width="6" height="6" fill="black">
<rect fill="white" x="64.3411" y="93.9473" width="6" height="6"/>
<path d="M65.8706 98.6825V94.6433H67.5023C68.1713 94.6433 68.6475 94.7562 68.9307 94.982C69.2181 95.2078 69.3618 95.571 69.3618 96.0718C69.3618 96.7614 69.0888 97.2068 68.5428 97.408L69.4418 98.6825H70.0206V98.9473H68.4505L67.4961 97.5742H66.8311V98.9473H65.2733V98.6825H65.8706ZM67.533 96.743C67.8614 96.743 68.0851 96.6896 68.2042 96.5829C68.3232 96.4762 68.3827 96.3079 68.3827 96.078C68.3827 95.844 68.3212 95.6839 68.198 95.5977C68.0749 95.5115 67.8594 95.4684 67.5515 95.4684H66.8311V96.743H67.533Z"/>
</mask>
<path d="M65.8706 98.6825V94.6433H67.5023C68.1713 94.6433 68.6475 94.7562 68.9307 94.982C69.2181 95.2078 69.3618 95.571 69.3618 96.0718C69.3618 96.7614 69.0888 97.2068 68.5428 97.408L69.4418 98.6825H70.0206V98.9473H68.4505L67.4961 97.5742H66.8311V98.9473H65.2733V98.6825H65.8706ZM67.533 96.743C67.8614 96.743 68.0851 96.6896 68.2042 96.5829C68.3232 96.4762 68.3827 96.3079 68.3827 96.078C68.3827 95.844 68.3212 95.6839 68.198 95.5977C68.0749 95.5115 67.8594 95.4684 67.5515 95.4684H66.8311V96.743H67.533Z" fill="#303564"/>
<path d="M65.8706 98.6825V98.7595H65.9476V98.6825H65.8706ZM65.8706 94.6433V94.5664H65.7936V94.6433H65.8706ZM68.9307 94.982L68.8828 95.0422L68.8832 95.0425L68.9307 94.982ZM68.5428 97.408L68.5162 97.3357L68.4222 97.3704L68.4799 97.4523L68.5428 97.408ZM69.4418 98.6825L69.3789 98.7269L69.4019 98.7595H69.4418V98.6825ZM70.0206 98.6825H70.0975V98.6055H70.0206V98.6825ZM70.0206 98.9473V99.0242H70.0975V98.9473H70.0206ZM68.4505 98.9473L68.3873 98.9912L68.4102 99.0242H68.4505V98.9473ZM67.4961 97.5742L67.5593 97.5303L67.5363 97.4972H67.4961V97.5742ZM66.8311 97.5742V97.4972H66.7542V97.5742H66.8311ZM66.8311 98.9473V99.0242H66.9081V98.9473H66.8311ZM65.2733 98.9473H65.1964V99.0242H65.2733V98.9473ZM65.2733 98.6825V98.6055H65.1964V98.6825H65.2733ZM68.2042 96.5829L68.2556 96.6402V96.6402L68.2042 96.5829ZM68.198 95.5977L68.2422 95.5347V95.5347L68.198 95.5977ZM66.8311 95.4684V95.3915H66.7542V95.4684H66.8311ZM66.8311 96.743H66.7542V96.8199H66.8311V96.743ZM65.9476 98.6825V94.6433H65.7936V98.6825H65.9476ZM65.8706 94.7203H67.5023V94.5664H65.8706V94.7203ZM67.5023 94.7203C68.1668 94.7203 68.6207 94.8333 68.8828 95.0422L68.9787 94.9218C68.6744 94.6792 68.1759 94.5664 67.5023 94.5664V94.7203ZM68.8832 95.0425C69.1457 95.2488 69.2848 95.5853 69.2848 96.0718H69.4387C69.4387 95.5567 69.2905 95.1668 68.9783 94.9215L68.8832 95.0425ZM69.2848 96.0718C69.2848 96.4069 69.2185 96.6756 69.0914 96.8828C68.965 97.0891 68.7749 97.2404 68.5162 97.3357L68.5694 97.4802C68.8567 97.3743 69.0761 97.2024 69.2226 96.9633C69.3686 96.7252 69.4387 96.4264 69.4387 96.0718H69.2848ZM68.4799 97.4523L69.3789 98.7269L69.5047 98.6381L68.6057 97.3636L68.4799 97.4523ZM69.4418 98.7595H70.0206V98.6055H69.4418V98.7595ZM69.9436 98.6825V98.9473H70.0975V98.6825H69.9436ZM70.0206 98.8703H68.4505V99.0242H70.0206V98.8703ZM68.5137 98.9033L67.5593 97.5303L67.4329 97.6181L68.3873 98.9912L68.5137 98.9033ZM67.4961 97.4972H66.8311V97.6512H67.4961V97.4972ZM66.7542 97.5742V98.9473H66.9081V97.5742H66.7542ZM66.8311 98.8703H65.2733V99.0242H66.8311V98.8703ZM65.3503 98.9473V98.6825H65.1964V98.9473H65.3503ZM65.2733 98.7595H65.8706V98.6055H65.2733V98.7595ZM67.533 96.8199C67.8635 96.8199 68.1135 96.7675 68.2556 96.6402L68.1528 96.5256C68.0568 96.6117 67.8593 96.666 67.533 96.666V96.8199ZM68.2556 96.6402C68.397 96.5134 68.4597 96.3199 68.4597 96.078H68.3058C68.3058 96.2958 68.2495 96.4389 68.1528 96.5256L68.2556 96.6402ZM68.4597 96.078C68.4597 95.8333 68.3954 95.6419 68.2422 95.5347L68.1539 95.6608C68.2469 95.7259 68.3058 95.8547 68.3058 96.078H68.4597ZM68.2422 95.5347C68.0982 95.4339 67.8616 95.3915 67.5515 95.3915V95.5454C67.8572 95.5454 68.0516 95.5891 68.1539 95.6608L68.2422 95.5347ZM67.5515 95.3915H66.8311V95.5454H67.5515V95.3915ZM66.7542 95.4684V96.743H66.9081V95.4684H66.7542ZM66.8311 96.8199H67.533V96.666H66.8311V96.8199Z" fill="#2E353A" mask="url(#path-122-outside-2_394_2435)"/>
<path d="M65.4626 95.9973C65.5365 95.9233 65.591 95.8323 65.6215 95.7322C65.6519 95.6322 65.6573 95.5263 65.6372 95.4237L65.2372 95.8237C65.2144 95.8463 65.1837 95.859 65.1516 95.859C65.1196 95.859 65.0888 95.8463 65.0661 95.8237L64.7335 95.4912C64.7223 95.48 64.7133 95.4666 64.7072 95.4519C64.7011 95.4372 64.698 95.4214 64.698 95.4055C64.698 95.3896 64.7011 95.3738 64.7072 95.3591C64.7133 95.3444 64.7223 95.3311 64.7335 95.3198L65.1333 94.92C65.0213 94.8981 64.9054 94.9067 64.7978 94.9449C64.6902 94.9831 64.5948 95.0494 64.5216 95.137C64.4484 95.2246 64.4 95.3302 64.3816 95.4429C64.3631 95.5555 64.3752 95.6711 64.4166 95.7775L63.3843 96.7861L63.2848 96.6863L63.4462 96.5248C63.4544 96.5164 63.459 96.5051 63.459 96.4934C63.459 96.4816 63.4544 96.4703 63.4462 96.4619L63.3203 96.336C63.3119 96.3277 63.3007 96.323 63.2889 96.323C63.2772 96.323 63.2659 96.3277 63.2576 96.336L63.1946 96.3989L63.0582 96.2628L63.1107 96.2103C63.1218 96.1992 63.128 96.1841 63.128 96.1684C63.128 96.1526 63.1218 96.1375 63.1107 96.1264L61.9842 94.9999C61.9574 94.9731 61.9255 94.9517 61.8904 94.9372C61.8553 94.9226 61.8177 94.9152 61.7797 94.9152C61.7418 94.9152 61.7042 94.9226 61.6691 94.9372C61.634 94.9517 61.6021 94.9731 61.5753 94.9999L61.4601 95.1151C61.4333 95.1419 61.4119 95.1737 61.3974 95.2088C61.3829 95.2439 61.3754 95.2815 61.3754 95.3194C61.3754 95.3574 61.3829 95.395 61.3974 95.43C61.4119 95.4651 61.4333 95.4969 61.4601 95.5238L62.5866 96.6505C62.5977 96.6616 62.6128 96.6678 62.6286 96.6678C62.6443 96.6678 62.6594 96.6616 62.6705 96.6505L62.723 96.598L62.8591 96.7344L62.7964 96.7971C62.7923 96.8012 62.789 96.8061 62.7868 96.8115C62.7845 96.817 62.7834 96.8227 62.7834 96.8286C62.7834 96.8344 62.7845 96.8402 62.7868 96.8456C62.789 96.851 62.7923 96.8559 62.7964 96.8601L62.9221 96.986C62.9305 96.9942 62.9418 96.9989 62.9536 96.9989C62.9653 96.9989 62.9766 96.9942 62.985 96.986L63.1465 96.8246L63.2444 96.9225L62.3883 97.7565C62.2819 97.7151 62.1664 97.7031 62.0537 97.7215C61.941 97.74 61.8354 97.7884 61.7478 97.8616C61.6602 97.9348 61.5938 98.0302 61.5556 98.1377C61.5174 98.2453 61.5088 98.3612 61.5306 98.4732L61.9307 98.0734C61.9419 98.0622 61.9553 98.0532 61.97 98.0471C61.9847 98.041 62.0004 98.0379 62.0164 98.0379C62.0323 98.0379 62.048 98.041 62.0627 98.0471C62.0775 98.0532 62.0908 98.0622 62.1021 98.0734L62.4357 98.4038C62.4469 98.4151 62.4559 98.4284 62.462 98.4431C62.4681 98.4578 62.4712 98.4736 62.4712 98.4895C62.4712 98.5054 62.4681 98.5212 62.462 98.5359C62.4559 98.5506 62.4469 98.564 62.4357 98.5752L62.0359 98.975C62.1479 98.9968 62.2638 98.9882 62.3714 98.9501C62.4789 98.9119 62.5743 98.8456 62.6476 98.758C62.7208 98.6704 62.7692 98.5648 62.7877 98.4522C62.8062 98.3395 62.7942 98.224 62.7529 98.1176L63.6089 97.2835L64.7763 98.4496C64.7595 98.4928 64.7557 98.54 64.7652 98.5853C64.7748 98.6307 64.7973 98.6723 64.8301 98.7051L65.1118 98.9868L65.4497 98.6486L65.168 98.3672C65.1352 98.3344 65.0936 98.3119 65.0482 98.3024C65.0028 98.2928 64.9557 98.2966 64.9124 98.3134L63.747 97.1479L64.7803 96.1404C64.8957 96.1853 65.0216 96.1956 65.1428 96.1702C65.2639 96.1448 65.375 96.0847 65.4626 95.9973Z" fill="#2E353A" stroke="#2E353A" stroke-width="0.0384828" stroke-linecap="round" stroke-linejoin="round"/>
<path d="M62.6817 97.9741L64.7084 95.9969C64.8149 96.0384 64.9305 96.0505 65.0433 96.032C65.156 96.0135 65.2617 95.965 65.3493 95.8917C65.437 95.8184 65.5033 95.7229 65.5414 95.6151C65.5794 95.5074 65.5879 95.3915 65.5658 95.2794L65.1661 95.6792C65.1548 95.6904 65.1415 95.6994 65.1268 95.7055C65.112 95.7116 65.0963 95.7147 65.0804 95.7147C65.0644 95.7147 65.0487 95.7116 65.034 95.7055C65.0193 95.6994 65.0059 95.6904 64.9947 95.6792L64.6621 95.3466C64.6509 95.3354 64.642 95.3221 64.6359 95.3074C64.6298 95.2927 64.6266 95.277 64.6266 95.2611C64.6266 95.2452 64.6298 95.2294 64.6359 95.2148C64.642 95.2001 64.6509 95.1867 64.6621 95.1755L65.0619 94.7755C64.9498 94.7536 64.8339 94.7623 64.7263 94.8005C64.6187 94.8387 64.5233 94.9052 64.4501 94.9929C64.377 95.0806 64.3287 95.1863 64.3103 95.299C64.292 95.4117 64.3042 95.5273 64.3458 95.6337L62.3191 97.6109C62.2127 97.5694 62.0971 97.5574 61.9845 97.5758C61.8718 97.5943 61.7662 97.6427 61.6786 97.7159C61.591 97.7891 61.5247 97.8845 61.4865 97.9921C61.4484 98.0997 61.4398 98.2155 61.4617 98.3276L61.8614 97.9278C61.8727 97.9165 61.8861 97.9076 61.9008 97.9015C61.9155 97.8954 61.9312 97.8922 61.9471 97.8922C61.9631 97.8922 61.9788 97.8954 61.9935 97.9015C62.0082 97.9076 62.0216 97.9165 62.0328 97.9278L62.3654 98.2603C62.3766 98.2715 62.3855 98.2849 62.3916 98.2996C62.3977 98.3142 62.4009 98.33 62.4009 98.3459C62.4009 98.3618 62.3977 98.3775 62.3916 98.3922C62.3855 98.4069 62.3766 98.4202 62.3654 98.4314L61.9648 98.8307C62.0768 98.8525 62.1927 98.8439 62.3002 98.8057C62.4078 98.7676 62.5032 98.7013 62.5764 98.6137C62.6497 98.5261 62.6981 98.4205 62.7166 98.3079C62.7351 98.1952 62.7231 98.0797 62.6817 97.9733V97.9741Z" fill="white" stroke="#2E353A" stroke-width="0.0384828" stroke-miterlimit="10"/>
<path d="M62.5258 97.7655C62.5103 97.75 62.5016 97.7289 62.5016 97.707C62.5016 97.6851 62.5103 97.664 62.5258 97.6485L64.348 95.8758C64.3636 95.8603 64.3846 95.8516 64.4066 95.8516C64.4286 95.8516 64.4497 95.8603 64.4653 95.8758C64.4808 95.8914 64.4895 95.9124 64.4895 95.9344C64.4895 95.9564 64.4808 95.9775 64.4653 95.9931L62.6431 97.7655C62.6275 97.781 62.6064 97.7897 62.5844 97.7897C62.5624 97.7897 62.5414 97.781 62.5258 97.7655Z" fill="white" stroke="#2E353A" stroke-width="0.0384828" stroke-miterlimit="10"/>
<path d="M63.0661 96.3941L62.9299 96.5303L64.8953 98.4956L65.0315 98.3594L63.0661 96.3941Z" fill="white" stroke="#2E353A" stroke-width="0.0384828" stroke-miterlimit="10"/>
<path d="M65.3783 98.506L65.0404 98.8439L64.7587 98.5625C64.7139 98.5176 64.6887 98.4568 64.6887 98.3934C64.6887 98.33 64.7139 98.2691 64.7587 98.2243C64.7809 98.2021 64.8073 98.1845 64.8363 98.1725C64.8652 98.1605 64.8963 98.1543 64.9277 98.1543C64.9591 98.1543 64.9902 98.1605 65.0191 98.1725C65.0481 98.1845 65.0745 98.2021 65.0967 98.2243L65.3783 98.506Z" fill="white" stroke="#2E353A" stroke-width="0.0384828" stroke-miterlimit="10"/>
<path d="M62.8828 96.0123L62.5474 96.3477L62.8198 96.6201L63.1552 96.2847L62.8828 96.0123Z" fill="white" stroke="#2E353A" stroke-width="0.0384828" stroke-miterlimit="10"/>
<path d="M61.3894 94.9695L61.5047 94.8542C61.5315 94.8274 61.5633 94.8061 61.5984 94.7916C61.6335 94.7771 61.671 94.7696 61.709 94.7696C61.7469 94.7696 61.7845 94.7771 61.8196 94.7916C61.8546 94.8061 61.8865 94.8274 61.9133 94.8542L63.0399 95.9808C63.051 95.9919 63.0572 96.007 63.0572 96.0227C63.0572 96.0384 63.051 96.0534 63.0399 96.0645L62.5997 96.5047C62.5886 96.5158 62.5735 96.5221 62.5578 96.5221C62.5421 96.5221 62.5271 96.5158 62.516 96.5047L61.3894 95.3781C61.3352 95.324 61.3047 95.2505 61.3047 95.1738C61.3047 95.0972 61.3352 95.0237 61.3894 94.9695Z" fill="white" stroke="#2E353A" stroke-width="0.0384828" stroke-miterlimit="10"/>
<path d="M63.1866 96.1911L62.7255 96.6522C62.7081 96.6695 62.7081 96.6976 62.7255 96.715L62.8514 96.8409C62.8688 96.8583 62.8969 96.8583 62.9142 96.8409L63.3753 96.3798C63.3927 96.3624 63.3927 96.3343 63.3753 96.317L63.2494 96.1911C63.2321 96.1737 63.204 96.1737 63.1866 96.1911Z" fill="white" stroke="#2E353A" stroke-width="0.0384828" stroke-miterlimit="10"/>
<path d="M62.6626 96.3366L62.5701 96.4294L61.4638 95.3231C61.4515 95.3108 61.4446 95.2941 61.4446 95.2767C61.4446 95.2593 61.4515 95.2426 61.4638 95.2303C61.4699 95.2241 61.4771 95.2193 61.4851 95.216C61.493 95.2126 61.5016 95.2109 61.5102 95.2109C61.5188 95.2109 61.5274 95.2126 61.5353 95.216C61.5433 95.2193 61.5505 95.2241 61.5566 95.2303L62.6626 96.3366Z" fill="white" stroke="#2E353A" stroke-width="0.0384828" stroke-miterlimit="10"/>
<path d="M62.8205 96.1793L62.7274 96.2721L61.6211 95.1659C61.6088 95.1535 61.6019 95.1369 61.6019 95.1195C61.6019 95.102 61.6088 95.0854 61.6211 95.073C61.6272 95.0669 61.6345 95.0621 61.6424 95.0587C61.6504 95.0554 61.6589 95.0537 61.6676 95.0537C61.6762 95.0537 61.6847 95.0554 61.6927 95.0587C61.7007 95.0621 61.7079 95.0669 61.714 95.073L62.8205 96.1793Z" fill="white" stroke="#2E353A" stroke-width="0.0384828" stroke-miterlimit="10"/>
<path d="M62.9785 96.0202L62.8854 96.1122L61.7791 95.0067C61.7668 94.9944 61.7599 94.9777 61.7599 94.9603C61.7599 94.9429 61.7668 94.9262 61.7791 94.9139C61.7852 94.9077 61.7924 94.9029 61.8004 94.8996C61.8083 94.8962 61.8169 94.8945 61.8255 94.8945C61.8341 94.8945 61.8427 94.8962 61.8507 94.8996C61.8586 94.9029 61.8658 94.9077 61.8719 94.9139L62.9785 96.0202Z" fill="white" stroke="#2E353A" stroke-width="0.0384828" stroke-miterlimit="10"/>
<path d="M68.6016 36.4453V38H62.5625V36.4453H68.6016ZM63.1172 26.625V38H61.1562V26.625H63.1172ZM67.8125 31.375V32.9062H62.5625V31.375H67.8125ZM68.5625 26.625V28.1875H62.5625V26.625H68.5625ZM72.0312 26V38H70.1406V26H72.0312ZM77.8203 38.1562C77.1953 38.1562 76.6302 38.0547 76.125 37.8516C75.625 37.6432 75.1979 37.3542 74.8438 36.9844C74.4948 36.6146 74.2266 36.1797 74.0391 35.6797C73.8516 35.1797 73.7578 34.6406 73.7578 34.0625V33.75C73.7578 33.0885 73.8542 32.4896 74.0469 31.9531C74.2396 31.4167 74.5078 30.9583 74.8516 30.5781C75.1953 30.1927 75.6016 29.8984 76.0703 29.6953C76.5391 29.4922 77.0469 29.3906 77.5938 29.3906C78.1979 29.3906 78.7266 29.4922 79.1797 29.6953C79.6328 29.8984 80.0078 30.1849 80.3047 30.5547C80.6068 30.9193 80.8307 31.3542 80.9766 31.8594C81.1276 32.3646 81.2031 32.9219 81.2031 33.5312V34.3359H74.6719V32.9844H79.3438V32.8359C79.3333 32.4974 79.2656 32.1797 79.1406 31.8828C79.0208 31.5859 78.8359 31.3464 78.5859 31.1641C78.3359 30.9818 78.0026 30.8906 77.5859 30.8906C77.2734 30.8906 76.9948 30.9583 76.75 31.0938C76.5104 31.224 76.3099 31.4141 76.1484 31.6641C75.987 31.9141 75.862 32.2161 75.7734 32.5703C75.6901 32.9193 75.6484 33.3125 75.6484 33.75V34.0625C75.6484 34.4323 75.6979 34.776 75.7969 35.0938C75.901 35.4062 76.0521 35.6797 76.25 35.9141C76.4479 36.1484 76.6875 36.3333 76.9688 36.4688C77.25 36.599 77.5703 36.6641 77.9297 36.6641C78.3828 36.6641 78.7865 36.5729 79.1406 36.3906C79.4948 36.2083 79.8021 35.9505 80.0625 35.6172L81.0547 36.5781C80.8724 36.8438 80.6354 37.099 80.3438 37.3438C80.0521 37.5833 79.6953 37.7786 79.2734 37.9297C78.8568 38.0807 78.3724 38.1562 77.8203 38.1562ZM86.125 36.6562C86.4323 36.6562 86.7083 36.5964 86.9531 36.4766C87.2031 36.3516 87.4036 36.1797 87.5547 35.9609C87.7109 35.7422 87.7969 35.4896 87.8125 35.2031H89.5859C89.5755 35.75 89.4141 36.2474 89.1016 36.6953C88.7891 37.1432 88.375 37.5 87.8594 37.7656C87.3438 38.026 86.7734 38.1562 86.1484 38.1562C85.5026 38.1562 84.9401 38.0469 84.4609 37.8281C83.9818 37.6042 83.5833 37.2969 83.2656 36.9062C82.9479 36.5156 82.7083 36.0651 82.5469 35.5547C82.3906 35.0443 82.3125 34.4974 82.3125 33.9141V33.6406C82.3125 33.0573 82.3906 32.5104 82.5469 32C82.7083 31.4844 82.9479 31.0312 83.2656 30.6406C83.5833 30.25 83.9818 29.9453 84.4609 29.7266C84.9401 29.5026 85.5 29.3906 86.1406 29.3906C86.8177 29.3906 87.4115 29.526 87.9219 29.7969C88.4323 30.0625 88.8333 30.4349 89.125 30.9141C89.4219 31.388 89.5755 31.9401 89.5859 32.5703H87.8125C87.7969 32.2578 87.7188 31.9766 87.5781 31.7266C87.4427 31.4714 87.25 31.2682 87 31.1172C86.7552 30.9661 86.4609 30.8906 86.1172 30.8906C85.737 30.8906 85.4219 30.9688 85.1719 31.125C84.9219 31.276 84.7266 31.4844 84.5859 31.75C84.4453 32.0104 84.3438 32.3047 84.2812 32.6328C84.224 32.9557 84.1953 33.2917 84.1953 33.6406V33.9141C84.1953 34.263 84.224 34.6016 84.2812 34.9297C84.3385 35.2578 84.4375 35.5521 84.5781 35.8125C84.724 36.0677 84.9219 36.2734 85.1719 36.4297C85.4219 36.5807 85.7396 36.6562 86.125 36.6562ZM94.9062 29.5469V30.9219H90.1406V29.5469H94.9062ZM91.5156 27.4766H93.3984V35.6641C93.3984 35.9245 93.4349 36.125 93.5078 36.2656C93.5859 36.401 93.6927 36.4922 93.8281 36.5391C93.9635 36.5859 94.1224 36.6094 94.3047 36.6094C94.4349 36.6094 94.5599 36.6016 94.6797 36.5859C94.7995 36.5703 94.8958 36.5547 94.9688 36.5391L94.9766 37.9766C94.8203 38.0234 94.638 38.0651 94.4297 38.1016C94.2266 38.138 93.9922 38.1562 93.7266 38.1562C93.2943 38.1562 92.9115 38.0807 92.5781 37.9297C92.2448 37.7734 91.9844 37.5208 91.7969 37.1719C91.6094 36.8229 91.5156 36.3594 91.5156 35.7812V27.4766ZM98.25 31.1562V38H96.3672V29.5469H98.1641L98.25 31.1562ZM100.836 29.4922L100.82 31.2422C100.706 31.2214 100.581 31.2057 100.445 31.1953C100.315 31.1849 100.185 31.1797 100.055 31.1797C99.7318 31.1797 99.4479 31.2266 99.2031 31.3203C98.9583 31.4089 98.7526 31.5391 98.5859 31.7109C98.4245 31.8776 98.2995 32.0807 98.2109 32.3203C98.1224 32.5599 98.0703 32.8281 98.0547 33.125L97.625 33.1562C97.625 32.625 97.6771 32.1328 97.7812 31.6797C97.8854 31.2266 98.0417 30.8281 98.25 30.4844C98.4635 30.1406 98.7292 29.8724 99.0469 29.6797C99.3698 29.487 99.7422 29.3906 100.164 29.3906C100.279 29.3906 100.401 29.401 100.531 29.4219C100.667 29.4427 100.768 29.4661 100.836 29.4922ZM104.031 29.5469V38H102.141V29.5469H104.031ZM102.016 27.3281C102.016 27.0417 102.109 26.8047 102.297 26.6172C102.49 26.4245 102.755 26.3281 103.094 26.3281C103.427 26.3281 103.69 26.4245 103.883 26.6172C104.076 26.8047 104.172 27.0417 104.172 27.3281C104.172 27.6094 104.076 27.8438 103.883 28.0312C103.69 28.2188 103.427 28.3125 103.094 28.3125C102.755 28.3125 102.49 28.2188 102.297 28.0312C102.109 27.8438 102.016 27.6094 102.016 27.3281ZM109.547 36.6562C109.854 36.6562 110.13 36.5964 110.375 36.4766C110.625 36.3516 110.826 36.1797 110.977 35.9609C111.133 35.7422 111.219 35.4896 111.234 35.2031H113.008C112.997 35.75 112.836 36.2474 112.523 36.6953C112.211 37.1432 111.797 37.5 111.281 37.7656C110.766 38.026 110.195 38.1562 109.57 38.1562C108.924 38.1562 108.362 38.0469 107.883 37.8281C107.404 37.6042 107.005 37.2969 106.688 36.9062C106.37 36.5156 106.13 36.0651 105.969 35.5547C105.812 35.0443 105.734 34.4974 105.734 33.9141V33.6406C105.734 33.0573 105.812 32.5104 105.969 32C106.13 31.4844 106.37 31.0312 106.688 30.6406C107.005 30.25 107.404 29.9453 107.883 29.7266C108.362 29.5026 108.922 29.3906 109.562 29.3906C110.24 29.3906 110.833 29.526 111.344 29.7969C111.854 30.0625 112.255 30.4349 112.547 30.9141C112.844 31.388 112.997 31.9401 113.008 32.5703H111.234C111.219 32.2578 111.141 31.9766 111 31.7266C110.865 31.4714 110.672 31.2682 110.422 31.1172C110.177 30.9661 109.883 30.8906 109.539 30.8906C109.159 30.8906 108.844 30.9688 108.594 31.125C108.344 31.276 108.148 31.4844 108.008 31.75C107.867 32.0104 107.766 32.3047 107.703 32.6328C107.646 32.9557 107.617 33.2917 107.617 33.6406V33.9141C107.617 34.263 107.646 34.6016 107.703 34.9297C107.76 35.2578 107.859 35.5521 108 35.8125C108.146 36.0677 108.344 36.2734 108.594 36.4297C108.844 36.5807 109.161 36.6562 109.547 36.6562ZM119.219 36.3047V32.2734C119.219 31.9714 119.164 31.7109 119.055 31.4922C118.945 31.2734 118.779 31.1042 118.555 30.9844C118.336 30.8646 118.06 30.8047 117.727 30.8047C117.419 30.8047 117.154 30.8568 116.93 30.9609C116.706 31.0651 116.531 31.2057 116.406 31.3828C116.281 31.5599 116.219 31.7604 116.219 31.9844H114.344C114.344 31.651 114.424 31.3281 114.586 31.0156C114.747 30.7031 114.982 30.4245 115.289 30.1797C115.596 29.9349 115.964 29.7422 116.391 29.6016C116.818 29.4609 117.297 29.3906 117.828 29.3906C118.464 29.3906 119.026 29.4974 119.516 29.7109C120.01 29.9245 120.398 30.2474 120.68 30.6797C120.966 31.1068 121.109 31.6432 121.109 32.2891V36.0469C121.109 36.4323 121.135 36.7786 121.188 37.0859C121.245 37.388 121.326 37.651 121.43 37.875V38H119.5C119.411 37.7969 119.341 37.5391 119.289 37.2266C119.242 36.9089 119.219 36.6016 119.219 36.3047ZM119.492 32.8594L119.508 34.0234H118.156C117.807 34.0234 117.5 34.0573 117.234 34.125C116.969 34.1875 116.747 34.2812 116.57 34.4062C116.393 34.5312 116.26 34.6823 116.172 34.8594C116.083 35.0365 116.039 35.237 116.039 35.4609C116.039 35.6849 116.091 35.8906 116.195 36.0781C116.299 36.2604 116.451 36.4036 116.648 36.5078C116.852 36.612 117.096 36.6641 117.383 36.6641C117.768 36.6641 118.104 36.5859 118.391 36.4297C118.682 36.2682 118.911 36.0729 119.078 35.8438C119.245 35.6094 119.333 35.388 119.344 35.1797L119.953 36.0156C119.891 36.2292 119.784 36.4583 119.633 36.7031C119.482 36.9479 119.284 37.1823 119.039 37.4062C118.799 37.625 118.51 37.8047 118.172 37.9453C117.839 38.0859 117.453 38.1562 117.016 38.1562C116.464 38.1562 115.971 38.0469 115.539 37.8281C115.107 37.6042 114.768 37.3047 114.523 36.9297C114.279 36.5495 114.156 36.1198 114.156 35.6406C114.156 35.1927 114.24 34.7969 114.406 34.4531C114.578 34.1042 114.828 33.8125 115.156 33.5781C115.49 33.3438 115.896 33.1667 116.375 33.0469C116.854 32.9219 117.401 32.8594 118.016 32.8594H119.492ZM125.094 26V38H123.203V26H125.094Z" fill="black"/>
</g>
<rect x="4.9" y="3.9" width="180.2" height="150.2" rx="15.1" stroke="#303564" stroke-width="0.2"/>
</g>
<defs>
<filter id="filter0_d_394_2435" x="0.800049" y="0.799805" width="188.4" height="158.4" filterUnits="userSpaceOnUse" color-interpolation-filters="sRGB">
<feFlood flood-opacity="0" result="BackgroundImageFix"/>
<feColorMatrix in="SourceAlpha" type="matrix" values="0 0 0 0 0 0 0 0 0 0 0 0 0 0 0 0 0 0 127 0" result="hardAlpha"/>
<feOffset dy="1"/>
<feGaussianBlur stdDeviation="2"/>
<feComposite in2="hardAlpha" operator="out"/>
<feColorMatrix type="matrix" values="0 0 0 0 0.188235 0 0 0 0 0.207843 0 0 0 0 0.392157 0 0 0 0.5 0"/>
<feBlend mode="normal" in2="BackgroundImageFix" result="effect1_dropShadow_394_2435"/>
<feBlend mode="normal" in="SourceGraphic" in2="effect1_dropShadow_394_2435" result="shape"/>
</filter>
<clipPath id="clip0_394_2435">
<rect x="5" y="4" width="180" height="150" rx="15" fill="white"/>
</clipPath>
</defs>
</svg>
