<svg width="190" height="160" viewBox="0 0 190 160" fill="none" xmlns="http://www.w3.org/2000/svg">
<g filter="url(#filter0_d_394_2436)">
<g clip-path="url(#clip0_394_2436)">
<rect x="5" y="4" width="180" height="150" rx="15" fill="#F5F5F5"/>
<path d="M21.0727 127.062H10.113V131.694H21.0727V127.062Z" fill="#EBEBEB"/>
<path d="M14.9597 132.901H4V137.533H14.9597V132.901Z" fill="#EBEBEB"/>
<path d="M119.892 97.5654H108.932V102.197H119.892V97.5654Z" fill="#EBEBEB"/>
<path d="M113.779 103.404H102.819V108.036H113.779V103.404Z" fill="#EBEBEB"/>
<path d="M185 132.901H174.04V137.533H185V132.901Z" fill="#EBEBEB"/>
<path d="M178.887 42.4805H167.927V47.1118H178.887V42.4805Z" fill="#EBEBEB"/>
<path d="M185 48.3193H174.04V52.9507H185V48.3193Z" fill="#EBEBEB"/>
<path d="M107.666 97.5654H96.7061V102.197H107.666V97.5654Z" fill="#EBEBEB"/>
<path d="M21.0727 42.4805H10.113V47.1118H21.0727V42.4805Z" fill="#EBEBEB"/>
<path d="M167.836 38.7555H113.332V14.6426H167.836V38.7555ZM114.987 37.1H166.181V16.2981H114.987V37.1Z" fill="#EBEBEB"/>
<path d="M140.768 16.0996H139.113V37.2946H140.768V16.0996Z" fill="#EBEBEB"/>
<path d="M6.61762 124.56C7.11734 124.56 7.61216 124.648 8.07379 124.821C8.53541 124.994 8.95477 125.246 9.30792 125.565C9.66107 125.884 9.94108 126.262 10.1319 126.679C10.3228 127.095 10.4207 127.542 10.4201 127.992V136.897C10.4201 137.916 12.7269 137.983 12.8752 136.897V120.777H15.6136V136.96C15.6136 141.454 7.47667 141.454 7.47667 136.894V128.35C7.47725 128.198 7.44451 128.047 7.38034 127.906C7.31617 127.766 7.22182 127.638 7.10271 127.53C6.98361 127.422 6.84209 127.337 6.68626 127.278C6.53043 127.22 6.36337 127.19 6.19464 127.19H4.99982V124.56H6.61762Z" fill="#2E353A"/>
<path opacity="0.3" d="M6.61762 124.56C7.11734 124.56 7.61216 124.648 8.07379 124.821C8.53541 124.994 8.95477 125.246 9.30792 125.565C9.66107 125.884 9.94108 126.262 10.1319 126.679C10.3228 127.095 10.4207 127.542 10.4201 127.992V136.897C10.4201 137.916 12.7269 137.983 12.8752 136.897V120.777H15.6136V136.96C15.6136 141.454 7.47667 141.454 7.47667 136.894V128.35C7.47725 128.198 7.44451 128.047 7.38034 127.906C7.31617 127.766 7.22182 127.638 7.10271 127.53C6.98361 127.422 6.84209 127.337 6.68626 127.278C6.53043 127.22 6.36337 127.19 6.19464 127.19H4.99982V124.56H6.61762Z" fill="white"/>
<path opacity="0.2" d="M13.2806 122.049H13.6731V135.46C13.6737 135.693 13.6202 135.923 13.5161 136.136L13.2806 136.608V122.049Z" fill="white"/>
<path opacity="0.2" d="M7.98244 128.249V137.135C7.91267 138.354 9.45634 139.887 11.2529 139.887C9.50867 139.541 8.37053 138.342 8.40978 137.135V129.126C8.40978 128.866 8.23972 128.351 7.98244 128.249Z" fill="white"/>
<path opacity="0.1" d="M15.3955 122.049V137.127L15.2298 136.199C15.2277 136.178 15.2277 136.157 15.2298 136.136V122.049H15.3955Z" fill="white"/>
<path opacity="0.1" d="M10.2194 127.663C10.311 126.676 8.88068 124.966 7.62917 124.844C8.29708 125.049 8.88457 125.425 9.32036 125.925C9.75615 126.425 10.0215 127.029 10.0842 127.663V137.382C10.0842 137.858 10.8473 138.094 11.4186 138.058C10.8822 138.039 10.215 137.866 10.2063 137.386L10.2194 127.663Z" fill="white"/>
<path d="M16.128 122.049H12.0246C11.9695 122.049 11.9152 122.037 11.8665 122.013C11.8179 121.99 11.7763 121.956 11.7455 121.915L9.5652 119.041H18.4915L16.4071 121.911C16.3765 121.953 16.3351 121.987 16.2865 122.011C16.2378 122.035 16.1834 122.048 16.128 122.049Z" fill="#2E353A"/>
<path opacity="0.1" d="M16.128 122.049H12.0246C11.9695 122.049 11.9152 122.037 11.8665 122.013C11.8179 121.99 11.7763 121.956 11.7455 121.915L9.5652 119.041H18.4915L16.4071 121.911C16.3765 121.953 16.3351 121.987 16.2865 122.011C16.2378 122.035 16.1834 122.048 16.128 122.049Z" fill="white"/>
<path opacity="0.2" d="M10.7819 119.036L12.3648 122.048H12.8794L11.6541 119.036H10.7819Z" fill="white"/>
<path opacity="0.1" d="M18.0686 119.036L15.9929 122.048H15.8011L17.602 119.036H18.0686Z" fill="white"/>
<path d="M11.3706 100.499C11.3706 100.715 11.3401 100.892 11.2965 100.892H10.4767C10.4374 100.892 10.4025 100.715 10.4025 100.499C10.4025 100.282 10.4374 100.105 10.4767 100.105H11.2965C11.3401 100.105 11.3706 100.282 11.3706 100.499Z" fill="#2E353A"/>
<path opacity="0.2" d="M11.3706 100.499C11.3706 100.715 11.3401 100.892 11.2965 100.892H10.4767C10.4374 100.892 10.4025 100.715 10.4025 100.499C10.4025 100.282 10.4374 100.105 10.4767 100.105H11.2965C11.3401 100.105 11.3706 100.282 11.3706 100.499Z" fill="white"/>
<path d="M12.4607 105.941C11.9778 106.23 11.4113 106.384 10.832 106.384C10.2527 106.384 9.68616 106.23 9.20329 105.941L10.1059 100.987H11.7019L12.4607 105.941Z" fill="#2E353A"/>
<path opacity="0.7" d="M12.4607 105.941C11.9778 106.23 11.4113 106.384 10.832 106.384C10.2527 106.384 9.68616 106.23 9.20329 105.941L10.1059 100.987H11.7019L12.4607 105.941Z" fill="white"/>
<path d="M13.6904 100.687C13.6904 100.791 13.6445 100.891 13.5627 100.965C13.4809 101.039 13.37 101.08 13.2544 101.08H8.40532C8.28967 101.08 8.17875 101.039 8.09697 100.965C8.01519 100.891 7.96926 100.791 7.96926 100.687C7.96926 100.583 8.01519 100.483 8.09697 100.409C8.17875 100.335 8.28967 100.294 8.40532 100.294H13.2544C13.37 100.294 13.4809 100.335 13.5627 100.409C13.6445 100.483 13.6904 100.583 13.6904 100.687Z" fill="#2E353A"/>
<path opacity="0.4" d="M13.6904 100.687C13.6904 100.791 13.6445 100.891 13.5627 100.965C13.4809 101.039 13.37 101.08 13.2544 101.08H8.40532C8.28967 101.08 8.17875 101.039 8.09697 100.965C8.01519 100.891 7.96926 100.791 7.96926 100.687C7.96926 100.583 8.01519 100.483 8.09697 100.409C8.17875 100.335 8.28967 100.294 8.40532 100.294H13.2544C13.37 100.294 13.4809 100.335 13.5627 100.409C13.6445 100.483 13.6904 100.583 13.6904 100.687Z" fill="white"/>
<path d="M13.0406 101.627L11.7978 101.528C11.6662 101.567 11.5554 101.648 11.4875 101.757C11.4196 101.865 11.3996 101.993 11.4315 102.114C11.4315 102.484 11.6321 102.684 11.9548 102.669L12.6874 102.594C12.8764 102.569 13.0685 102.613 13.2221 102.715C13.3757 102.817 13.4781 102.97 13.5072 103.14V103.27L14.3095 103.239C14.3261 102.994 14.3115 102.749 14.2659 102.507C14.1804 102.268 14.0185 102.057 13.8005 101.9C13.5826 101.744 13.3183 101.649 13.0406 101.627Z" fill="#2E353A"/>
<g opacity="0.4">
<path d="M13.0408 101.626L11.7981 101.527C11.6665 101.566 11.5557 101.647 11.4878 101.756C11.4199 101.864 11.3999 101.992 11.4318 102.113C11.4318 102.483 11.6323 102.683 11.955 102.668L12.6876 102.593C12.8766 102.568 13.0688 102.612 13.2223 102.714C13.3759 102.816 13.4784 102.969 13.5074 103.139V103.269L14.3098 103.238C14.3264 102.993 14.3117 102.748 14.2662 102.506C14.1806 102.267 14.0187 102.056 13.8008 101.899C13.5828 101.743 13.3185 101.648 13.0408 101.626Z" fill="white"/>
</g>
<path d="M34.2116 105.771H6.4779C6.08775 105.771 5.71353 105.911 5.43724 106.159C5.16096 106.408 5.00515 106.745 5.004 107.096V118.133C5.00541 118.313 5.08128 118.486 5.21676 118.618C5.35225 118.751 5.53761 118.833 5.7366 118.848C23.6763 120.146 31.9005 118.699 35.3236 108.626V106.762C35.3202 106.498 35.2015 106.246 34.9933 106.061C34.7852 105.875 34.5043 105.771 34.2116 105.771Z" fill="#303564"/>
<path opacity="0.2" d="M34.2116 105.771H6.4779C6.08775 105.771 5.71353 105.911 5.43724 106.159C5.16096 106.408 5.00515 106.745 5.004 107.096V118.133C5.00541 118.313 5.08128 118.486 5.21676 118.618C5.35225 118.751 5.53761 118.833 5.7366 118.848C23.6763 120.146 31.9005 118.699 35.3236 108.626V106.762C35.3202 106.498 35.2015 106.246 34.9933 106.061C34.7852 105.875 34.5043 105.771 34.2116 105.771Z" fill="white"/>
<path opacity="0.2" d="M34.2116 105.771H6.4779C6.08775 105.771 5.71353 105.911 5.43724 106.159C5.16096 106.408 5.00515 106.745 5.004 107.096V108.543L35.3236 108.638V106.774C35.3236 106.508 35.2065 106.253 34.9979 106.065C34.7894 105.877 34.5066 105.771 34.2116 105.771Z" fill="black"/>
<path opacity="0.1" d="M31.6609 105.771H6.47809C6.08795 105.771 5.71372 105.911 5.43744 106.159C5.16115 106.408 5.00535 106.745 5.00419 107.096V108.543L32.7728 108.638V106.774C32.7728 106.508 32.6557 106.253 32.4471 106.065C32.2386 105.877 31.9558 105.771 31.6609 105.771Z" fill="white"/>
<path opacity="0.1" d="M5.00419 108.543V118.132C5.00561 118.313 5.08147 118.486 5.21696 118.618C5.35244 118.75 5.5378 118.832 5.73679 118.848C23.6765 120.146 29.3366 118.699 32.7728 108.626L5.00419 108.543Z" fill="white"/>
<path d="M71.376 92.6278C72.2155 93.3609 72.9691 93.9808 73.7822 94.6245C74.5952 95.2682 75.4083 95.8821 76.2346 96.496C77.9004 97.688 79.5993 98.88 81.4105 100.012C83.2523 101.18 85.173 102.243 87.1615 103.195C88.2327 103.717 89.3362 104.182 90.4667 104.59C91.8241 105.08 93.239 105.43 94.6841 105.633L95.0212 105.681C95.252 105.701 95.4845 105.701 95.7153 105.681C97.1896 105.589 98.6328 105.254 99.9723 104.691C100.982 104.276 101.955 103.789 102.881 103.237C104.503 102.263 106.037 101.175 107.468 99.9826C108.843 98.8383 110.113 97.6582 111.336 96.4065C112.559 95.177 113.707 93.8876 114.773 92.5444C115.167 92.0333 115.353 91.4155 115.301 90.7948C115.249 90.1742 114.961 89.5889 114.486 89.1374C114.011 88.6859 113.377 88.3959 112.693 88.3162C112.008 88.2366 111.314 88.3721 110.727 88.7001L110.648 88.7478L106.378 91.1735C104.957 91.9722 103.542 92.7589 102.134 93.4742C100.811 94.1721 99.4449 94.8009 98.0421 95.3576C97.4705 95.5948 96.875 95.7824 96.2639 95.9178C95.7682 96.0251 95.3451 96.037 95.4839 95.9715L96.5085 96.043C95.961 95.8608 95.4287 95.6437 94.9154 95.3933C94.2544 95.0715 93.5206 94.696 92.7935 94.2728C92.0664 93.8496 91.3194 93.3848 90.579 92.8901C89.8387 92.3954 89.0785 91.9066 88.3315 91.3822C86.8376 90.3272 85.3304 89.2365 83.8497 88.11L81.6286 86.4114L79.4671 84.7306L79.3613 84.6531C78.1881 83.738 76.6649 83.2723 75.1163 83.3551C73.5678 83.438 72.1164 84.063 71.0715 85.0968C70.0266 86.1306 69.4709 87.4915 69.5229 88.8894C69.5748 90.2874 70.2303 91.6117 71.3496 92.5801L71.376 92.6278Z" fill="#DA9684"/>
<path d="M111.838 92.8724L118.448 93.4684L117 86.3818C117 86.3818 110.926 86.4832 110.463 89.4036L111.838 92.8724Z" fill="#2E353A"/>
<path d="M123.855 89.5874L122.884 87.2034C122.697 86.7389 122.333 86.3496 121.857 86.105C121.381 85.8604 120.824 85.7765 120.286 85.8683L116.981 86.4226L118.448 93.4854L122.414 92.2933C122.709 92.2052 122.982 92.0644 123.215 91.8793C123.448 91.6943 123.638 91.4687 123.772 91.2162C123.907 90.9637 123.983 90.6893 123.998 90.4095C124.012 90.1296 123.964 89.8501 123.855 89.5874Z" fill="#2E353A"/>
<path d="M116.406 91.9714C114.667 93.1992 111.778 96.9362 111.19 98.0507C106.807 96.6084 104.619 92.8773 105.208 91.5244C108.202 89.4443 110.78 88.0496 112.677 87.7158C115.771 88.288 116.406 91.9714 116.406 91.9714Z" fill="#2E353A"/>
<path d="M66.6627 86.6673C67.6344 89.5997 69.763 93.7062 73.0086 95.3989C76.2543 97.0916 81.8665 103.451 86.1632 105.132C93.0314 101.961 93.3949 96.3465 92.5819 93.4499C88.424 88.4791 80.8287 81.1958 76.8757 80.2303C73.4383 79.3899 70.4703 84.2474 66.6627 86.6673Z" fill="#2E353A"/>
<path d="M67.4297 63.4882C65.1755 64.3286 63.8336 64.0067 63.8336 64.0067C63.8336 64.0067 65.1557 62.475 65.1557 61.7121C64.971 61.9633 64.7272 62.1748 64.4416 62.3313C64.1559 62.4879 63.8355 62.5858 63.5031 62.618C64.5343 59.3459 62.2868 58.0466 63.0206 56.7711C64.4087 54.3513 69.5185 54.3274 69.0624 56.938C71.1777 57.9452 71.5677 60.3531 71.5677 60.3531C71.2145 59.8573 70.7308 59.4478 70.1597 59.1611C71.0389 61.0326 70.6026 63.6849 69.0823 65.6756C68.7925 65.6765 68.507 65.6133 68.2506 65.4916C67.9942 65.3699 67.7749 65.1934 67.6118 64.9775C67.4487 64.7616 67.3468 64.513 67.315 64.2533C67.2833 63.9936 67.3226 63.7309 67.4297 63.4882Z" fill="#2E353A"/>
<path d="M40.9373 144.778L38.9463 144.316C37.5321 143.988 36.6806 142.688 37.0445 141.413L40.1744 130.446C40.5383 129.171 41.9797 128.403 43.394 128.731L45.3849 129.193C46.7992 129.521 47.6507 130.821 47.2868 132.096L44.1569 143.063C43.793 144.338 42.3515 145.106 40.9373 144.778Z" fill="#2E353A"/>
<path d="M45.774 128.46C43.0043 126.719 41.3914 126.743 40.3205 127.447C39.2496 128.15 38.9984 132.399 37.4847 134.652C39.5339 135.511 45.774 128.46 45.774 128.46Z" fill="#2E353A"/>
<path d="M49.2973 79.1334C56.9965 78.3649 64.7634 78.319 72.4731 78.9963C75.6443 79.3014 78.5777 80.6551 80.7069 82.7961C82.836 84.937 84.0097 87.7133 84.0015 90.5888C84.0015 101.281 80.8616 116.873 78.8851 133.287C60.8257 138.753 45.5955 133.013 45.5955 133.013C45.1922 129.264 45.417 118.113 46.8118 111.557C45.7872 104.786 43.1893 97.0377 41.7152 88.0498C41.551 87.0139 41.6179 85.9588 41.9118 84.9464C42.2058 83.9341 42.721 82.9849 43.4272 82.1544C44.1334 81.3239 45.0164 80.6289 46.0244 80.1102C47.0323 79.5914 48.1451 79.2594 49.2973 79.1334Z" fill="#2E353A"/>
<path d="M56.2778 66.1885C56.5288 70.4595 55.7039 74.7264 53.865 78.669C56.2976 80.7074 60.244 83.2405 65.5058 83.1689C70.7677 83.0974 69.8951 80.6776 68.4871 79.0266C64.7192 77.3101 64.4746 74.7949 65.4001 73.2751L56.2778 66.1885Z" fill="#DA9E8E"/>
<path opacity="0.2" d="M56.2778 66.1885L65.4 73.2751C65.1184 73.7442 64.9633 74.2666 64.9472 74.7999C64.9311 75.3331 65.0545 75.8623 65.3075 76.3446C63.4326 76.4422 61.5861 75.8971 60.1382 74.8188C57.7915 73.1201 56.9454 71.0639 56.2844 68.1494C56.3108 67.5295 56.3108 66.8799 56.2778 66.1885Z" fill="black"/>
<path d="M53.3232 62.6602C54.3544 67.9767 54.6453 71.1415 58.0099 73.5613C63.0404 77.197 70.0738 73.9428 70.8208 68.4356C71.4818 63.4827 69.6904 55.6153 63.6023 54.1313C62.2556 53.8008 60.838 53.7837 59.482 54.0817C58.1261 54.3796 56.8761 54.9829 55.8491 55.835C54.8222 56.6872 54.0517 57.7603 53.61 58.9539C53.1682 60.1476 53.0695 61.4228 53.3232 62.6602Z" fill="#DA9E8E"/>
<path d="M53.4949 64.4778C55.8349 65.0738 57.1306 64.6447 57.1306 64.6447C57.1306 64.6447 55.6432 63.25 55.5176 62.493C55.732 62.7241 56 62.91 56.3026 63.0377C56.6053 63.1654 56.9353 63.2318 57.2694 63.2321C55.8548 60.0792 57.9304 58.5653 57.0446 57.3733C55.3788 55.1025 49.5353 55.9726 50.3087 58.5236C49.7472 58.8774 49.3195 59.3779 49.0831 59.9576C48.8468 60.5373 48.8131 61.1684 48.9866 61.7659C49.2603 61.3215 49.6653 60.9542 50.1567 60.705C49.4956 62.654 48.9337 64.2811 52.1001 66.7963C52.3868 66.7697 52.662 66.6804 52.9018 66.5363C53.1415 66.3921 53.3387 66.1973 53.4761 65.9689C53.6135 65.7405 53.6871 65.4853 53.6904 65.2254C53.6936 64.9656 53.6265 64.7089 53.4949 64.4778Z" fill="#2E353A"/>
<path d="M69.2739 68.1201C66.9442 67.902 64.5989 67.8521 62.2604 67.9711C62.9214 69.1631 64.1179 70.075 66.762 69.9916C69.4061 69.9082 69.2739 68.1201 69.2739 68.1201Z" fill="white"/>
<path d="M67.2378 66.7845C67.2775 68.5726 67.3172 69.0792 64.2632 69.1686C62.1148 69.2461 59.9731 70.5216 60.297 71.6659C59.3583 70.8017 58.6312 68.9004 60.3763 67.6368C62.2999 66.266 64.4813 66.117 67.2378 66.7845Z" fill="#2E353A"/>
<path d="M66.6165 66.7897C66.6892 68.5479 67.5485 68.7506 68.8177 68.983C70.0869 69.2155 70.3183 69.7876 70.1927 70.6221C71.3098 70.026 72.0171 68.3393 71.3032 67.5466C70.7552 66.9312 69.9787 66.5155 69.1171 66.3764C68.2556 66.2372 67.3673 66.384 66.6165 66.7897Z" fill="#2E353A"/>
<path d="M51.5384 66.7666C52.1336 67.894 53.1833 68.7744 54.4734 69.2282C56.1128 69.7586 56.8928 68.3043 56.4102 66.713C55.9673 65.2766 54.5924 63.274 52.9596 63.4349C51.3269 63.5958 50.765 65.3302 51.5384 66.7666Z" fill="#DA9E8E"/>
<path d="M61.4604 62.4565C61.5332 62.9155 61.8637 63.2433 62.1942 63.1956C62.5247 63.1479 62.7296 62.7426 62.6503 62.2837C62.571 61.8247 62.2471 61.5029 61.9166 61.5506C61.586 61.5983 61.3811 62.0036 61.4604 62.4565Z" fill="#2E353A"/>
<path d="M67.608 61.6576C67.6873 62.1106 68.0178 62.4384 68.3484 62.3907C68.6789 62.3431 68.8838 61.9378 68.8045 61.4848C68.7251 61.0318 68.4012 60.6981 68.0707 60.7457C67.7402 60.7934 67.5485 61.1987 67.608 61.6576Z" fill="#2E353A"/>
<path d="M65.8895 62.4932C65.8895 62.4932 67.4826 64.9487 68.9567 66.0335C68.1899 66.9096 66.6166 66.7904 66.6166 66.7904L65.8895 62.4932Z" fill="#BA4D3C"/>
<path d="M59.4643 60.5438C59.4149 60.5584 59.3616 60.5584 59.3123 60.5438C59.2391 60.5196 59.1793 60.4704 59.1459 60.4068C59.1126 60.3433 59.1082 60.2705 59.1338 60.2041C59.2847 59.7909 59.5437 59.4166 59.8889 59.1126C60.234 58.8087 60.6552 58.5841 61.1169 58.4577C61.1551 58.4488 61.1949 58.4469 61.2339 58.452C61.273 58.4571 61.3105 58.4691 61.3443 58.4874C61.3782 58.5057 61.4076 58.5299 61.431 58.5586C61.4544 58.5873 61.4712 58.6199 61.4804 58.6544C61.4986 58.7239 61.4859 58.7971 61.4452 58.8583C61.4044 58.9195 61.3388 58.964 61.2623 58.9822C60.9033 59.09 60.5774 59.2724 60.311 59.5147C60.0446 59.7569 59.8451 60.0523 59.7287 60.3769C59.7071 60.4247 59.6707 60.4659 59.6238 60.4955C59.5769 60.5251 59.5215 60.5419 59.4643 60.5438Z" fill="#2E353A"/>
<path d="M69.902 59.2208C69.8532 59.2293 69.8028 59.2267 69.7555 59.2132C69.7082 59.1996 69.6653 59.1756 69.6309 59.1433C69.3774 58.894 69.0618 58.7024 68.7102 58.5842C68.3586 58.4661 67.9809 58.4249 67.6082 58.4639C67.5699 58.4717 67.5303 58.4724 67.4917 58.4661C67.4531 58.4598 67.4164 58.4464 67.3836 58.4269C67.3509 58.4075 67.3229 58.3822 67.3013 58.3527C67.2797 58.3232 67.2649 58.2901 67.2578 58.2553C67.2422 58.1842 67.2585 58.1104 67.3031 58.0501C67.3477 57.9897 67.417 57.9478 67.4958 57.9334C67.9662 57.8771 68.4447 57.9234 68.891 58.0687C69.3374 58.2139 69.7385 58.4537 70.0606 58.7678C70.1155 58.819 70.1462 58.8874 70.1462 58.9586C70.1462 59.0298 70.1155 59.0982 70.0606 59.1493C70.0148 59.1842 69.9604 59.2087 69.902 59.2208Z" fill="#2E353A"/>
<path d="M60.7002 181.564C55.8615 157.223 53.8453 127.869 53.8453 127.869L80.485 127.506C80.485 127.506 77.4178 167.063 76.3535 183.633C75.2496 200.863 74.4762 234.014 74.4762 234.014H65.5654C65.5654 234.014 58.0164 202.866 60.7002 181.564Z" fill="#303564"/>
<path opacity="0.2" d="M65.9288 134.503C65.9288 134.503 62.4254 158.129 59.5565 175.455C57.0049 160.894 55.3853 145.595 54.5458 136.392L65.9288 134.503Z" fill="black"/>
<path d="M36.7641 180.879C41.16 156.401 40.6775 140.04 45.0733 127.977L70.5826 127.661C70.5826 127.661 58.413 166.503 52.8603 182.673C47.3076 198.843 37.2269 234.014 37.2269 234.014H29.0697C29.0697 234.014 29.4002 199.815 36.7641 180.879Z" fill="#303564"/>
<path d="M80.4849 127.506C80.7427 124.812 83.2811 105.698 83.3802 103.946C83.2547 94.4093 77.9399 82.2923 74.4563 78.8176C73.6545 78.5025 72.7543 78.456 71.9179 78.6865C71.9179 78.6865 76.7302 84.2175 78.0523 93.4199C69.2011 95.3391 59.6491 94.3795 57.1504 93.9146C56.2778 87.4955 51.8621 79.7474 50.897 78.6447C50.0915 78.6045 49.2851 78.7078 48.5239 78.9487C48.5239 78.9487 53.323 87.6028 53.8122 94.2484C54.3014 100.894 44.7494 104.118 44.7494 104.118C44.7494 104.118 45.774 109.876 45.5559 112.463C45.3377 115.049 45.0403 127.959 45.0403 127.959C45.0403 127.959 68.0773 131.356 80.4849 127.506Z" fill="#303564"/>
<path d="M74.1125 137.578L78.5877 127.452L79.024 127.607L79.4669 127.768L74.9851 137.894L75.1041 138.788L73.7688 140.666L73.3259 140.505L72.8764 140.344L73.3457 138.157L74.1125 137.578Z" fill="white"/>
<path d="M78.687 128.382C79.0764 128.519 79.51 128.512 79.8938 128.362C80.2775 128.213 80.5802 127.933 80.7362 127.583L84.861 118.255C85.0152 117.904 85.0086 117.511 84.8426 117.164C84.6766 116.816 84.3647 116.542 83.9753 116.402C83.5859 116.265 83.1522 116.272 82.7685 116.421C82.3848 116.571 82.082 116.851 81.926 117.2L77.8012 126.528C77.647 126.88 77.6537 127.272 77.8197 127.62C77.9857 127.967 78.2975 128.241 78.687 128.382Z" fill="#2E353A"/>
<path d="M80.6306 126.2C81.0668 126.599 81.1396 129.18 80.2604 130.372C74.3706 133.108 58.8429 133.507 44.3596 130.128C44.0093 128.596 44.1481 126.552 45.1264 125.914C47.1095 127.44 62.4521 129.627 72.9493 128.399C75.6452 128.129 78.2553 127.381 80.6306 126.2Z" fill="#2E353A"/>
<path opacity="0.2" d="M70.1795 115.155C70.3431 115.19 70.4716 115.217 70.5593 115.235C70.6103 115.216 70.6757 115.192 70.754 115.163C70.9624 115.085 71.2618 114.97 71.6235 114.822C72.3477 114.526 73.3168 114.099 74.3019 113.579C75.2903 113.056 76.2774 112.447 77.0479 111.789C77.8317 111.12 78.3216 110.459 78.4407 109.846C78.582 109.119 78.6278 107.96 78.6086 106.596C78.5896 105.242 78.5076 103.724 78.4064 102.298C78.3051 100.873 78.1849 99.5446 78.09 98.5722C78.0514 98.1777 78.0171 97.842 77.9899 97.5824C77.8357 97.6237 77.6509 97.6704 77.4339 97.7207C76.6576 97.9007 75.4698 98.1275 73.8029 98.3221C70.5434 98.7026 65.4508 98.9603 58.0189 98.5048C57.864 102.579 58.035 106.659 58.5306 110.712C58.5592 110.852 58.6871 111.067 59.0216 111.343C59.3522 111.616 59.8225 111.899 60.4046 112.183C61.5664 112.749 63.0921 113.282 64.6257 113.741C66.1549 114.2 67.6727 114.58 68.8097 114.846C69.3778 114.979 69.8498 115.084 70.1795 115.155Z" fill="#303564" stroke="#979797"/>
<path d="M49.0064 59.9241C54.5327 57.9871 61.8173 55.8891 68.302 56.0143C68.1303 54.3825 67.3278 52.8572 66.0347 51.7051C64.7126 50.7396 60.3101 49.9171 56.8793 50.5906C54.1625 51.1389 50.8441 52.9746 49.3634 55.317C48.7222 56.3302 49.0064 59.9241 49.0064 59.9241Z" fill="#303564"/>
<path opacity="0.3" d="M56.4629 52.4259C59.0541 50.2802 64.7324 50.7391 66.0347 51.7047C67.3278 52.8567 68.1303 54.3821 68.302 56.0139C64.1838 55.9364 59.7482 56.7529 55.6432 57.8556C55.5771 55.8768 55.4581 54.4046 56.4629 52.4259Z" fill="white"/>
<path d="M54.5461 58.1543C58.4528 57.8444 62.69 57.6716 64.5409 56.9623C66.3918 56.253 70.9265 55.967 71.8123 56.8371C72.2222 56.1636 70.1399 54.9418 65.863 55.1445C61.5861 55.3471 54.5461 58.1543 54.5461 58.1543Z" fill="#303564"/>
<path d="M56.3109 50.6622C56.377 50.9602 56.8265 51.1271 57.3025 51.0377C57.7784 50.9483 58.1023 50.6205 58.0296 50.3224C57.9569 50.0244 57.514 49.8575 57.038 49.947C56.5621 50.0364 56.2184 50.3582 56.3109 50.6622Z" fill="#303564"/>
<path d="M41.1071 83.2935C40.2477 84.0147 39.514 84.6524 38.7604 85.3557C38.0068 86.059 37.2797 86.7504 36.5525 87.4597C35.1181 88.8961 33.7101 90.3623 32.3814 91.9298C30.9867 93.5248 29.704 95.1969 28.5408 96.9363C27.9047 97.8795 27.3287 98.8546 26.8155 99.8568C26.1962 101.052 25.7326 102.308 25.4339 103.6L25.3612 103.898C25.3177 104.094 25.2977 104.294 25.3017 104.494C25.3183 105.828 25.6097 107.148 26.1611 108.386C26.5701 109.315 27.0562 110.216 27.6153 111.08C28.6042 112.595 29.7272 114.036 30.9734 115.389C32.1448 116.67 33.3869 117.898 34.695 119.066C35.9935 120.231 37.3593 121.333 38.7868 122.368C39.33 122.757 40.0061 122.964 40.6997 122.953C41.3932 122.943 42.0611 122.715 42.5894 122.31C43.1177 121.905 43.4736 121.347 43.5962 120.731C43.7189 120.116 43.6008 119.481 43.262 118.935L43.2158 118.864L40.7567 114.882C39.9502 113.559 39.157 112.248 38.4431 110.943C37.7408 109.713 37.1183 108.447 36.579 107.152C36.3484 106.623 36.1714 106.077 36.0501 105.519C35.9576 105.066 35.9708 104.69 36.0501 104.816L35.9179 105.733C36.1457 105.249 36.4131 104.781 36.7178 104.333C37.1144 103.737 37.5705 103.141 38.0795 102.485C38.5885 101.83 39.1438 101.21 39.7255 100.566C40.3072 99.9223 40.9021 99.2667 41.5235 98.623C42.7729 97.3356 44.0619 96.0423 45.3906 94.7668L47.3737 92.8596L49.3568 91.006L49.4559 90.9166C50.4821 89.9012 51.0372 88.5695 51.0066 87.196C50.9761 85.8225 50.3622 84.512 49.2917 83.5345C48.2211 82.557 46.7755 81.9872 45.2527 81.9423C43.7299 81.8975 42.2461 82.3811 41.1071 83.2935Z" fill="#DA9684"/>
<path d="M39.3421 117.319L46.0054 117.403L43.6587 124.293C43.6587 124.293 37.6301 123.56 37.5507 120.609L39.3421 117.319Z" fill="#2E353A"/>
<path d="M50.8707 121.85L49.5949 124.138C49.3499 124.58 48.9388 124.928 48.435 125.121C47.9312 125.315 47.3676 125.34 46.845 125.193L43.6588 124.293L46.0055 117.403L49.7998 119.03C50.0776 119.15 50.3261 119.318 50.5308 119.525C50.7356 119.733 50.8924 119.975 50.9921 120.237C51.0918 120.5 51.1325 120.778 51.1116 121.054C51.0908 121.331 51.0089 121.602 50.8707 121.85Z" fill="#2E353A"/>
<path d="M43.5134 118.256C42.0123 116.674 40.849 114.855 40.0827 112.892C35.5281 113.798 32.8113 117.231 33.1947 118.643C35.8388 121.063 38.2053 122.756 40.0298 123.31C42.621 122.094 43.5134 118.256 43.5134 118.256Z" fill="#2E353A"/>
<path d="M47.9488 79.3779C44.6437 80.0931 39.9834 81.762 37.9408 84.6109C35.8982 87.4599 30.3852 92.8598 28.2897 96.6325C31.4296 102.986 35.7858 102.915 39.0315 102.342C44.7626 98.8676 52.1464 94.5525 52.2522 90.8691C52.3447 87.6566 50.4211 82.9242 47.9488 79.3779Z" fill="#2E353A"/>
<path d="M43.0307 110.668C43.3403 110.656 43.6419 110.576 43.9099 110.436L44.2801 110.239C44.8485 110.169 45.3936 109.99 45.8783 109.713C46.3631 109.437 46.7761 109.069 47.0895 108.636C47.4471 108.079 47.708 107.476 47.8629 106.848C49.4692 101.388 50.1038 96.8884 49.846 92.6924C49.7823 91.5033 49.6366 90.3189 49.4097 89.1462C49.0271 87.083 48.3609 85.0709 47.4266 83.1562C46.9596 82.2017 46.4115 81.2811 45.7872 80.4026L45.6617 80.194C45.3377 79.6636 45.0006 79.2225 44.6106 79.1569C44.4691 79.134 44.3234 79.1443 44.1875 79.1867C44.0295 79.0468 43.8297 78.9515 43.6124 78.9126C43.5124 78.8993 43.4103 78.9069 43.3141 78.9348C43.2178 78.9627 43.1299 79.0102 43.0572 79.0735C42.9173 79.1934 42.8285 79.3537 42.806 79.5265C42.568 80.5576 43.0704 81.5052 43.553 82.4291C43.6455 82.6079 43.7446 82.7867 43.8306 82.9655C45.1064 85.5581 45.0072 88.5323 44.9081 91.411C44.9081 92.1024 44.8552 92.7938 44.8486 93.4792C44.8486 94.0752 44.8486 94.6354 44.8486 95.2136C44.8486 96.2626 44.8816 97.3533 44.8089 98.4142C44.723 99.6062 44.5247 100.852 44.3263 102.038C44.1611 103.262 43.8757 104.471 43.4736 105.65C43.3216 106.055 43.1365 106.46 42.958 106.842C42.5441 107.648 42.2422 108.496 42.059 109.369C42.0089 109.562 42.0109 109.763 42.065 109.954C42.1191 110.146 42.2236 110.324 42.3697 110.472C42.5546 110.61 42.7907 110.68 43.0307 110.668ZM44.0421 109.667C43.8377 109.685 43.6318 109.685 43.4274 109.667C44.3763 108.689 45.2155 107.629 45.9327 106.502C47.7042 103.576 47.9885 100.125 48.1207 97.1208C48.2397 98.677 48.2264 100.239 48.081 101.794C47.9867 103.393 47.6003 104.968 46.9374 106.454C46.3337 107.753 45.3287 108.868 44.0421 109.667ZM47.5324 93.1156C47.5324 94.5162 47.5324 95.8632 47.4596 97.097C47.334 100.035 47.0498 103.403 45.351 106.216C44.5976 107.386 43.7115 108.483 42.7068 109.488C42.7095 109.474 42.7095 109.46 42.7068 109.446C42.8797 108.623 43.1662 107.822 43.5595 107.062C43.7446 106.663 43.9363 106.246 44.095 105.823C44.5081 104.611 44.8002 103.368 44.9676 102.109C45.1725 100.917 45.3774 99.6718 45.4633 98.4321C45.536 97.3473 45.5228 96.2506 45.503 95.1838C45.503 94.5878 45.503 94.0394 45.503 93.4673C45.503 92.7878 45.5361 92.0964 45.5559 91.411C45.7088 89.3701 45.6224 87.3204 45.2981 85.2959L45.8005 86.9349C46.4351 88.9495 47.0564 91.0176 47.5324 93.1156ZM46.6532 108.135L46.5342 108.32C46.3945 108.52 46.2255 108.703 46.0318 108.862C46.253 108.63 46.4604 108.387 46.6532 108.135ZM45.265 80.7185C45.8562 81.566 46.3798 82.4503 46.8317 83.3648C47.7482 85.2333 48.4033 87.1973 48.7817 89.2117C49.0038 90.3608 49.1452 91.5213 49.2048 92.6865C49.3241 94.9301 49.2112 97.1788 48.8677 99.4036C48.8768 97.9406 48.773 96.4788 48.557 95.0288C48.4578 94.3613 48.3322 93.6997 48.1934 93.0441C48.1681 91.3786 48.0246 89.7163 47.7637 88.0674C47.3773 85.5158 46.5334 83.0378 45.265 80.7304V80.7185ZM44.6701 80.9808C45.9074 83.23 46.7312 85.6455 47.1093 88.1329C47.1886 88.6157 47.2547 89.0985 47.3076 89.5753C47.03 88.6157 46.7391 87.674 46.4549 86.7323L44.6701 80.9808ZM43.7711 79.6159C43.7138 79.8895 43.7297 80.1714 43.8174 80.4384L44.6503 83.1443C44.5841 82.9893 44.5181 82.8403 44.4387 82.6854C44.3594 82.5304 44.2536 82.3218 44.1545 82.137C43.7182 81.3026 43.2687 80.4443 43.4538 79.6099C43.4538 79.5086 43.5001 79.4788 43.5133 79.4728C43.5265 79.4669 43.6653 79.5265 43.7513 79.6278L43.7711 79.6159Z" fill="#303564"/>
<path opacity="0.4" d="M43.0307 110.668C43.3403 110.656 43.6419 110.576 43.9099 110.436L44.2801 110.239C44.8485 110.169 45.3936 109.99 45.8783 109.713C46.3631 109.437 46.7761 109.069 47.0895 108.636C47.4471 108.079 47.708 107.476 47.8629 106.848C49.4692 101.388 50.1038 96.8884 49.846 92.6924C49.7823 91.5033 49.6366 90.3189 49.4097 89.1462C49.0271 87.083 48.3609 85.0709 47.4266 83.1562C46.9596 82.2017 46.4115 81.2811 45.7872 80.4026L45.6617 80.194C45.3377 79.6636 45.0006 79.2225 44.6106 79.1569C44.4691 79.134 44.3234 79.1443 44.1875 79.1867C44.0295 79.0468 43.8297 78.9515 43.6124 78.9126C43.5124 78.8993 43.4103 78.9069 43.3141 78.9348C43.2178 78.9627 43.1299 79.0102 43.0572 79.0735C42.9173 79.1934 42.8285 79.3537 42.806 79.5265C42.568 80.5576 43.0704 81.5052 43.553 82.4291C43.6455 82.6079 43.7446 82.7867 43.8306 82.9655C45.1064 85.5581 45.0072 88.5323 44.9081 91.411C44.9081 92.1024 44.8552 92.7938 44.8486 93.4792C44.8486 94.0752 44.8486 94.6354 44.8486 95.2136C44.8486 96.2626 44.8816 97.3533 44.8089 98.4142C44.723 99.6062 44.5247 100.852 44.3263 102.038C44.1611 103.262 43.8757 104.471 43.4736 105.65C43.3216 106.055 43.1365 106.46 42.958 106.842C42.5441 107.648 42.2422 108.496 42.059 109.369C42.0089 109.562 42.0109 109.763 42.065 109.954C42.1191 110.146 42.2236 110.324 42.3697 110.472C42.5546 110.61 42.7907 110.68 43.0307 110.668ZM44.0421 109.667C43.8377 109.685 43.6318 109.685 43.4274 109.667C44.3763 108.689 45.2155 107.629 45.9327 106.502C47.7042 103.576 47.9885 100.125 48.1207 97.1208C48.2397 98.677 48.2264 100.239 48.081 101.794C47.9867 103.393 47.6003 104.968 46.9374 106.454C46.3337 107.753 45.3287 108.868 44.0421 109.667ZM47.5324 93.1156C47.5324 94.5162 47.5324 95.8632 47.4596 97.097C47.334 100.035 47.0498 103.403 45.351 106.216C44.5976 107.386 43.7115 108.483 42.7068 109.488C42.7095 109.474 42.7095 109.46 42.7068 109.446C42.8797 108.623 43.1662 107.822 43.5595 107.062C43.7446 106.663 43.9363 106.246 44.095 105.823C44.5081 104.611 44.8002 103.368 44.9676 102.109C45.1725 100.917 45.3774 99.6718 45.4633 98.4321C45.536 97.3473 45.5228 96.2506 45.503 95.1838C45.503 94.5878 45.503 94.0394 45.503 93.4673C45.503 92.7878 45.5361 92.0964 45.5559 91.411C45.7088 89.3701 45.6224 87.3204 45.2981 85.2959L45.8005 86.9349C46.4351 88.9495 47.0564 91.0176 47.5324 93.1156ZM46.6532 108.135L46.5342 108.32C46.3945 108.52 46.2255 108.703 46.0318 108.862C46.253 108.63 46.4604 108.387 46.6532 108.135ZM45.265 80.7185C45.8562 81.566 46.3798 82.4503 46.8317 83.3648C47.7482 85.2333 48.4033 87.1973 48.7817 89.2117C49.0038 90.3608 49.1452 91.5213 49.2048 92.6865C49.3241 94.9301 49.2112 97.1788 48.8677 99.4036C48.8768 97.9406 48.773 96.4788 48.557 95.0288C48.4578 94.3613 48.3322 93.6997 48.1934 93.0441C48.1681 91.3786 48.0246 89.7163 47.7637 88.0674C47.3773 85.5158 46.5334 83.0378 45.265 80.7304V80.7185ZM44.6701 80.9808C45.9074 83.23 46.7312 85.6455 47.1093 88.1329C47.1886 88.6157 47.2547 89.0985 47.3076 89.5753C47.03 88.6157 46.7391 87.674 46.4549 86.7323L44.6701 80.9808ZM43.7711 79.6159C43.7138 79.8895 43.7297 80.1714 43.8174 80.4384L44.6503 83.1443C44.5841 82.9893 44.5181 82.8403 44.4387 82.6854C44.3594 82.5304 44.2536 82.3218 44.1545 82.137C43.7182 81.3026 43.2687 80.4443 43.4538 79.6099C43.4538 79.5086 43.5001 79.4788 43.5133 79.4728C43.5265 79.4669 43.6653 79.5265 43.7513 79.6278L43.7711 79.6159Z" fill="white"/>
<mask id="path-78-outside-1_394_2436" maskUnits="userSpaceOnUse" x="58.0341" y="52.0634" width="4.89898" height="4.89898" fill="black">
<rect fill="white" x="58.0341" y="52.0634" width="4.89898" height="4.89898"/>
<path d="M61.4336 55.1664L61.4654 55.2851L59.7765 55.7376L59.7447 55.619L59.982 55.5554L59.4969 53.7449L60.8216 53.39L60.9229 53.7681L60.0287 54.0077L60.1404 54.4244L60.9904 54.1966L61.0917 54.5747L60.2417 54.8025L60.4125 55.44L61.4336 55.1664ZM62.3397 54.9236L62.3715 55.0423L61.4663 55.2848L61.4345 55.1662L61.6718 55.1026L61.1867 53.2921L61.6173 53.1768L62.1024 54.9872L62.3397 54.9236Z"/>
</mask>
<path d="M61.4336 55.1664L61.4654 55.2851L59.7765 55.7376L59.7447 55.619L59.982 55.5554L59.4969 53.7449L60.8216 53.39L60.9229 53.7681L60.0287 54.0077L60.1404 54.4244L60.9904 54.1966L61.0917 54.5747L60.2417 54.8025L60.4125 55.44L61.4336 55.1664ZM62.3397 54.9236L62.3715 55.0423L61.4663 55.2848L61.4345 55.1662L61.6718 55.1026L61.1867 53.2921L61.6173 53.1768L62.1024 54.9872L62.3397 54.9236Z" fill="#F5F5F5"/>
<path d="M61.4336 55.1664L61.4681 55.1571L61.4589 55.1226L61.4244 55.1319L61.4336 55.1664ZM61.4654 55.2851L61.4747 55.3196L61.5092 55.3103L61.4999 55.2758L61.4654 55.2851ZM59.7765 55.7376L59.742 55.7469L59.7512 55.7814L59.7857 55.7721L59.7765 55.7376ZM59.7447 55.619L59.7354 55.5845L59.7009 55.5937L59.7102 55.6282L59.7447 55.619ZM59.982 55.5554L59.9912 55.5899L60.0257 55.5806L60.0165 55.5461L59.982 55.5554ZM59.4969 53.7449L59.4877 53.7104L59.4532 53.7197L59.4624 53.7542L59.4969 53.7449ZM60.8216 53.39L60.8561 53.3807L60.8469 53.3462L60.8124 53.3555L60.8216 53.39ZM60.9229 53.7681L60.9322 53.8026L60.9666 53.7933L60.9574 53.7588L60.9229 53.7681ZM60.0287 54.0077L60.0195 53.9732L59.985 53.9824L59.9942 54.0169L60.0287 54.0077ZM60.1404 54.4244L60.1059 54.4336L60.1151 54.4681L60.1496 54.4589L60.1404 54.4244ZM60.9904 54.1966L61.0249 54.1874L61.0157 54.1529L60.9812 54.1621L60.9904 54.1966ZM61.0917 54.5747L61.101 54.6092L61.1355 54.6L61.1262 54.5655L61.0917 54.5747ZM60.2417 54.8025L60.2325 54.768L60.198 54.7772L60.2072 54.8117L60.2417 54.8025ZM60.4125 55.44L60.378 55.4492L60.3873 55.4837L60.4218 55.4745L60.4125 55.44ZM61.3992 55.1756L61.431 55.2943L61.4999 55.2758L61.4681 55.1571L61.3992 55.1756ZM61.4562 55.2506L59.7672 55.7031L59.7857 55.7721L61.4747 55.3196L61.4562 55.2506ZM59.811 55.7284L59.7792 55.6097L59.7102 55.6282L59.742 55.7469L59.811 55.7284ZM59.7539 55.6534L59.9912 55.5899L59.9728 55.5209L59.7354 55.5845L59.7539 55.6534ZM60.0165 55.5461L59.5314 53.7357L59.4624 53.7542L59.9475 55.5646L60.0165 55.5461ZM59.5061 53.7794L60.8308 53.4245L60.8124 53.3555L59.4877 53.7104L59.5061 53.7794ZM60.7871 53.3992L60.8884 53.7773L60.9574 53.7588L60.8561 53.3807L60.7871 53.3992ZM60.9137 53.7336L60.0195 53.9732L60.038 54.0422L60.9322 53.8026L60.9137 53.7336ZM59.9942 54.0169L60.1059 54.4336L60.1749 54.4151L60.0632 53.9984L59.9942 54.0169ZM60.1496 54.4589L60.9997 54.2311L60.9812 54.1621L60.1312 54.3899L60.1496 54.4589ZM60.9559 54.2059L61.0572 54.584L61.1262 54.5655L61.0249 54.1874L60.9559 54.2059ZM61.0825 54.5402L60.2325 54.768L60.251 54.837L61.101 54.6092L61.0825 54.5402ZM60.2072 54.8117L60.378 55.4492L60.447 55.4308L60.2762 54.7932L60.2072 54.8117ZM60.4218 55.4745L61.4429 55.2009L61.4244 55.1319L60.4033 55.4055L60.4218 55.4745ZM62.3397 54.9236L62.3742 54.9144L62.365 54.8799L62.3305 54.8891L62.3397 54.9236ZM62.3715 55.0423L62.3807 55.0768L62.4152 55.0675L62.406 55.033L62.3715 55.0423ZM61.4663 55.2848L61.4318 55.2941L61.441 55.3286L61.4755 55.3193L61.4663 55.2848ZM61.4345 55.1662L61.4252 55.1317L61.3907 55.1409L61.4 55.1754L61.4345 55.1662ZM61.6718 55.1026L61.6811 55.1371L61.7156 55.1278L61.7063 55.0933L61.6718 55.1026ZM61.1867 53.2921L61.1775 53.2576L61.143 53.2669L61.1522 53.3014L61.1867 53.2921ZM61.6173 53.1768L61.6518 53.1675L61.6425 53.133L61.608 53.1423L61.6173 53.1768ZM62.1024 54.9872L62.0679 54.9965L62.0771 55.0309L62.1116 55.0217L62.1024 54.9872ZM62.3052 54.9329L62.337 55.0515L62.406 55.033L62.3742 54.9144L62.3052 54.9329ZM62.3623 55.0078L61.457 55.2503L61.4755 55.3193L62.3807 55.0768L62.3623 55.0078ZM61.5008 55.2756L61.469 55.1569L61.4 55.1754L61.4318 55.2941L61.5008 55.2756ZM61.4437 55.2007L61.6811 55.1371L61.6626 55.0681L61.4252 55.1317L61.4437 55.2007ZM61.7063 55.0933L61.2212 53.2829L61.1522 53.3014L61.6373 55.1118L61.7063 55.0933ZM61.196 53.3266L61.6265 53.2113L61.608 53.1423L61.1775 53.2576L61.196 53.3266ZM61.5828 53.186L62.0679 54.9965L62.1369 54.978L61.6518 53.1675L61.5828 53.186ZM62.1116 55.0217L62.3489 54.9581L62.3305 54.8891L62.0931 54.9527L62.1116 55.0217Z" fill="#2E353A" mask="url(#path-78-outside-1_394_2436)"/>
<mask id="path-80-outside-2_394_2436" maskUnits="userSpaceOnUse" x="62.3808" y="50.8983" width="4.89898" height="4.89898" fill="black">
<rect fill="white" x="62.3808" y="50.8983" width="4.89898" height="4.89898"/>
<path d="M64.3287 54.3903L63.8436 52.5799L64.5749 52.3839C64.8748 52.3036 65.1018 52.297 65.2559 52.3642C65.4118 52.4308 65.5198 52.5764 65.5799 52.8009C65.6628 53.11 65.5939 53.3424 65.3734 53.4981L65.9294 53.9614L66.1888 53.8919L66.2206 54.0106L65.5168 54.1991L64.9242 53.6983L64.6261 53.7782L64.791 54.3936L64.0928 54.5807L64.061 54.462L64.3287 54.3903ZM64.8409 53.3213C64.9881 53.2819 65.0819 53.2311 65.1225 53.169C65.163 53.1068 65.1695 53.0242 65.1419 52.9212C65.1138 52.8163 65.0669 52.752 65.0014 52.7281C64.9359 52.7043 64.8341 52.7109 64.6961 52.7478L64.3732 52.8343L64.5263 53.4056L64.8409 53.3213Z"/>
</mask>
<path d="M64.3287 54.3903L63.8436 52.5799L64.5749 52.3839C64.8748 52.3036 65.1018 52.297 65.2559 52.3642C65.4118 52.4308 65.5198 52.5764 65.5799 52.8009C65.6628 53.11 65.5939 53.3424 65.3734 53.4981L65.9294 53.9614L66.1888 53.8919L66.2206 54.0106L65.5168 54.1991L64.9242 53.6983L64.6261 53.7782L64.791 54.3936L64.0928 54.5807L64.061 54.462L64.3287 54.3903ZM64.8409 53.3213C64.9881 53.2819 65.0819 53.2311 65.1225 53.169C65.163 53.1068 65.1695 53.0242 65.1419 52.9212C65.1138 52.8163 65.0669 52.752 65.0014 52.7281C64.9359 52.7043 64.8341 52.7109 64.6961 52.7478L64.3732 52.8343L64.5263 53.4056L64.8409 53.3213Z" fill="#F5F5F5"/>
<path d="M64.3287 54.3903L64.3379 54.4248L64.3724 54.4156L64.3632 54.3811L64.3287 54.3903ZM63.8436 52.5799L63.8343 52.5454L63.7998 52.5546L63.8091 52.5891L63.8436 52.5799ZM65.2559 52.3642L65.2416 52.3969L65.2418 52.397L65.2559 52.3642ZM65.3734 53.4981L65.3528 53.4689L65.3148 53.4958L65.3505 53.5255L65.3734 53.4981ZM65.9294 53.9614L65.9065 53.9889L65.9207 54.0007L65.9386 53.9959L65.9294 53.9614ZM66.1888 53.8919L66.2233 53.8827L66.214 53.8482L66.1795 53.8574L66.1888 53.8919ZM66.2206 54.0106L66.2298 54.0451L66.2643 54.0358L66.2551 54.0013L66.2206 54.0106ZM65.5168 54.1991L65.4938 54.2264L65.508 54.2385L65.5261 54.2336L65.5168 54.1991ZM64.9242 53.6983L64.9472 53.6711L64.9329 53.659L64.9149 53.6638L64.9242 53.6983ZM64.6261 53.7782L64.6169 53.7437L64.5824 53.7529L64.5916 53.7874L64.6261 53.7782ZM64.791 54.3936L64.8002 54.4281L64.8347 54.4189L64.8255 54.3844L64.791 54.3936ZM64.0928 54.5807L64.0583 54.59L64.0675 54.6245L64.102 54.6152L64.0928 54.5807ZM64.061 54.462L64.0517 54.4275L64.0172 54.4368L64.0265 54.4713L64.061 54.462ZM65.1225 53.169L65.1524 53.1885L65.1524 53.1885L65.1225 53.169ZM65.0014 52.7281L65.0136 52.6946L65.0136 52.6946L65.0014 52.7281ZM64.3732 52.8343L64.364 52.7998L64.3295 52.8091L64.3387 52.8436L64.3732 52.8343ZM64.5263 53.4056L64.4918 53.4149L64.501 53.4494L64.5355 53.4401L64.5263 53.4056ZM64.3632 54.3811L63.8781 52.5707L63.8091 52.5891L64.2942 54.3996L64.3632 54.3811ZM63.8528 52.6144L64.5842 52.4184L64.5657 52.3494L63.8343 52.5454L63.8528 52.6144ZM64.5842 52.4184C64.882 52.3386 65.099 52.3347 65.2416 52.3969L65.2701 52.3314C65.1046 52.2592 64.8676 52.2685 64.5657 52.3494L64.5842 52.4184ZM65.2418 52.397C65.3843 52.4579 65.487 52.5921 65.5454 52.8101L65.6144 52.7916C65.5526 52.5608 65.4393 52.4038 65.2699 52.3313L65.2418 52.397ZM65.5454 52.8101C65.5857 52.9603 65.5882 53.0887 65.5562 53.1969C65.5243 53.3045 65.4573 53.3951 65.3528 53.4689L65.394 53.5273C65.51 53.4453 65.5877 53.3419 65.6247 53.2172C65.6615 53.0929 65.657 52.9506 65.6144 52.7916L65.5454 52.8101ZM65.3505 53.5255L65.9065 53.9889L65.9522 53.934L65.3962 53.4707L65.3505 53.5255ZM65.9386 53.9959L66.198 53.9264L66.1795 53.8574L65.9201 53.9269L65.9386 53.9959ZM66.1543 53.9011L66.1861 54.0198L66.2551 54.0013L66.2233 53.8827L66.1543 53.9011ZM66.2113 53.9761L65.5076 54.1646L65.5261 54.2336L66.2298 54.0451L66.2113 53.9761ZM65.5399 54.1719L64.9472 53.6711L64.9011 53.7256L65.4938 54.2264L65.5399 54.1719ZM64.9149 53.6638L64.6169 53.7437L64.6353 53.8127L64.9334 53.7328L64.9149 53.6638ZM64.5916 53.7874L64.7565 54.4029L64.8255 54.3844L64.6606 53.769L64.5916 53.7874ZM64.7818 54.3591L64.0835 54.5462L64.102 54.6152L64.8002 54.4281L64.7818 54.3591ZM64.1273 54.5715L64.0955 54.4528L64.0265 54.4713L64.0583 54.59L64.1273 54.5715ZM64.0702 54.4965L64.3379 54.4248L64.3194 54.3558L64.0517 54.4275L64.0702 54.4965ZM64.8501 53.3558C64.9983 53.3161 65.104 53.2626 65.1524 53.1885L65.0926 53.1494C65.0599 53.1996 64.9779 53.2476 64.8316 53.2868L64.8501 53.3558ZM65.1524 53.1885C65.2005 53.1147 65.2054 53.0204 65.1764 52.912L65.1074 52.9305C65.1335 53.0281 65.1255 53.099 65.0926 53.1494L65.1524 53.1885ZM65.1764 52.912C65.147 52.8023 65.0952 52.7242 65.0136 52.6946L64.9892 52.7617C65.0387 52.7797 65.0806 52.8304 65.1074 52.9305L65.1764 52.912ZM65.0136 52.6946C64.937 52.6667 64.8258 52.6761 64.6868 52.7133L64.7053 52.7823C64.8423 52.7456 64.9347 52.7419 64.9892 52.7617L65.0136 52.6946ZM64.6868 52.7133L64.364 52.7998L64.3824 52.8688L64.7053 52.7823L64.6868 52.7133ZM64.3387 52.8436L64.4918 53.4149L64.5608 53.3964L64.4077 52.8251L64.3387 52.8436ZM64.5355 53.4401L64.8501 53.3558L64.8316 53.2868L64.517 53.3711L64.5355 53.4401Z" fill="#2E353A" mask="url(#path-80-outside-2_394_2436)"/>
<path d="M63.7675 53.0285C63.7917 52.9865 63.8052 52.9391 63.8068 52.8906C63.8085 52.8422 63.7982 52.794 63.7768 52.7504L63.6456 52.9778C63.6381 52.9907 63.6258 53.0001 63.6115 53.0039C63.5971 53.0078 63.5818 53.0058 63.5689 52.9984L63.3799 52.8892C63.3735 52.8856 63.3679 52.8806 63.3634 52.8748C63.3589 52.8689 63.3556 52.8622 63.3537 52.8551C63.3518 52.848 63.3513 52.8405 63.3522 52.8332C63.3532 52.8259 63.3556 52.8188 63.3593 52.8124L63.4905 52.5852C63.4376 52.5889 63.3867 52.6066 63.3431 52.6367C63.2995 52.6667 63.2647 52.7079 63.2424 52.7559C63.2201 52.804 63.2111 52.8571 63.2163 52.9099C63.2216 52.9626 63.2409 53.0129 63.2722 53.0556L62.9307 53.6317L62.8741 53.5989L62.927 53.5072C62.9297 53.5024 62.9304 53.4968 62.929 53.4915C62.9276 53.4862 62.9242 53.4817 62.9195 53.4789L62.8479 53.4376C62.8432 53.4349 62.8376 53.4342 62.8323 53.4356C62.827 53.437 62.8225 53.4404 62.8198 53.4452L62.7991 53.4809L62.7217 53.4363L62.7389 53.4065C62.7425 53.4002 62.7435 53.3926 62.7416 53.3856C62.7397 53.3785 62.7351 53.3725 62.7288 53.3689L62.0886 52.9992C62.0733 52.9904 62.0565 52.9847 62.039 52.9824C62.0216 52.9801 62.0038 52.9812 61.9868 52.9858C61.9697 52.9904 61.9538 52.9982 61.9398 53.009C61.9258 53.0197 61.9141 53.0331 61.9053 53.0484L61.8675 53.1138C61.8587 53.129 61.853 53.1459 61.8507 53.1633C61.8484 53.1808 61.8495 53.1985 61.8541 53.2156C61.8586 53.2326 61.8665 53.2485 61.8772 53.2625C61.888 53.2765 61.9013 53.2882 61.9166 53.297L62.5568 53.6667C62.5632 53.6703 62.5707 53.6713 62.5777 53.6694C62.5848 53.6675 62.5908 53.6629 62.5945 53.6566L62.6117 53.6268L62.6891 53.6716L62.6685 53.7072C62.6671 53.7096 62.6662 53.7122 62.6659 53.7149C62.6655 53.7175 62.6657 53.7203 62.6664 53.7229C62.6671 53.7255 62.6683 53.728 62.67 53.7301C62.6716 53.7323 62.6737 53.7341 62.6761 53.7354L62.7475 53.7768C62.7523 53.7795 62.7579 53.7802 62.7631 53.7788C62.7684 53.7774 62.7729 53.7739 62.7757 53.7692L62.8287 53.6775L62.8843 53.7096L62.6008 54.1863C62.5481 54.1805 62.4949 54.189 62.4466 54.2108C62.3983 54.2326 62.3568 54.2669 62.3263 54.3103C62.2958 54.3536 62.2776 54.4043 62.2734 54.4571C62.2692 54.5099 62.2792 54.5629 62.3024 54.6105L62.4337 54.3833C62.4374 54.3769 62.4423 54.3713 62.4482 54.3668C62.454 54.3623 62.4607 54.359 62.4679 54.357C62.475 54.3551 62.4824 54.3547 62.4898 54.3556C62.4971 54.3566 62.5042 54.359 62.5105 54.3627L62.6998 54.4707C62.7062 54.4744 62.7118 54.4793 62.7163 54.4852C62.7208 54.491 62.7241 54.4977 62.726 54.5048C62.7279 54.512 62.7284 54.5194 62.7274 54.5267C62.7264 54.5341 62.724 54.5411 62.7203 54.5475L62.5892 54.7747C62.642 54.7711 62.6929 54.7533 62.7365 54.7233C62.7802 54.6932 62.815 54.6521 62.8373 54.604C62.8596 54.556 62.8686 54.5028 62.8633 54.4501C62.8581 54.3974 62.8389 54.347 62.8075 54.3043L63.0911 53.8277L63.7544 54.2101C63.752 54.2315 63.756 54.2531 63.7657 54.2723C63.7754 54.2915 63.7905 54.3074 63.8092 54.3182L63.9693 54.4106L64.0801 54.2185L63.92 54.1261C63.9014 54.1154 63.88 54.1103 63.8586 54.1115C63.8371 54.1126 63.8164 54.12 63.799 54.1327L63.1367 53.7503L63.4788 53.1746C63.5359 53.1809 63.5936 53.1704 63.6449 53.1444C63.6961 53.1185 63.7387 53.0782 63.7675 53.0285Z" fill="#2E353A" stroke="#2E353A" stroke-width="0.0178571" stroke-linecap="round" stroke-linejoin="round"/>
<path d="M62.7585 54.249L63.4295 53.1194C63.4822 53.1252 63.5355 53.1167 63.5838 53.0949C63.6321 53.0731 63.6736 53.0387 63.7041 52.9953C63.7346 52.9519 63.7528 52.9011 63.757 52.8483C63.7611 52.7954 63.751 52.7424 63.7276 52.6948L63.5964 52.922C63.5927 52.9284 63.5878 52.934 63.582 52.9385C63.5761 52.943 63.5694 52.9463 63.5623 52.9482C63.5552 52.9502 63.5477 52.9506 63.5404 52.9497C63.5331 52.9487 63.526 52.9463 63.5196 52.9426L63.3306 52.8335C63.3242 52.8298 63.3186 52.8249 63.3141 52.8191C63.3096 52.8132 63.3063 52.8065 63.3044 52.7994C63.3025 52.7923 63.302 52.7849 63.303 52.7775C63.304 52.7702 63.3064 52.7632 63.3101 52.7568L63.4412 52.5295C63.3884 52.5331 63.3374 52.5509 63.2938 52.581C63.2502 52.6111 63.2154 52.6523 63.1931 52.7004C63.1709 52.7485 63.1619 52.8017 63.1672 52.8544C63.1725 52.9071 63.1919 52.9575 63.2233 53.0002L62.5524 54.1298C62.4997 54.124 62.4465 54.1324 62.3982 54.1543C62.3499 54.1761 62.3084 54.2104 62.2779 54.2538C62.2474 54.2971 62.2292 54.3478 62.225 54.4006C62.2208 54.4534 62.2309 54.5064 62.2541 54.554L62.3853 54.3268C62.389 54.3204 62.3939 54.3148 62.3998 54.3103C62.4056 54.3058 62.4123 54.3025 62.4194 54.3006C62.4266 54.2986 62.434 54.2982 62.4413 54.2991C62.4487 54.3001 62.4557 54.3025 62.4621 54.3062L62.6511 54.4153C62.6575 54.419 62.6631 54.4239 62.6676 54.4297C62.6721 54.4356 62.6754 54.4423 62.6773 54.4494C62.6792 54.4565 62.6797 54.4639 62.6787 54.4713C62.6778 54.4786 62.6754 54.4856 62.6717 54.492L62.54 54.7191C62.5929 54.7154 62.6438 54.6976 62.6874 54.6676C62.7311 54.6376 62.7658 54.5964 62.7882 54.5483C62.8105 54.5003 62.8195 54.4471 62.8142 54.3944C62.809 54.3417 62.7897 54.2914 62.7584 54.2486L62.7585 54.249Z" fill="white" stroke="#2E353A" stroke-width="0.0178571" stroke-miterlimit="10"/>
<path d="M62.6637 54.1743C62.6549 54.1692 62.6484 54.1608 62.6458 54.151C62.6432 54.1411 62.6445 54.1307 62.6496 54.1218L63.2535 53.1084C63.2586 53.0996 63.267 53.0932 63.2768 53.0905C63.2867 53.0879 63.2972 53.0893 63.306 53.0944C63.3149 53.0995 63.3213 53.1079 63.3239 53.1177C63.3266 53.1276 63.3252 53.1381 63.3201 53.1469L62.7163 54.1602C62.7111 54.169 62.7027 54.1755 62.6929 54.1781C62.683 54.1807 62.6725 54.1794 62.6637 54.1743Z" fill="white" stroke="#2E353A" stroke-width="0.0178571" stroke-miterlimit="10"/>
<path d="M62.7411 53.4949L62.6964 53.5723L63.8134 54.2171L63.8581 54.1397L62.7411 53.4949Z" fill="white" stroke="#2E353A" stroke-width="0.0178571" stroke-miterlimit="10"/>
<path d="M64.0309 54.1627L63.92 54.3547L63.76 54.2624C63.7345 54.2477 63.7159 54.2235 63.7083 54.1951C63.7007 54.1666 63.7046 54.1363 63.7194 54.1109C63.7266 54.0982 63.7363 54.0872 63.7479 54.0783C63.7594 54.0695 63.7726 54.063 63.7867 54.0592C63.8007 54.0554 63.8154 54.0545 63.8299 54.0564C63.8443 54.0583 63.8582 54.063 63.8708 54.0703L64.0309 54.1627Z" fill="white" stroke="#2E353A" stroke-width="0.0178571" stroke-miterlimit="10"/>
<path d="M62.6131 53.3455L62.5031 53.5361L62.6579 53.6255L62.7679 53.4349L62.6131 53.3455Z" fill="white" stroke="#2E353A" stroke-width="0.0178571" stroke-miterlimit="10"/>
<path d="M61.8184 53.0567L61.8562 52.9912C61.865 52.976 61.8767 52.9626 61.8907 52.9519C61.9047 52.9412 61.9206 52.9333 61.9376 52.9287C61.9546 52.9242 61.9724 52.923 61.9898 52.9253C62.0073 52.9276 62.0241 52.9333 62.0394 52.9421L62.6796 53.3118C62.6859 53.3154 62.6905 53.3214 62.6924 53.3285C62.6943 53.3355 62.6933 53.343 62.6897 53.3493L62.5452 53.5995C62.5416 53.6058 62.5356 53.6104 62.5286 53.6123C62.5215 53.6142 62.514 53.6132 62.5077 53.6095L61.8675 53.2399C61.8367 53.2221 61.8142 53.1928 61.805 53.1585C61.7958 53.1241 61.8006 53.0875 61.8184 53.0567Z" fill="white" stroke="#2E353A" stroke-width="0.0178571" stroke-miterlimit="10"/>
<path d="M62.7706 53.3881L62.6193 53.6501C62.6136 53.66 62.617 53.6726 62.6268 53.6783L62.6984 53.7196C62.7083 53.7253 62.7209 53.7219 62.7266 53.7121L62.8779 53.45C62.8836 53.4401 62.8802 53.4275 62.8703 53.4218L62.7988 53.3805C62.7889 53.3748 62.7763 53.3782 62.7706 53.3881Z" fill="white" stroke="#2E353A" stroke-width="0.0178571" stroke-miterlimit="10"/>
<path d="M62.5533 53.5174L62.523 53.5701L61.8943 53.2071C61.8873 53.2031 61.8822 53.1964 61.8801 53.1886C61.878 53.1808 61.8791 53.1725 61.8831 53.1655C61.8851 53.1621 61.8878 53.159 61.8909 53.1566C61.8941 53.1541 61.8977 53.1523 61.9016 53.1513C61.9055 53.1503 61.9095 53.15 61.9135 53.1505C61.9174 53.1511 61.9213 53.1524 61.9247 53.1544L62.5533 53.5174Z" fill="white" stroke="#2E353A" stroke-width="0.0178571" stroke-miterlimit="10"/>
<path d="M62.605 53.4275L62.5744 53.4803L61.9457 53.1173C61.9387 53.1133 61.9336 53.1066 61.9315 53.0988C61.9294 53.091 61.9305 53.0827 61.9345 53.0757C61.9365 53.0722 61.9392 53.0692 61.9423 53.0667C61.9455 53.0643 61.9491 53.0625 61.953 53.0615C61.9569 53.0604 61.9609 53.0602 61.9649 53.0607C61.9688 53.0612 61.9727 53.0625 61.9761 53.0645L62.605 53.4275Z" fill="white" stroke="#2E353A" stroke-width="0.0178571" stroke-miterlimit="10"/>
<path d="M62.6568 53.3377L62.6262 53.3901L61.9975 53.0275C61.9906 53.0234 61.9854 53.0168 61.9834 53.009C61.9813 53.0012 61.9824 52.9928 61.9864 52.9858C61.9884 52.9824 61.991 52.9793 61.9942 52.9769C61.9974 52.9744 62.001 52.9726 62.0049 52.9716C62.0087 52.9706 62.0128 52.9703 62.0167 52.9708C62.0207 52.9714 62.0245 52.9727 62.028 52.9747L62.6568 53.3377Z" fill="white" stroke="#2E353A" stroke-width="0.0178571" stroke-miterlimit="10"/>
<mask id="path-93-outside-3_394_2436" maskUnits="userSpaceOnUse" x="59" y="101" width="9" height="7" fill="black">
<rect fill="white" x="59" y="101" width="9" height="7"/>
<path d="M64.7863 106.664V107H60V106.664H60.6726V101.533H64.4265V102.605H61.8926V103.786H64.3014V104.857H61.8926V106.664H64.7863ZM67.3538 106.664V107H64.7886V106.664H65.4612V101.533H66.6812V106.664H67.3538Z"/>
</mask>
<path d="M64.7863 106.664V107H60V106.664H60.6726V101.533H64.4265V102.605H61.8926V103.786H64.3014V104.857H61.8926V106.664H64.7863ZM67.3538 106.664V107H64.7886V106.664H65.4612V101.533H66.6812V106.664H67.3538Z" fill="#F5F5F5"/>
<path d="M64.7863 106.664H64.884V106.566H64.7863V106.664ZM64.7863 107V107.098H64.884V107H64.7863ZM60 107H59.9022V107.098H60V107ZM60 106.664V106.566H59.9022V106.664H60ZM60.6726 106.664V106.761H60.7703V106.664H60.6726ZM60.6726 101.533V101.436H60.5748V101.533H60.6726ZM64.4265 101.533H64.5243V101.436H64.4265V101.533ZM64.4265 102.605V102.703H64.5243V102.605H64.4265ZM61.8926 102.605V102.507H61.7948V102.605H61.8926ZM61.8926 103.786H61.7948V103.883H61.8926V103.786ZM64.3014 103.786H64.3991V103.688H64.3014V103.786ZM64.3014 104.857V104.955H64.3991V104.857H64.3014ZM61.8926 104.857V104.759H61.7948V104.857H61.8926ZM61.8926 106.664H61.7948V106.761H61.8926V106.664ZM64.6885 106.664V107H64.884V106.664H64.6885ZM64.7863 106.902H60V107.098H64.7863V106.902ZM60.0978 107V106.664H59.9022V107H60.0978ZM60 106.761H60.6726V106.566H60V106.761ZM60.7703 106.664V101.533H60.5748V106.664H60.7703ZM60.6726 101.631H64.4265V101.436H60.6726V101.631ZM64.3287 101.533V102.605H64.5243V101.533H64.3287ZM64.4265 102.507H61.8926V102.703H64.4265V102.507ZM61.7948 102.605V103.786H61.9904V102.605H61.7948ZM61.8926 103.883H64.3014V103.688H61.8926V103.883ZM64.2036 103.786V104.857H64.3991V103.786H64.2036ZM64.3014 104.759H61.8926V104.955H64.3014V104.759ZM61.7948 104.857V106.664H61.9904V104.857H61.7948ZM61.8926 106.761H64.7863V106.566H61.8926V106.761ZM67.3538 106.664H67.4516V106.566H67.3538V106.664ZM67.3538 107V107.098H67.4516V107H67.3538ZM64.7886 107H64.6909V107.098H64.7886V107ZM64.7886 106.664V106.566H64.6909V106.664H64.7886ZM65.4612 106.664V106.761H65.559V106.664H65.4612ZM65.4612 101.533V101.436H65.3635V101.533H65.4612ZM66.6812 101.533H66.779V101.436H66.6812V101.533ZM66.6812 106.664H66.5835V106.761H66.6812V106.664ZM67.2561 106.664V107H67.4516V106.664H67.2561ZM67.3538 106.902H64.7886V107.098H67.3538V106.902ZM64.8864 107V106.664H64.6909V107H64.8864ZM64.7886 106.761H65.4612V106.566H64.7886V106.761ZM65.559 106.664V101.533H65.3635V106.664H65.559ZM65.4612 101.631H66.6812V101.436H65.4612V101.631ZM66.5835 101.533V106.664H66.779V101.533H66.5835ZM66.6812 106.761H67.3538V106.566H66.6812V106.761Z" fill="#2E353A" mask="url(#path-93-outside-3_394_2436)"/>
<mask id="path-95-outside-4_394_2436" maskUnits="userSpaceOnUse" x="71.3176" y="101" width="8" height="7" fill="black">
<rect fill="white" x="71.3176" y="101" width="8" height="7"/>
<path d="M72.9902 106.664V101.533H75.0627C75.9125 101.533 76.5173 101.677 76.8771 101.963C77.242 102.25 77.4245 102.712 77.4245 103.348C77.4245 104.224 77.0778 104.789 76.3844 105.045L77.5262 106.664H78.2613V107H76.2671L75.0549 105.256H74.2102V107H72.2316V106.664H72.9902ZM75.1018 104.2C75.5189 104.2 75.803 104.132 75.9542 103.997C76.1054 103.861 76.181 103.648 76.181 103.356C76.181 103.058 76.1028 102.855 75.9464 102.746C75.79 102.636 75.5163 102.581 75.1253 102.581H74.2102V104.2H75.1018Z"/>
</mask>
<path d="M72.9902 106.664V101.533H75.0627C75.9125 101.533 76.5173 101.677 76.8771 101.963C77.242 102.25 77.4245 102.712 77.4245 103.348C77.4245 104.224 77.0778 104.789 76.3844 105.045L77.5262 106.664H78.2613V107H76.2671L75.0549 105.256H74.2102V107H72.2316V106.664H72.9902ZM75.1018 104.2C75.5189 104.2 75.803 104.132 75.9542 103.997C76.1054 103.861 76.181 103.648 76.181 103.356C76.181 103.058 76.1028 102.855 75.9464 102.746C75.79 102.636 75.5163 102.581 75.1253 102.581H74.2102V104.2H75.1018Z" fill="#F5F5F5"/>
<path d="M72.9902 106.664V106.761H73.088V106.664H72.9902ZM72.9902 101.533V101.436H72.8924V101.533H72.9902ZM76.8771 101.963L76.8161 102.04L76.8167 102.04L76.8771 101.963ZM76.3844 105.045L76.3506 104.953L76.2311 104.997L76.3045 105.101L76.3844 105.045ZM77.5262 106.664L77.4463 106.72L77.4755 106.761H77.5262V106.664ZM78.2613 106.664H78.3591V106.566H78.2613V106.664ZM78.2613 107V107.098H78.3591V107H78.2613ZM76.2671 107L76.1868 107.056L76.216 107.098H76.2671V107ZM75.0549 105.256L75.1351 105.2L75.106 105.158H75.0549V105.256ZM74.2102 105.256V105.158H74.1125V105.256H74.2102ZM74.2102 107V107.098H74.308V107H74.2102ZM72.2316 107H72.1338V107.098H72.2316V107ZM72.2316 106.664V106.566H72.1338V106.664H72.2316ZM75.9542 103.997L76.0195 104.07L75.9542 103.997ZM75.9464 102.746L76.0025 102.665H76.0025L75.9464 102.746ZM74.2102 102.581V102.484H74.1125V102.581H74.2102ZM74.2102 104.2H74.1125V104.298H74.2102V104.2ZM73.088 106.664V101.533H72.8924V106.664H73.088ZM72.9902 101.631H75.0627V101.436H72.9902V101.631ZM75.0627 101.631C75.9068 101.631 76.4832 101.775 76.8161 102.04L76.938 101.887C76.5514 101.579 75.9183 101.436 75.0627 101.436V101.631ZM76.8167 102.04C77.1501 102.302 77.3268 102.73 77.3268 103.348H77.5223C77.5223 102.693 77.334 102.198 76.9375 101.887L76.8167 102.04ZM77.3268 103.348C77.3268 103.773 77.2425 104.115 77.0811 104.378C76.9206 104.64 76.6792 104.832 76.3506 104.953L76.4182 105.137C76.783 105.002 77.0617 104.784 77.2478 104.48C77.4332 104.178 77.5223 103.798 77.5223 103.348H77.3268ZM76.3045 105.101L77.4463 106.72L77.6061 106.607L76.4643 104.988L76.3045 105.101ZM77.5262 106.761H78.2613V106.566H77.5262V106.761ZM78.1636 106.664V107H78.3591V106.664H78.1636ZM78.2613 106.902H76.2671V107.098H78.2613V106.902ZM76.3473 106.944L75.1351 105.2L74.9746 105.312L76.1868 107.056L76.3473 106.944ZM75.0549 105.158H74.2102V105.354H75.0549V105.158ZM74.1125 105.256V107H74.308V105.256H74.1125ZM74.2102 106.902H72.2316V107.098H74.2102V106.902ZM72.3294 107V106.664H72.1338V107H72.3294ZM72.2316 106.761H72.9902V106.566H72.2316V106.761ZM75.1018 104.298C75.5216 104.298 75.8391 104.231 76.0195 104.07L75.889 103.924C75.767 104.033 75.5162 104.102 75.1018 104.102V104.298ZM76.0195 104.07C76.1991 103.909 76.2788 103.663 76.2788 103.356H76.0833C76.0833 103.632 76.0118 103.814 75.889 103.924L76.0195 104.07ZM76.2788 103.356C76.2788 103.045 76.1971 102.802 76.0025 102.665L75.8904 102.826C76.0086 102.908 76.0833 103.072 76.0833 103.356H76.2788ZM76.0025 102.665C75.8196 102.537 75.5191 102.484 75.1253 102.484V102.679C75.5135 102.679 75.7604 102.735 75.8904 102.826L76.0025 102.665ZM75.1253 102.484H74.2102V102.679H75.1253V102.484ZM74.1125 102.581V104.2H74.308V102.581H74.1125ZM74.2102 104.298H75.1018V104.102H74.2102V104.298Z" fill="#2E353A" mask="url(#path-95-outside-4_394_2436)"/>
<path d="M72.4717 102.875C72.5655 102.781 72.6348 102.666 72.6735 102.539C72.7122 102.412 72.719 102.277 72.6935 102.147L72.1854 102.655C72.1565 102.684 72.1174 102.7 72.0767 102.7C72.036 102.7 71.9969 102.684 71.968 102.655L71.5457 102.233C71.5314 102.218 71.52 102.201 71.5123 102.183C71.5045 102.164 71.5005 102.144 71.5005 102.124C71.5005 102.104 71.5045 102.084 71.5123 102.065C71.52 102.046 71.5314 102.029 71.5457 102.015L72.0535 101.507C71.9111 101.479 71.764 101.49 71.6273 101.539C71.4907 101.587 71.3695 101.672 71.2765 101.783C71.1835 101.894 71.1221 102.028 71.0986 102.171C71.0752 102.314 71.0905 102.461 71.1431 102.596L69.8319 103.877L69.7055 103.751L69.9105 103.546C69.921 103.535 69.9269 103.521 69.9269 103.506C69.9269 103.491 69.921 103.476 69.9105 103.466L69.7506 103.306C69.74 103.295 69.7257 103.289 69.7108 103.289C69.6959 103.289 69.6815 103.295 69.671 103.306L69.591 103.386L69.4178 103.213L69.4844 103.146C69.4985 103.132 69.5064 103.113 69.5064 103.093C69.5064 103.073 69.4985 103.054 69.4844 103.039L68.0536 101.609C68.0195 101.575 67.979 101.547 67.9345 101.529C67.8899 101.511 67.8421 101.501 67.7939 101.501C67.7457 101.501 67.6979 101.511 67.6533 101.529C67.6088 101.547 67.5683 101.575 67.5342 101.609L67.3879 101.755C67.3538 101.789 67.3267 101.829 67.3083 101.874C67.2898 101.919 67.2803 101.966 67.2803 102.014C67.2803 102.063 67.2898 102.11 67.3083 102.155C67.3267 102.2 67.3538 102.24 67.3879 102.274L68.8187 103.705C68.8329 103.719 68.852 103.727 68.872 103.727C68.892 103.727 68.9112 103.719 68.9253 103.705L68.992 103.639L69.1649 103.812L69.0853 103.891C69.08 103.897 69.0758 103.903 69.073 103.91C69.0701 103.917 69.0686 103.924 69.0686 103.931C69.0686 103.939 69.0701 103.946 69.073 103.953C69.0758 103.96 69.08 103.966 69.0853 103.971L69.2448 104.131C69.2555 104.142 69.2699 104.148 69.2848 104.148C69.2998 104.148 69.3141 104.142 69.3248 104.131L69.5298 103.926L69.6542 104.051L68.5669 105.11C68.4317 105.057 68.285 105.042 68.1419 105.066C67.9988 105.089 67.8646 105.15 67.7533 105.243C67.6421 105.336 67.5578 105.458 67.5093 105.594C67.4607 105.731 67.4498 105.878 67.4775 106.02L67.9856 105.513C67.9999 105.498 68.0169 105.487 68.0355 105.479C68.0542 105.471 68.0742 105.467 68.0944 105.467C68.1147 105.467 68.1347 105.471 68.1534 105.479C68.172 105.487 68.189 105.498 68.2033 105.513L68.627 105.932C68.6413 105.946 68.6527 105.963 68.6604 105.982C68.6682 106.001 68.6722 106.021 68.6722 106.041C68.6722 106.061 68.6682 106.081 68.6604 106.1C68.6527 106.119 68.6413 106.136 68.627 106.15L68.1192 106.658C68.2615 106.685 68.4087 106.674 68.5453 106.626C68.682 106.578 68.8031 106.493 68.8962 106.382C68.9892 106.271 69.0506 106.137 69.0742 105.994C69.0977 105.85 69.0824 105.704 69.0299 105.569L70.1173 104.509L71.6 105.99C71.5787 106.045 71.5738 106.105 71.5859 106.163C71.5981 106.22 71.6267 106.273 71.6683 106.315L72.0261 106.673L72.4553 106.243L72.0975 105.886C72.0559 105.844 72.003 105.815 71.9454 105.803C71.8877 105.791 71.8278 105.796 71.7729 105.817L70.2926 104.337L71.6051 103.057C71.7516 103.114 71.9116 103.127 72.0654 103.095C72.2193 103.063 72.3605 102.987 72.4717 102.875Z" fill="#2E353A" stroke="#2E353A" stroke-width="0.0488792" stroke-linecap="round" stroke-linejoin="round"/>
<path d="M68.9395 105.387L71.5137 102.876C71.6489 102.929 71.7958 102.944 71.939 102.921C72.0822 102.897 72.2164 102.835 72.3277 102.742C72.439 102.649 72.5233 102.528 72.5716 102.391C72.62 102.254 72.6308 102.107 72.6027 101.965L72.0949 102.472C72.0807 102.487 72.0637 102.498 72.045 102.506C72.0263 102.514 72.0063 102.518 71.9861 102.518C71.9659 102.518 71.9459 102.514 71.9272 102.506C71.9085 102.498 71.8916 102.487 71.8773 102.472L71.4549 102.05C71.4406 102.036 71.4293 102.019 71.4215 102C71.4138 101.982 71.4098 101.962 71.4098 101.941C71.4098 101.921 71.4138 101.901 71.4215 101.883C71.4293 101.864 71.4406 101.847 71.4549 101.833L71.9627 101.325C71.8203 101.297 71.6731 101.308 71.5364 101.356C71.3997 101.405 71.2786 101.489 71.1856 101.601C71.0927 101.712 71.0314 101.846 71.008 101.99C70.9847 102.133 71.0002 102.28 71.053 102.415L68.4788 104.926C68.3437 104.873 68.197 104.858 68.0539 104.881C67.9108 104.905 67.7766 104.966 67.6653 105.059C67.5541 105.152 67.4698 105.273 67.4214 105.41C67.3729 105.547 67.362 105.694 67.3898 105.836L67.8976 105.328C67.9119 105.314 67.9288 105.303 67.9475 105.295C67.9662 105.287 67.9862 105.283 68.0064 105.283C68.0266 105.283 68.0467 105.287 68.0653 105.295C68.084 105.303 68.101 105.314 68.1153 105.328L68.5376 105.751C68.5519 105.765 68.5633 105.782 68.571 105.801C68.5788 105.819 68.5827 105.839 68.5827 105.86C68.5827 105.88 68.5788 105.9 68.571 105.918C68.5633 105.937 68.5519 105.954 68.5376 105.968L68.0288 106.475C68.1711 106.503 68.3183 106.492 68.4549 106.444C68.5916 106.395 68.7127 106.311 68.8057 106.2C68.8987 106.088 68.9602 105.954 68.9837 105.811C69.0073 105.668 68.992 105.521 68.9395 105.386V105.387Z" fill="white" stroke="#2E353A" stroke-width="0.0488792" stroke-miterlimit="10"/>
<path d="M68.7414 105.123C68.7217 105.104 68.7107 105.077 68.7107 105.049C68.7107 105.021 68.7217 104.994 68.7414 104.975L71.0559 102.723C71.0757 102.703 71.1025 102.692 71.1304 102.692C71.1583 102.692 71.1851 102.703 71.2049 102.723C71.2246 102.743 71.2357 102.77 71.2357 102.798C71.2357 102.826 71.2246 102.852 71.2049 102.872L68.8904 105.123C68.8706 105.143 68.8438 105.154 68.8159 105.154C68.788 105.154 68.7612 105.143 68.7414 105.123Z" fill="white" stroke="#2E353A" stroke-width="0.0488792" stroke-miterlimit="10"/>
<path d="M69.4279 103.381L69.2549 103.554L71.7512 106.05L71.9242 105.877L69.4279 103.381Z" fill="white" stroke="#2E353A" stroke-width="0.0488792" stroke-miterlimit="10"/>
<path d="M72.3647 106.061L71.9355 106.49L71.5777 106.133C71.5208 106.076 71.4888 105.998 71.4888 105.918C71.4888 105.837 71.5208 105.76 71.5777 105.703C71.6059 105.675 71.6393 105.653 71.6762 105.637C71.713 105.622 71.7525 105.614 71.7923 105.614C71.8322 105.614 71.8716 105.622 71.9085 105.637C71.9453 105.653 71.9787 105.675 72.0069 105.703L72.3647 106.061Z" fill="white" stroke="#2E353A" stroke-width="0.0488792" stroke-miterlimit="10"/>
<path d="M69.195 102.895L68.769 103.321L69.1151 103.667L69.5411 103.241L69.195 102.895Z" fill="white" stroke="#2E353A" stroke-width="0.0488792" stroke-miterlimit="10"/>
<path d="M67.2981 101.571L67.4445 101.424C67.4786 101.39 67.5191 101.363 67.5636 101.345C67.6081 101.326 67.6558 101.317 67.704 101.317C67.7522 101.317 67.8 101.326 67.8445 101.345C67.889 101.363 67.9295 101.39 67.9635 101.424L69.3945 102.855C69.4086 102.869 69.4165 102.888 69.4165 102.908C69.4165 102.928 69.4086 102.947 69.3945 102.961L68.8354 103.521C68.8213 103.535 68.8021 103.543 68.7822 103.543C68.7623 103.543 68.7431 103.535 68.729 103.521L67.2981 102.09C67.2293 102.021 67.1906 101.927 67.1906 101.83C67.1906 101.733 67.2293 101.639 67.2981 101.571Z" fill="white" stroke="#2E353A" stroke-width="0.0488792" stroke-miterlimit="10"/>
<path d="M69.5808 103.121L68.9951 103.707C68.9731 103.729 68.9731 103.765 68.9951 103.787L69.155 103.947C69.1771 103.969 69.2128 103.969 69.2348 103.947L69.8205 103.361C69.8425 103.339 69.8425 103.303 69.8205 103.281L69.6605 103.121C69.6385 103.099 69.6028 103.099 69.5808 103.121Z" fill="white" stroke="#2E353A" stroke-width="0.0488792" stroke-miterlimit="10"/>
<path d="M68.9153 103.308L68.7977 103.426L67.3926 102.02C67.3769 102.005 67.3682 101.984 67.3682 101.961C67.3682 101.939 67.3769 101.918 67.3926 101.902C67.4003 101.895 67.4095 101.889 67.4196 101.884C67.4297 101.88 67.4406 101.878 67.4515 101.878C67.4625 101.878 67.4733 101.88 67.4834 101.884C67.4936 101.889 67.5027 101.895 67.5105 101.902L68.9153 103.308Z" fill="white" stroke="#2E353A" stroke-width="0.0488792" stroke-miterlimit="10"/>
<path d="M69.1157 103.106L68.9974 103.224L67.5923 101.819C67.5767 101.804 67.5679 101.782 67.5679 101.76C67.5679 101.738 67.5767 101.717 67.5923 101.701C67.6 101.694 67.6092 101.687 67.6193 101.683C67.6294 101.679 67.6403 101.677 67.6512 101.677C67.6622 101.677 67.673 101.679 67.6832 101.683C67.6933 101.687 67.7025 101.694 67.7102 101.701L69.1157 103.106Z" fill="white" stroke="#2E353A" stroke-width="0.0488792" stroke-miterlimit="10"/>
<path d="M69.3164 102.906L69.1981 103.023L67.793 101.619C67.7773 101.603 67.7686 101.582 67.7686 101.56C67.7686 101.538 67.7773 101.517 67.793 101.501C67.8007 101.493 67.8099 101.487 67.82 101.483C67.8301 101.479 67.841 101.477 67.8519 101.477C67.8629 101.477 67.8737 101.479 67.8838 101.483C67.894 101.487 67.9031 101.493 67.9109 101.501L69.3164 102.906Z" fill="white" stroke="#2E353A" stroke-width="0.0488792" stroke-miterlimit="10"/>
<path d="M64.4766 33.7578H61.5156V32.2031H64.4766C64.9922 32.2031 65.4089 32.1198 65.7266 31.9531C66.0443 31.7865 66.276 31.5573 66.4219 31.2656C66.5729 30.9688 66.6484 30.6302 66.6484 30.25C66.6484 29.8906 66.5729 29.5547 66.4219 29.2422C66.276 28.9245 66.0443 28.6693 65.7266 28.4766C65.4089 28.2839 64.9922 28.1875 64.4766 28.1875H62.1172V38H60.1562V26.625H64.4766C65.3568 26.625 66.1042 26.7812 66.7188 27.0938C67.3385 27.401 67.8099 27.8281 68.1328 28.375C68.4557 28.9167 68.6172 29.5365 68.6172 30.2344C68.6172 30.9688 68.4557 31.599 68.1328 32.125C67.8099 32.651 67.3385 33.0547 66.7188 33.3359C66.1042 33.6172 65.3568 33.7578 64.4766 33.7578ZM72.2031 26V38H70.3125V26H72.2031ZM79.3516 36.0078V29.5469H81.2422V38H79.4609L79.3516 36.0078ZM79.6172 34.25L80.25 34.2344C80.25 34.8021 80.1875 35.3255 80.0625 35.8047C79.9375 36.2786 79.7448 36.6927 79.4844 37.0469C79.224 37.3958 78.8906 37.6693 78.4844 37.8672C78.0781 38.0599 77.5911 38.1562 77.0234 38.1562C76.612 38.1562 76.2344 38.0964 75.8906 37.9766C75.5469 37.8568 75.25 37.6719 75 37.4219C74.7552 37.1719 74.5651 36.8464 74.4297 36.4453C74.2943 36.0443 74.2266 35.5651 74.2266 35.0078V29.5469H76.1094V35.0234C76.1094 35.3307 76.1458 35.5885 76.2188 35.7969C76.2917 36 76.3906 36.1641 76.5156 36.2891C76.6406 36.4141 76.7865 36.5026 76.9531 36.5547C77.1198 36.6068 77.2969 36.6328 77.4844 36.6328C78.0208 36.6328 78.4427 36.5286 78.75 36.3203C79.0625 36.1068 79.2839 35.8203 79.4141 35.4609C79.5495 35.1016 79.6172 34.6979 79.6172 34.25ZM85.0547 31.2656V38H83.1719V29.5469H84.9453L85.0547 31.2656ZM84.75 33.4609L84.1094 33.4531C84.1094 32.8698 84.1823 32.3307 84.3281 31.8359C84.474 31.3411 84.6875 30.9115 84.9688 30.5469C85.25 30.1771 85.599 29.8932 86.0156 29.6953C86.4375 29.4922 86.9245 29.3906 87.4766 29.3906C87.862 29.3906 88.2135 29.4479 88.5312 29.5625C88.8542 29.6719 89.1328 29.8464 89.3672 30.0859C89.6068 30.3255 89.7891 30.6328 89.9141 31.0078C90.0443 31.3828 90.1094 31.8359 90.1094 32.3672V38H88.2266V32.5312C88.2266 32.1198 88.1641 31.7969 88.0391 31.5625C87.9193 31.3281 87.7448 31.1615 87.5156 31.0625C87.2917 30.9583 87.0234 30.9062 86.7109 30.9062C86.3568 30.9062 86.0547 30.974 85.8047 31.1094C85.5599 31.2448 85.3594 31.4297 85.2031 31.6641C85.0469 31.8984 84.9323 32.1693 84.8594 32.4766C84.7865 32.7839 84.75 33.112 84.75 33.4609ZM89.9922 32.9609L89.1094 33.1562C89.1094 32.6458 89.1797 32.1641 89.3203 31.7109C89.4661 31.2526 89.6771 30.8516 89.9531 30.5078C90.2344 30.1589 90.5807 29.8854 90.9922 29.6875C91.4036 29.4896 91.875 29.3906 92.4062 29.3906C92.8385 29.3906 93.224 29.4505 93.5625 29.5703C93.9062 29.6849 94.1979 29.8672 94.4375 30.1172C94.6771 30.3672 94.8594 30.6927 94.9844 31.0938C95.1094 31.4896 95.1719 31.9688 95.1719 32.5312V38H93.2812V32.5234C93.2812 32.0964 93.2188 31.7656 93.0938 31.5312C92.974 31.2969 92.8021 31.1354 92.5781 31.0469C92.3542 30.9531 92.0859 30.9062 91.7734 30.9062C91.4818 30.9062 91.224 30.9609 91 31.0703C90.7812 31.1745 90.5964 31.3229 90.4453 31.5156C90.2943 31.7031 90.1797 31.9193 90.1016 32.1641C90.0286 32.4089 89.9922 32.6745 89.9922 32.9609ZM97.1172 26H99V36.1953L98.8203 38H97.1172V26ZM104.516 33.6953V33.8594C104.516 34.4844 104.445 35.0599 104.305 35.5859C104.169 36.1068 103.961 36.5599 103.68 36.9453C103.404 37.3307 103.06 37.6302 102.648 37.8438C102.242 38.0521 101.771 38.1562 101.234 38.1562C100.708 38.1562 100.25 38.0573 99.8594 37.8594C99.4688 37.6615 99.1406 37.3802 98.875 37.0156C98.6146 36.651 98.4036 36.2161 98.2422 35.7109C98.0807 35.2057 97.9661 34.6484 97.8984 34.0391V33.5156C97.9661 32.901 98.0807 32.3438 98.2422 31.8438C98.4036 31.3385 98.6146 30.9036 98.875 30.5391C99.1406 30.1693 99.4661 29.8854 99.8516 29.6875C100.242 29.4896 100.698 29.3906 101.219 29.3906C101.76 29.3906 102.237 29.4948 102.648 29.7031C103.065 29.9115 103.411 30.2083 103.688 30.5938C103.964 30.974 104.169 31.4271 104.305 31.9531C104.445 32.4792 104.516 33.0599 104.516 33.6953ZM102.633 33.8594V33.6953C102.633 33.3151 102.602 32.9583 102.539 32.625C102.477 32.2865 102.372 31.9896 102.227 31.7344C102.086 31.4792 101.893 31.2786 101.648 31.1328C101.409 30.9818 101.109 30.9062 100.75 30.9062C100.417 30.9062 100.13 30.9635 99.8906 31.0781C99.651 31.1927 99.4505 31.349 99.2891 31.5469C99.1276 31.7448 99 31.974 98.9062 32.2344C98.8177 32.4948 98.7578 32.776 98.7266 33.0781V34.4922C98.7734 34.8828 98.8724 35.2422 99.0234 35.5703C99.1797 35.8932 99.3984 36.1536 99.6797 36.3516C99.9609 36.5443 100.323 36.6406 100.766 36.6406C101.115 36.6406 101.409 36.5703 101.648 36.4297C101.888 36.2891 102.078 36.0938 102.219 35.8438C102.365 35.5885 102.469 35.2917 102.531 34.9531C102.599 34.6146 102.633 34.25 102.633 33.8594ZM108.125 29.5469V38H106.234V29.5469H108.125ZM106.109 27.3281C106.109 27.0417 106.203 26.8047 106.391 26.6172C106.583 26.4245 106.849 26.3281 107.188 26.3281C107.521 26.3281 107.784 26.4245 107.977 26.6172C108.169 26.8047 108.266 27.0417 108.266 27.3281C108.266 27.6094 108.169 27.8438 107.977 28.0312C107.784 28.2188 107.521 28.3125 107.188 28.3125C106.849 28.3125 106.583 28.2188 106.391 28.0312C106.203 27.8438 106.109 27.6094 106.109 27.3281ZM112.055 31.3516V38H110.172V29.5469H111.945L112.055 31.3516ZM111.719 33.4609L111.109 33.4531C111.115 32.8542 111.198 32.3047 111.359 31.8047C111.526 31.3047 111.755 30.875 112.047 30.5156C112.344 30.1562 112.698 29.8802 113.109 29.6875C113.521 29.4896 113.979 29.3906 114.484 29.3906C114.891 29.3906 115.258 29.4479 115.586 29.5625C115.919 29.6719 116.203 29.8516 116.438 30.1016C116.677 30.3516 116.859 30.6771 116.984 31.0781C117.109 31.474 117.172 31.9609 117.172 32.5391V38H115.281V32.5312C115.281 32.125 115.221 31.8047 115.102 31.5703C114.987 31.3307 114.818 31.1615 114.594 31.0625C114.375 30.9583 114.102 30.9062 113.773 30.9062C113.451 30.9062 113.161 30.974 112.906 31.1094C112.651 31.2448 112.435 31.4297 112.258 31.6641C112.086 31.8984 111.953 32.1693 111.859 32.4766C111.766 32.7839 111.719 33.112 111.719 33.4609ZM124.508 29.5469H126.219V37.7656C126.219 38.526 126.057 39.1719 125.734 39.7031C125.411 40.2344 124.961 40.638 124.383 40.9141C123.805 41.1953 123.135 41.3359 122.375 41.3359C122.052 41.3359 121.693 41.2891 121.297 41.1953C120.906 41.1016 120.526 40.9505 120.156 40.7422C119.792 40.5391 119.487 40.2708 119.242 39.9375L120.125 38.8281C120.427 39.1875 120.76 39.4505 121.125 39.6172C121.49 39.7839 121.872 39.8672 122.273 39.8672C122.706 39.8672 123.073 39.7865 123.375 39.625C123.682 39.4688 123.919 39.237 124.086 38.9297C124.253 38.6224 124.336 38.2474 124.336 37.8047V31.4609L124.508 29.5469ZM118.766 33.8672V33.7031C118.766 33.0625 118.844 32.4792 119 31.9531C119.156 31.4219 119.38 30.9661 119.672 30.5859C119.964 30.2005 120.318 29.9062 120.734 29.7031C121.151 29.4948 121.622 29.3906 122.148 29.3906C122.695 29.3906 123.161 29.4896 123.547 29.6875C123.938 29.8854 124.263 30.1693 124.523 30.5391C124.784 30.9036 124.987 31.3411 125.133 31.8516C125.284 32.3568 125.396 32.9193 125.469 33.5391V34.0625C125.401 34.6667 125.286 35.2188 125.125 35.7188C124.964 36.2188 124.75 36.651 124.484 37.0156C124.219 37.3802 123.891 37.6615 123.5 37.8594C123.115 38.0573 122.659 38.1562 122.133 38.1562C121.617 38.1562 121.151 38.0495 120.734 37.8359C120.323 37.6224 119.969 37.3229 119.672 36.9375C119.38 36.5521 119.156 36.099 119 35.5781C118.844 35.0521 118.766 34.4818 118.766 33.8672ZM120.648 33.7031V33.8672C120.648 34.2526 120.685 34.612 120.758 34.9453C120.836 35.2786 120.953 35.5729 121.109 35.8281C121.271 36.0781 121.474 36.276 121.719 36.4219C121.969 36.5625 122.263 36.6328 122.602 36.6328C123.044 36.6328 123.406 36.5391 123.688 36.3516C123.974 36.1641 124.193 35.9115 124.344 35.5938C124.5 35.2708 124.609 34.9115 124.672 34.5156V33.1016C124.641 32.7943 124.576 32.5078 124.477 32.2422C124.383 31.9766 124.255 31.7448 124.094 31.5469C123.932 31.3438 123.729 31.1875 123.484 31.0781C123.24 30.9635 122.951 30.9062 122.617 30.9062C122.279 30.9062 121.984 30.9792 121.734 31.125C121.484 31.2708 121.279 31.4714 121.117 31.7266C120.961 31.9818 120.844 32.2786 120.766 32.6172C120.688 32.9557 120.648 33.3177 120.648 33.7031Z" fill="black"/>
</g>
<rect x="4.9" y="3.9" width="180.2" height="150.2" rx="15.1" stroke="#303564" stroke-width="0.2"/>
</g>
<defs>
<filter id="filter0_d_394_2436" x="0.800049" y="0.799805" width="188.4" height="158.4" filterUnits="userSpaceOnUse" color-interpolation-filters="sRGB">
<feFlood flood-opacity="0" result="BackgroundImageFix"/>
<feColorMatrix in="SourceAlpha" type="matrix" values="0 0 0 0 0 0 0 0 0 0 0 0 0 0 0 0 0 0 127 0" result="hardAlpha"/>
<feOffset dy="1"/>
<feGaussianBlur stdDeviation="2"/>
<feComposite in2="hardAlpha" operator="out"/>
<feColorMatrix type="matrix" values="0 0 0 0 0.188235 0 0 0 0 0.207843 0 0 0 0 0.392157 0 0 0 0.5 0"/>
<feBlend mode="normal" in2="BackgroundImageFix" result="effect1_dropShadow_394_2436"/>
<feBlend mode="normal" in="SourceGraphic" in2="effect1_dropShadow_394_2436" result="shape"/>
</filter>
<clipPath id="clip0_394_2436">
<rect x="5" y="4" width="180" height="150" rx="15" fill="white"/>
</clipPath>
</defs>
</svg>
