<svg width="35" height="35" viewBox="0 0 35 35" fill="none" xmlns="http://www.w3.org/2000/svg">
<rect width="35" height="35" rx="5" fill="#EFF0F4"/>
<path d="M8 27V24.8889C8 23.7691 8.44484 22.6952 9.23666 21.9034C10.0285 21.1115 11.1024 20.6667 12.2222 20.6667H15.9167M23.8334 27L23.3056 26.4723M10.1111 12.2222C10.1111 13.342 10.556 14.416 11.3478 15.2078C12.1396 15.9996 13.2135 16.4445 14.3333 16.4445C15.4531 16.4445 16.5271 15.9996 17.3189 15.2078C18.1107 14.416 18.5556 13.342 18.5556 12.2222C18.5556 11.1024 18.1107 10.0285 17.3189 9.23666C16.5271 8.44484 15.4531 8 14.3333 8C13.2135 8 12.1396 8.44484 11.3478 9.23666C10.556 10.0285 10.1111 11.1024 10.1111 12.2222Z" stroke="#303564" stroke-linecap="round" stroke-linejoin="round"/>
<mask id="path-3-inside-1_792_565" fill="white">
<path d="M26.8858 22.8878L25.4864 22.4604C25.3864 22.1177 25.2503 21.7866 25.0806 21.4726L25.7803 20.1696C25.803 20.1174 25.8085 20.0594 25.7959 20.0039C25.7833 19.9484 25.7533 19.8985 25.7103 19.8613L24.6957 18.8455C24.6574 18.8039 24.6061 18.7765 24.5503 18.7676C24.4945 18.7587 24.4372 18.7688 24.3879 18.7965L23.1005 19.497C22.7834 19.3186 22.4479 19.1753 22.0999 19.0697L21.6731 17.6685C21.655 17.617 21.6206 17.5727 21.5752 17.5424C21.5298 17.512 21.4757 17.4973 21.4212 17.5004H19.9868C19.9317 17.4998 19.8779 17.5172 19.8337 17.5501C19.7895 17.583 19.7572 17.6296 19.7419 17.6826L19.3151 19.0837C18.9647 19.1858 18.6267 19.3268 18.3076 19.504L17.0341 18.8035C16.9858 18.7764 16.9298 18.7665 16.8752 18.7754C16.8205 18.7843 16.7705 18.8115 16.7333 18.8525L15.6977 19.8613C15.6593 19.9018 15.6346 19.9534 15.6271 20.0087C15.6196 20.064 15.6296 20.1203 15.6558 20.1696L16.3554 21.4446C16.1704 21.7604 16.0225 22.0966 15.9146 22.4464L14.5153 22.8668C14.4623 22.8821 14.4159 22.9144 14.383 22.9587C14.3502 23.0029 14.3327 23.0568 14.3333 23.112V24.5481C14.3375 24.5987 14.3572 24.6468 14.3898 24.6857C14.4224 24.7246 14.4662 24.7524 14.5153 24.7653L15.9146 25.1927C16.0181 25.5363 16.1588 25.8676 16.3345 26.1805L15.6348 27.5185C15.6081 27.5665 15.5977 27.6218 15.6053 27.6762C15.6129 27.7306 15.638 27.781 15.6767 27.8198L16.6913 28.8356C16.7309 28.8752 16.782 28.9012 16.8373 28.91C16.8926 28.9188 16.9492 28.91 16.9992 28.8846L18.3076 28.1841C18.619 28.3518 18.9473 28.4856 19.2871 28.5834L19.707 29.9845C19.7242 30.0364 19.7569 30.0817 19.8007 30.1143C19.8445 30.1469 19.8973 30.1652 19.9518 30.1667H21.3862C21.441 30.1662 21.4943 30.1483 21.5383 30.1156C21.5823 30.0828 21.6148 30.037 21.6311 29.9845L22.0579 28.5484C22.3932 28.4505 22.717 28.3166 23.0235 28.1491L24.3459 28.8496C24.3945 28.8755 24.4502 28.8847 24.5046 28.8758C24.5589 28.867 24.6089 28.8405 24.6468 28.8006L25.7103 27.8478C25.7389 27.8067 25.7542 27.7578 25.7542 27.7077C25.7542 27.6576 25.7389 27.6087 25.7103 27.5676L25.0106 26.2505C25.1805 25.9415 25.3165 25.615 25.4164 25.2767L26.8158 24.8494C26.8687 24.8341 26.9152 24.8018 26.9481 24.7575C26.9809 24.7132 26.9984 24.6593 26.9977 24.6042V23.133C27.0041 23.0857 26.997 23.0375 26.9772 22.9941C26.9574 22.9507 26.9257 22.9139 26.8858 22.8878ZM20.7075 26.1664C20.2447 26.1678 19.7919 26.0316 19.4065 25.775C19.0212 25.5184 18.7205 25.1531 18.5428 24.7252C18.365 24.2974 18.3182 23.8263 18.4081 23.3718C18.4981 22.9172 18.7208 22.4997 19.048 22.172C19.3753 21.8443 19.7923 21.6213 20.2463 21.5313C20.7003 21.4412 21.1708 21.4881 21.5981 21.6661C22.0254 21.8441 22.3903 22.1451 22.6465 22.5309C22.9028 22.9168 23.0389 23.3702 23.0375 23.8335C23.0356 24.4517 22.7896 25.044 22.353 25.4811C21.9165 25.9182 21.3249 26.1646 20.7075 26.1664Z"/>
</mask>
<path d="M26.8858 22.8878L25.4864 22.4604C25.3864 22.1177 25.2503 21.7866 25.0806 21.4726L25.7803 20.1696C25.803 20.1174 25.8085 20.0594 25.7959 20.0039C25.7833 19.9484 25.7533 19.8985 25.7103 19.8613L24.6957 18.8455C24.6574 18.8039 24.6061 18.7765 24.5503 18.7676C24.4945 18.7587 24.4372 18.7688 24.3879 18.7965L23.1005 19.497C22.7834 19.3186 22.4479 19.1753 22.0999 19.0697L21.6731 17.6685C21.655 17.617 21.6206 17.5727 21.5752 17.5424C21.5298 17.512 21.4757 17.4973 21.4212 17.5004H19.9868C19.9317 17.4998 19.8779 17.5172 19.8337 17.5501C19.7895 17.583 19.7572 17.6296 19.7419 17.6826L19.3151 19.0837C18.9647 19.1858 18.6267 19.3268 18.3076 19.504L17.0341 18.8035C16.9858 18.7764 16.9298 18.7665 16.8752 18.7754C16.8205 18.7843 16.7705 18.8115 16.7333 18.8525L15.6977 19.8613C15.6593 19.9018 15.6346 19.9534 15.6271 20.0087C15.6196 20.064 15.6296 20.1203 15.6558 20.1696L16.3554 21.4446C16.1704 21.7604 16.0225 22.0966 15.9146 22.4464L14.5153 22.8668C14.4623 22.8821 14.4159 22.9144 14.383 22.9587C14.3502 23.0029 14.3327 23.0568 14.3333 23.112V24.5481C14.3375 24.5987 14.3572 24.6468 14.3898 24.6857C14.4224 24.7246 14.4662 24.7524 14.5153 24.7653L15.9146 25.1927C16.0181 25.5363 16.1588 25.8676 16.3345 26.1805L15.6348 27.5185C15.6081 27.5665 15.5977 27.6218 15.6053 27.6762C15.6129 27.7306 15.638 27.781 15.6767 27.8198L16.6913 28.8356C16.7309 28.8752 16.782 28.9012 16.8373 28.91C16.8926 28.9188 16.9492 28.91 16.9992 28.8846L18.3076 28.1841C18.619 28.3518 18.9473 28.4856 19.2871 28.5834L19.707 29.9845C19.7242 30.0364 19.7569 30.0817 19.8007 30.1143C19.8445 30.1469 19.8973 30.1652 19.9518 30.1667H21.3862C21.441 30.1662 21.4943 30.1483 21.5383 30.1156C21.5823 30.0828 21.6148 30.037 21.6311 29.9845L22.0579 28.5484C22.3932 28.4505 22.717 28.3166 23.0235 28.1491L24.3459 28.8496C24.3945 28.8755 24.4502 28.8847 24.5046 28.8758C24.5589 28.867 24.6089 28.8405 24.6468 28.8006L25.7103 27.8478C25.7389 27.8067 25.7542 27.7578 25.7542 27.7077C25.7542 27.6576 25.7389 27.6087 25.7103 27.5676L25.0106 26.2505C25.1805 25.9415 25.3165 25.615 25.4164 25.2767L26.8158 24.8494C26.8687 24.8341 26.9152 24.8018 26.9481 24.7575C26.9809 24.7132 26.9984 24.6593 26.9977 24.6042V23.133C27.0041 23.0857 26.997 23.0375 26.9772 22.9941C26.9574 22.9507 26.9257 22.9139 26.8858 22.8878ZM20.7075 26.1664C20.2447 26.1678 19.7919 26.0316 19.4065 25.775C19.0212 25.5184 18.7205 25.1531 18.5428 24.7252C18.365 24.2974 18.3182 23.8263 18.4081 23.3718C18.4981 22.9172 18.7208 22.4997 19.048 22.172C19.3753 21.8443 19.7923 21.6213 20.2463 21.5313C20.7003 21.4412 21.1708 21.4881 21.5981 21.6661C22.0254 21.8441 22.3903 22.1451 22.6465 22.5309C22.9028 22.9168 23.0389 23.3702 23.0375 23.8335C23.0356 24.4517 22.7896 25.044 22.353 25.4811C21.9165 25.9182 21.3249 26.1646 20.7075 26.1664Z" fill="#303564"/>
<path d="M26.8858 22.8878L27.4327 22.0506L27.3137 21.9729L27.1778 21.9314L26.8858 22.8878ZM25.4864 22.4604L24.5264 22.7406L24.6778 23.2591L25.1943 23.4168L25.4864 22.4604ZM25.0806 21.4726L24.1995 20.9996L23.9446 21.4743L24.2009 21.9482L25.0806 21.4726ZM25.7803 20.1696L26.6613 20.6426L26.6805 20.6069L26.6967 20.5698L25.7803 20.1696ZM25.7103 19.8613L25.0027 20.568L25.0288 20.5941L25.0567 20.6182L25.7103 19.8613ZM24.6957 18.8455L23.9608 19.5236L23.9742 19.5382L23.9882 19.5522L24.6957 18.8455ZM24.3879 18.7965L24.8659 19.6749L24.876 19.6692L24.3879 18.7965ZM23.1005 19.497L22.6099 20.3685L23.0923 20.6399L23.5784 20.3754L23.1005 19.497ZM22.0999 19.0697L21.1433 19.3611L21.2988 19.8716L21.8095 20.0266L22.0999 19.0697ZM21.6731 17.6685L22.6297 17.3771L22.6236 17.357L22.6166 17.3372L21.6731 17.6685ZM21.4212 17.5004V18.5004H21.4496L21.4779 18.4988L21.4212 17.5004ZM19.9868 17.5004L19.9753 18.5004H19.9868V17.5004ZM19.7419 17.6826L20.6985 17.9739L20.7007 17.967L20.7027 17.9599L19.7419 17.6826ZM19.3151 19.0837L19.5948 20.0438L20.1141 19.8925L20.2717 19.3751L19.3151 19.0837ZM18.3076 19.504L17.8256 20.3802L18.3099 20.6466L18.7931 20.3782L18.3076 19.504ZM17.0341 18.8035L16.5451 19.6758L16.5521 19.6796L17.0341 18.8035ZM16.7333 18.8525L17.4311 19.5688L17.4531 19.5473L17.4737 19.5246L16.7333 18.8525ZM15.6977 19.8613L14.9999 19.145L14.9858 19.1588L14.9722 19.1732L15.6977 19.8613ZM15.6558 20.1696L14.7724 20.6385L14.7791 20.6507L15.6558 20.1696ZM16.3554 21.4446L17.2182 21.9502L17.505 21.4608L17.2321 20.9635L16.3554 21.4446ZM15.9146 22.4464L16.2023 23.4041L16.7132 23.2507L16.8703 22.7409L15.9146 22.4464ZM14.5153 22.8668L14.7933 23.8274L14.8029 23.8245L14.5153 22.8668ZM14.3333 23.112H15.3334L15.3333 23.1004L14.3333 23.112ZM14.3333 24.5481H13.3333V24.5889L13.3367 24.6296L14.3333 24.5481ZM14.5153 24.7653L14.8073 23.8089L14.7885 23.8031L14.7694 23.7981L14.5153 24.7653ZM15.9146 25.1927L16.8722 24.9045L16.7181 24.3924L16.2067 24.2363L15.9146 25.1927ZM16.3345 26.1805L17.2206 26.6438L17.4717 26.1636L17.2065 25.691L16.3345 26.1805ZM15.6348 27.5185L16.5084 28.0051L16.5148 27.9936L16.5209 27.9819L15.6348 27.5185ZM15.6767 27.8198L16.3843 27.1131L16.3839 27.1128L15.6767 27.8198ZM16.6913 28.8356L15.9837 29.5423L15.9846 29.5431L16.6913 28.8356ZM16.9992 28.8846L17.4513 29.7766L17.4613 29.7715L17.4712 29.7662L16.9992 28.8846ZM18.3076 28.1841L18.7817 27.3036L18.3089 27.049L17.8356 27.3025L18.3076 28.1841ZM19.2871 28.5834L20.2451 28.2964L20.0884 27.7734L19.5637 27.6224L19.2871 28.5834ZM19.707 29.9845L18.749 30.2716L18.7533 30.2856L18.7579 30.2996L19.707 29.9845ZM19.9518 30.1667L19.9239 31.1663L19.9379 31.1667H19.9518V30.1667ZM21.3862 30.1667V31.1667L21.3951 31.1666L21.3862 30.1667ZM21.6311 29.9845L22.5861 30.2815L22.5897 30.2694L21.6311 29.9845ZM22.0579 28.5484L21.7778 27.5884L21.2546 27.7411L21.0993 28.2635L22.0579 28.5484ZM23.0235 28.1491L23.4916 27.2654L23.016 27.0134L22.5438 27.2716L23.0235 28.1491ZM24.3459 28.8496L24.8157 27.9668L24.814 27.966L24.3459 28.8496ZM24.6468 28.8006L23.9795 28.0558L23.9492 28.0829L23.9212 28.1124L24.6468 28.8006ZM25.7103 27.8478L26.3776 28.5926L26.4646 28.5147L26.5313 28.4188L25.7103 27.8478ZM25.7542 27.7077H24.7542H25.7542ZM25.7103 27.5676L24.8272 28.0367L24.8552 28.0895L24.8893 28.1385L25.7103 27.5676ZM25.0106 26.2505L24.1343 25.7688L23.874 26.2424L24.1275 26.7197L25.0106 26.2505ZM25.4164 25.2767L25.1244 24.3203L24.6098 24.4775L24.4574 24.9935L25.4164 25.2767ZM26.8158 24.8494L26.5378 23.8888L26.5307 23.8908L26.5237 23.893L26.8158 24.8494ZM26.9977 24.6042H25.9977L25.9978 24.6157L26.9977 24.6042ZM26.9977 23.133L26.0068 22.9984L25.9977 23.0654V23.133H26.9977ZM20.7075 26.1664L20.7105 27.1664L20.7075 26.1664ZM23.0375 23.8335L24.0375 23.8365L23.0375 23.8335ZM27.1778 21.9314L25.7785 21.504L25.1943 23.4168L26.5937 23.8442L27.1778 21.9314ZM26.4463 22.1802C26.3265 21.7698 26.1636 21.3731 25.9602 20.997L24.2009 21.9482C24.3371 22.2001 24.4462 22.4657 24.5264 22.7406L26.4463 22.1802ZM25.9616 21.9457L26.6613 20.6426L24.8992 19.6965L24.1995 20.9996L25.9616 21.9457ZM26.6967 20.5698C26.8049 20.322 26.8309 20.0462 26.7711 19.7826L24.8207 20.2253C24.7861 20.0726 24.8012 19.9129 24.8638 19.7694L26.6967 20.5698ZM26.7711 19.7826C26.7113 19.519 26.5686 19.2813 26.3639 19.1044L25.0567 20.6182C24.938 20.5157 24.8554 20.3779 24.8207 20.2253L26.7711 19.7826ZM26.4178 19.1547L25.4033 18.1388L23.9882 19.5522L25.0027 20.568L26.4178 19.1547ZM25.4307 18.1674C25.2401 17.9608 24.9854 17.8243 24.7076 17.78L24.393 19.7551C24.2268 19.7286 24.0746 19.647 23.9608 19.5236L25.4307 18.1674ZM24.7076 17.78C24.4298 17.7358 24.1452 17.7864 23.8997 17.9237L24.876 19.6692C24.7293 19.7513 24.5592 19.7816 24.393 19.7551L24.7076 17.78ZM23.9099 17.9181L22.6225 18.6187L23.5784 20.3754L24.8659 19.6748L23.9099 17.9181ZM23.591 18.6256C23.2106 18.4115 22.8079 18.2395 22.3903 18.1128L21.8095 20.0266C22.0879 20.1111 22.3563 20.2257 22.6099 20.3685L23.591 18.6256ZM23.0565 18.7783L22.6297 17.3771L20.7165 17.9599L21.1433 19.3611L23.0565 18.7783ZM22.6166 17.3372C22.5267 17.0813 22.3562 16.8614 22.1304 16.7106L21.02 18.3741C20.8851 18.284 20.7832 18.1526 20.7296 17.9999L22.6166 17.3372ZM22.1304 16.7106C21.9045 16.5599 21.6357 16.4866 21.3645 16.502L21.4779 18.4988C21.3157 18.508 21.155 18.4642 21.02 18.3741L22.1304 16.7106ZM21.4212 16.5004H19.9868V18.5004H21.4212V16.5004ZM19.9984 16.5005C19.7243 16.4973 19.4568 16.5842 19.2369 16.7478L20.4305 18.3525C20.2991 18.4502 20.1392 18.5022 19.9753 18.5003L19.9984 16.5005ZM19.2369 16.7478C19.0171 16.9113 18.8571 17.1422 18.7812 17.4052L20.7027 17.9599C20.6574 18.1169 20.5619 18.2548 20.4305 18.3525L19.2369 16.7478ZM18.7853 17.3912L18.3585 18.7923L20.2717 19.3751L20.6985 17.9739L18.7853 17.3912ZM19.0354 18.1236C18.6134 18.2466 18.2064 18.4163 17.822 18.6298L18.7931 20.3782C19.0471 20.2372 19.316 20.125 19.5948 20.0438L19.0354 18.1236ZM18.7896 18.6279L17.5162 17.9273L16.5521 19.6796L17.8256 20.3802L18.7896 18.6279ZM17.5231 17.9312C17.2775 17.7935 16.9924 17.7431 16.7143 17.7884L17.036 19.7624C16.8672 19.7899 16.6942 19.7593 16.5452 19.6758L17.5231 17.9312ZM16.7143 17.7884C16.4362 17.8337 16.182 17.972 15.9928 18.1804L17.4737 19.5246C17.3591 19.6509 17.2048 19.7349 17.036 19.7624L16.7143 17.7884ZM16.0355 18.1362L14.9999 19.145L16.3955 20.5776L17.4311 19.5688L16.0355 18.1362ZM14.9722 19.1732C14.7895 19.3658 14.672 19.6109 14.6362 19.8737L16.618 20.1436C16.5972 20.2958 16.5292 20.4378 16.4233 20.5495L14.9722 19.1732ZM14.6362 19.8737C14.6005 20.1365 14.6481 20.404 14.7725 20.6384L16.539 19.7007C16.6111 19.8365 16.6387 19.9914 16.618 20.1436L14.6362 19.8737ZM14.7791 20.6507L15.4788 21.9257L17.2321 20.9635L16.5324 19.6885L14.7791 20.6507ZM15.4927 20.939C15.2686 21.3213 15.0895 21.7284 14.959 22.1519L16.8703 22.7409C16.9554 22.4648 17.0722 22.1994 17.2182 21.9502L15.4927 20.939ZM15.627 21.4887L14.2276 21.909L14.8029 23.8245L16.2023 23.4041L15.627 21.4887ZM14.2372 21.9062C13.9739 21.9824 13.7431 22.1429 13.5799 22.3628L15.1861 23.5545C15.0887 23.6858 14.9507 23.7818 14.7933 23.8273L14.2372 21.9062ZM13.5799 22.3628C13.4168 22.5827 13.3303 22.8499 13.3334 23.1235L15.3333 23.1004C15.3352 23.2637 15.2835 23.4232 15.1861 23.5545L13.5799 22.3628ZM13.3333 23.112V24.5481H15.3333V23.112H13.3333ZM13.3367 24.6296C13.3576 24.8863 13.4577 25.1303 13.6232 25.3278L15.1564 24.0436C15.2567 24.1633 15.3173 24.3112 15.33 24.4667L13.3367 24.6296ZM13.6232 25.3278C13.7887 25.5254 14.0116 25.6669 14.2612 25.7325L14.7694 23.7981C14.9208 23.8379 15.056 23.9238 15.1564 24.0436L13.6232 25.3278ZM14.2232 25.7217L15.6226 26.149L16.2067 24.2363L14.8073 23.8089L14.2232 25.7217ZM14.9571 25.4808C15.0815 25.8945 15.251 26.2932 15.4624 26.6699L17.2065 25.691C17.0667 25.4419 16.9546 25.1781 16.8722 24.9045L14.9571 25.4808ZM15.4483 25.7171L14.7486 27.0552L16.5209 27.9819L17.2206 26.6438L15.4483 25.7171ZM14.7611 27.032C14.6286 27.27 14.5773 27.5446 14.6149 27.8142L16.5957 27.5382C16.6182 27.6991 16.5876 27.863 16.5084 28.0051L14.7611 27.032ZM14.6149 27.8142C14.6524 28.0839 14.7769 28.3341 14.9696 28.5268L16.3839 27.1128C16.499 27.2279 16.5733 27.3773 16.5957 27.5382L14.6149 27.8142ZM14.9692 28.5264L15.9837 29.5423L17.3988 28.1289L16.3843 27.1131L14.9692 28.5264ZM15.9846 29.5431C16.1732 29.7315 16.4165 29.8556 16.68 29.8976L16.9946 27.9225C17.1475 27.9468 17.2886 28.0189 17.398 28.1281L15.9846 29.5431ZM16.68 29.8976C16.9435 29.9396 17.2134 29.8972 17.4513 29.7766L16.547 27.9927C16.685 27.9227 16.8417 27.8981 16.9946 27.9225L16.68 29.8976ZM17.4712 29.7662L18.7796 29.0657L17.8356 27.3025L16.5271 28.0031L17.4712 29.7662ZM17.8334 29.0645C18.2076 29.266 18.6022 29.4269 19.0106 29.5444L19.5637 27.6224C19.2924 27.5444 19.0303 27.4375 18.7817 27.3036L17.8334 29.0645ZM18.3292 28.8704L18.749 30.2716L20.6649 29.6975L20.2451 28.2964L18.3292 28.8704ZM18.7579 30.2996C18.8397 30.546 18.9953 30.7615 19.2039 30.9167L20.3975 29.3119C20.5185 29.4018 20.6086 29.5267 20.656 29.6695L18.7579 30.2996ZM19.2039 30.9167C19.4125 31.0718 19.6639 31.159 19.9239 31.1663L19.9798 29.1671C20.1307 29.1713 20.2766 29.2219 20.3975 29.3119L19.2039 30.9167ZM19.9518 31.1667H21.3862V29.1667H19.9518V31.1667ZM21.3951 31.1666C21.6619 31.1643 21.9211 31.0772 22.1351 30.918L20.9415 29.3132C21.0675 29.2195 21.2201 29.1681 21.3773 29.1667L21.3951 31.1666ZM22.1351 30.918C22.3491 30.7588 22.5069 30.5359 22.586 30.2815L20.6762 29.6876C20.7227 29.538 20.8155 29.4069 20.9415 29.3132L22.1351 30.918ZM22.5897 30.2694L23.0165 28.8332L21.0993 28.2635L20.6725 29.6997L22.5897 30.2694ZM22.3381 29.5083C22.7427 29.3903 23.1333 29.2287 23.5032 29.0265L22.5438 27.2716C22.3006 27.4046 22.0437 27.5108 21.7778 27.5884L22.3381 29.5083ZM22.5554 29.0327L23.8778 29.7333L24.814 27.966L23.4916 27.2654L22.5554 29.0327ZM23.8761 29.7324C24.1179 29.861 24.3951 29.9069 24.6655 29.8628L24.3437 27.8889C24.5054 27.8625 24.6712 27.8899 24.8157 27.9668L23.8761 29.7324ZM24.6655 29.8628C24.9358 29.8188 25.184 29.6873 25.3723 29.4887L23.9212 28.1124C24.0337 27.9938 24.1821 27.9152 24.3437 27.8889L24.6655 29.8628ZM25.314 29.5454L26.3776 28.5926L25.043 27.103L23.9795 28.0558L25.314 29.5454ZM26.5313 28.4188C26.6765 28.21 26.7542 27.9618 26.7542 27.7077H24.7542C24.7542 27.5538 24.8013 27.4034 24.8893 27.2769L26.5313 28.4188ZM26.7542 27.7077C26.7542 27.4536 26.6765 27.2054 26.5313 26.9966L24.8893 28.1385C24.8013 28.012 24.7542 27.8616 24.7542 27.7077H26.7542ZM26.5934 27.0984L25.8937 25.7814L24.1275 26.7197L24.8272 28.0367L26.5934 27.0984ZM25.887 26.7322C26.0914 26.3602 26.2552 25.9671 26.3755 25.56L24.4574 24.9935C24.3778 25.2628 24.2695 25.5228 24.1343 25.7688L25.887 26.7322ZM25.7085 26.2331L27.1079 25.8058L26.5237 23.893L25.1244 24.3203L25.7085 26.2331ZM27.0938 25.8099C27.3572 25.7337 27.588 25.5732 27.7512 25.3533L26.1449 24.1616C26.2424 24.0303 26.3803 23.9344 26.5378 23.8888L27.0938 25.8099ZM27.7512 25.3533C27.9143 25.1334 28.0008 24.8662 27.9977 24.5926L25.9978 24.6157C25.9959 24.4525 26.0475 24.293 26.1449 24.1616L27.7512 25.3533ZM27.9977 24.6042V23.133H25.9977V24.6042H27.9977ZM27.9886 23.2675C28.0205 23.033 27.9852 22.7942 27.8869 22.5788L26.0675 23.4095C26.0088 23.2809 25.9878 23.1384 26.0068 22.9984L27.9886 23.2675ZM27.8869 22.5788C27.7886 22.3634 27.6311 22.1802 27.4327 22.0506L26.3388 23.725C26.2203 23.6475 26.1262 23.538 26.0675 23.4095L27.8869 22.5788ZM20.7045 25.1664C20.44 25.1672 20.1812 25.0894 19.9607 24.9426L18.8524 26.6074C19.4027 26.9738 20.0494 27.1684 20.7105 27.1664L20.7045 25.1664ZM19.9607 24.9426C19.7403 24.7959 19.5681 24.5867 19.4663 24.3416L17.6193 25.1089C17.873 25.7194 18.302 26.241 18.8524 26.6074L19.9607 24.9426ZM19.4663 24.3416C19.3644 24.0964 19.3375 23.8264 19.3891 23.5659L17.4272 23.1777C17.2988 23.8262 17.3657 24.4983 17.6193 25.1089L19.4663 24.3416ZM19.3891 23.5659C19.4407 23.3054 19.5683 23.0662 19.7556 22.8787L18.3405 21.4653C17.8733 21.9331 17.5555 22.5291 17.4272 23.1777L19.3891 23.5659ZM19.7556 22.8787C19.9429 22.6911 20.1814 22.5636 20.4409 22.5122L20.0517 20.5504C19.4033 20.679 18.8077 20.9975 18.3405 21.4653L19.7556 22.8787ZM20.4409 22.5122C20.7004 22.4607 20.9693 22.4875 21.2136 22.5892L21.9825 20.743C21.3722 20.4888 20.7002 20.4217 20.0517 20.5504L20.4409 22.5122ZM21.2136 22.5892C21.4579 22.691 21.6668 22.8632 21.8135 23.0842L23.4796 21.9777C23.1138 21.427 22.5928 20.9972 21.9825 20.743L21.2136 22.5892ZM21.8135 23.0842C21.9603 23.3052 22.0383 23.5649 22.0375 23.8306L24.0375 23.8365C24.0394 23.1754 23.8453 22.5285 23.4796 21.9777L21.8135 23.0842ZM22.0375 23.8306C22.0364 24.1849 21.8953 24.5242 21.6455 24.7744L23.0606 26.1878C23.6838 25.5638 24.0348 24.7185 24.0375 23.8365L22.0375 23.8306ZM21.6455 24.7744C21.3956 25.0246 21.0573 25.1654 20.7045 25.1664L20.7105 27.1664C21.5925 27.1638 22.4373 26.8118 23.0606 26.1878L21.6455 24.7744Z" fill="#303564" mask="url(#path-3-inside-1_792_565)"/>
</svg>
