<svg width="35" height="35" viewBox="0 0 35 35" fill="none" xmlns="http://www.w3.org/2000/svg">
<rect width="35" height="35" rx="5" fill="#EFF0F4"/>
<path d="M14.5708 16.525L18 10.8859L21.43 16.5267L14.5708 16.525ZM22.5833 25.6917C21.7128 25.6917 20.9769 25.3914 20.3758 24.7909C19.7747 24.1903 19.4742 23.4545 19.4742 22.5834C19.4742 21.7123 19.7747 20.9764 20.3758 20.3759C20.9769 19.7753 21.7128 19.4748 22.5833 19.4742C23.4539 19.4736 24.1897 19.7742 24.7908 20.3759C25.3919 20.9775 25.6925 21.7134 25.6925 22.5834C25.6925 23.4534 25.3919 24.1892 24.7908 24.7909C24.1897 25.3925 23.4539 25.6931 22.5833 25.6925M11.1417 25.2759V19.8909H16.525V25.2759H11.1417ZM22.5833 24.8592C23.22 24.8592 23.7586 24.6392 24.1992 24.1992C24.6397 23.7592 24.8597 23.2206 24.8592 22.5834C24.8586 21.9461 24.6386 21.4075 24.1992 20.9675C23.7597 20.5275 23.2211 20.3075 22.5833 20.3075C21.9455 20.3075 21.4069 20.5275 20.9675 20.9675C20.5281 21.4075 20.3081 21.9461 20.3075 22.5834C20.3069 23.2206 20.5269 23.7592 20.9675 24.1992C21.4081 24.6392 21.9467 24.8592 22.5833 24.8592ZM11.975 24.4425H15.6917V20.7242H11.975V24.4425ZM16.0225 15.6925H19.9775L18 12.5225L16.0225 15.6925Z" fill="#303564"/>
</svg>
