<svg width="35" height="35" viewBox="0 0 35 35" fill="none" xmlns="http://www.w3.org/2000/svg">
<rect width="35" height="35" rx="5" fill="#EFF0F4"/>
<path d="M19.7998 21.5475L25.8665 28L28 25.6771L21.9333 19.2245L19.7998 21.5475ZM23.5612 15.9553C23.1668 15.9553 22.7422 15.9015 22.4085 15.7509L10.8918 27.9462L8.75834 25.6771L16.2508 17.7189L14.4611 15.8047L13.7331 16.5575L12.2669 15.0411V18.1169L11.5592 18.8697L8 15.0411L8.70779 14.2883H11.549L10.1335 12.772L13.7331 8.94349C14.0127 8.64447 14.3451 8.40719 14.7113 8.24527C15.0774 8.08335 15.47 8 15.8665 8C16.2631 8 16.6557 8.08335 17.0218 8.24527C17.3879 8.40719 17.7204 8.64447 18 8.94349L15.8665 11.2664L17.2922 12.772L16.5743 13.5355L18.3842 15.4498L20.2245 13.428C20.0829 13.0731 20.0222 12.6214 20.0222 12.2235C20.0182 11.727 20.1069 11.2346 20.2831 10.7748C20.4592 10.315 20.7194 9.89698 21.0486 9.54489C21.3777 9.1928 21.7693 8.91368 22.2006 8.72368C22.6319 8.53369 23.0944 8.4366 23.5612 8.43804C24.1577 8.43804 24.6835 8.5886 25.1587 8.88972L22.4591 11.7611L23.9757 13.3742L26.6754 10.5029C26.9585 11.0083 27.1001 11.546 27.1001 12.2235C27.1001 14.2883 25.5329 15.9553 23.5612 15.9553Z" stroke="#303564" stroke-width="0.8"/>
</svg>
