<svg width="35" height="35" viewBox="0 0 35 35" fill="none" xmlns="http://www.w3.org/2000/svg">
<rect width="35" height="35" rx="5" fill="#EFF0F4"/>
<path d="M25.6438 19.4481H21.5172C20.9704 19.448 20.4458 19.6646 20.0582 20.0504C19.6707 20.4362 19.4517 20.9597 19.4491 21.5066V25.6332C19.4491 26.1817 19.667 26.7077 20.0548 27.0956C20.4427 27.4834 20.9687 27.7013 21.5172 27.7013H25.6438C26.1905 27.6985 26.7138 27.4794 27.0993 27.0918C27.4849 26.7043 27.7013 26.1798 27.7013 25.6332V21.5066C27.7013 20.9609 27.4845 20.4376 27.0987 20.0517C26.7128 19.6659 26.1895 19.4491 25.6438 19.4491M14.1841 19.4481H10.0575C9.51071 19.4511 8.98741 19.6705 8.6019 20.0582C8.21638 20.4459 7.99999 20.9705 8 21.5172V25.6438C8 26.1895 8.21677 26.7128 8.60261 27.0987C8.98846 27.4845 9.51178 27.7013 10.0575 27.7013H14.1841C14.7307 27.7013 15.2552 27.4849 15.6427 27.0993C16.0302 26.7138 16.2494 26.1905 16.2522 25.6438V21.5172C16.2522 20.9687 16.0343 20.4427 15.6464 20.0548C15.2586 19.667 14.7326 19.4491 14.1841 19.4491M14.1841 8H10.0575C9.78727 8 9.51972 8.05322 9.2701 8.15661C9.02048 8.26001 8.79367 8.41156 8.60261 8.60261C8.41156 8.79367 8.26001 9.02048 8.15661 9.2701C8.05322 9.51972 8 9.78727 8 10.0575V14.1841C7.99999 14.7307 8.21642 15.2552 8.60196 15.6427C8.98751 16.0302 9.51081 16.2494 10.0575 16.2522H14.1841C14.7326 16.2522 15.2586 16.0343 15.6464 15.6464C16.0343 15.2586 16.2522 14.7326 16.2522 14.1841V10.0575C16.2494 9.51081 16.0302 8.98751 15.6427 8.60196C15.2552 8.21642 14.7307 7.99999 14.1841 8ZM25.6438 8H21.5172C20.9706 7.99999 20.4461 8.21642 20.0586 8.60196C19.6711 8.98751 19.4519 9.51081 19.4491 10.0575V14.1841C19.4494 14.7325 19.6674 15.2584 20.0552 15.6461C20.4429 16.0339 20.9688 16.2519 21.5172 16.2522H25.6438C26.1905 16.2494 26.7138 16.0302 27.0993 15.6427C27.4849 15.2552 27.7013 14.7307 27.7013 14.1841V10.0575C27.7013 9.51178 27.4845 8.98846 27.0987 8.60261C26.7128 8.21677 26.1895 8 25.6438 8Z" stroke="#303564" stroke-linecap="round" stroke-linejoin="round"/>
</svg>
