<svg width="894" height="1012" viewBox="0 0 894 1012" fill="none" xmlns="http://www.w3.org/2000/svg">
<mask id="mask0_838_125" style="mask-type:alpha" maskUnits="userSpaceOnUse" x="-100" y="-97" width="994" height="1125">
<path d="M894 -3C894 -3 806 159 740 305C674 451 828 469 842 577C856 685 688 717 726 877C757.667 1010.33 817.111 1025.61 836.046 1027H842C842 1027 839.833 1027.28 836.046 1027H-100L-78 -97L894 -3Z" fill="#FCFCFC"/>
</mask>
<g mask="url(#mask0_838_125)">
<rect x="-19" y="-1" width="1442" height="1020" fill="#303564"/>
<mask id="path-3-outside-1_838_125" maskUnits="userSpaceOnUse" x="218.419" y="442" width="137" height="103" fill="black">
<rect fill="white" x="218.419" y="442" width="137" height="103"/>
<path d="M307.107 536.909V543H220.419V536.909H232.601V443.989H300.591V463.395H254.698V484.783H298.325V504.189H254.698V536.909H307.107ZM353.61 536.909V543H307.15V536.909H319.332V443.989H341.428V536.909H353.61Z"/>
</mask>
<path d="M307.107 536.909V543H220.419V536.909H232.601V443.989H300.591V463.395H254.698V484.783H298.325V504.189H254.698V536.909H307.107ZM353.61 536.909V543H307.15V536.909H319.332V443.989H341.428V536.909H353.61Z" fill="#F5F5F5"/>
<path d="M307.107 536.909H308.877V535.139H307.107V536.909ZM307.107 543V544.771H308.877V543H307.107ZM220.419 543H218.649V544.771H220.419V543ZM220.419 536.909V535.139H218.649V536.909H220.419ZM232.601 536.909V538.68H234.372V536.909H232.601ZM232.601 443.989V442.219H230.83V443.989H232.601ZM300.591 443.989H302.362V442.219H300.591V443.989ZM300.591 463.395V465.165H302.362V463.395H300.591ZM254.698 463.395V461.624H252.927V463.395H254.698ZM254.698 484.783H252.927V486.554H254.698V484.783ZM298.325 484.783H300.095V483.013H298.325V484.783ZM298.325 504.189V505.96H300.095V504.189H298.325ZM254.698 504.189V502.418H252.927V504.189H254.698ZM254.698 536.909H252.927V538.68H254.698V536.909ZM305.336 536.909V543H308.877V536.909H305.336ZM307.107 541.229H220.419V544.771H307.107V541.229ZM222.19 543V536.909H218.649V543H222.19ZM220.419 538.68H232.601V535.139H220.419V538.68ZM234.372 536.909V443.989H230.83V536.909H234.372ZM232.601 445.76H300.591V442.219H232.601V445.76ZM298.821 443.989V463.395H302.362V443.989H298.821ZM300.591 461.624H254.698V465.165H300.591V461.624ZM252.927 463.395V484.783H256.468V463.395H252.927ZM254.698 486.554H298.325V483.013H254.698V486.554ZM296.554 484.783V504.189H300.095V484.783H296.554ZM298.325 502.418H254.698V505.96H298.325V502.418ZM252.927 504.189V536.909H256.468V504.189H252.927ZM254.698 538.68H307.107V535.139H254.698V538.68ZM353.61 536.909H355.381V535.139H353.61V536.909ZM353.61 543V544.771H355.381V543H353.61ZM307.15 543H305.379V544.771H307.15V543ZM307.15 536.909V535.139H305.379V536.909H307.15ZM319.332 536.909V538.68H321.102V536.909H319.332ZM319.332 443.989V442.219H317.561V443.989H319.332ZM341.428 443.989H343.199V442.219H341.428V443.989ZM341.428 536.909H339.658V538.68H341.428V536.909ZM351.839 536.909V543H355.381V536.909H351.839ZM353.61 541.229H307.15V544.771H353.61V541.229ZM308.921 543V536.909H305.379V543H308.921ZM307.15 538.68H319.332V535.139H307.15V538.68ZM321.102 536.909V443.989H317.561V536.909H321.102ZM319.332 445.76H341.428V442.219H319.332V445.76ZM339.658 443.989V536.909H343.199V443.989H339.658ZM341.428 538.68H353.61V535.139H341.428V538.68Z" fill="#2E353A" mask="url(#path-3-outside-1_838_125)"/>
<mask id="path-5-outside-2_838_125" maskUnits="userSpaceOnUse" x="439.512" y="442" width="114" height="103" fill="black">
<rect fill="white" x="439.512" y="442" width="114" height="103"/>
<path d="M455.694 536.909V443.989H493.23C508.622 443.989 519.576 446.586 526.092 451.78C532.702 456.974 536.007 465.331 536.007 476.851C536.007 492.716 529.728 502.961 517.168 507.588L537.849 536.909H551.163V543H515.044L493.088 511.413H477.791V543H441.954V536.909H455.694ZM493.938 492.291C501.493 492.291 506.639 491.063 509.378 488.608C512.116 486.153 513.485 482.281 513.485 476.993C513.485 471.61 512.069 467.928 509.236 465.944C506.403 463.961 501.445 462.97 494.363 462.97H477.791V492.291H493.938Z"/>
</mask>
<path d="M455.694 536.909V443.989H493.23C508.622 443.989 519.576 446.586 526.092 451.78C532.702 456.974 536.007 465.331 536.007 476.851C536.007 492.716 529.728 502.961 517.168 507.588L537.849 536.909H551.163V543H515.044L493.088 511.413H477.791V543H441.954V536.909H455.694ZM493.938 492.291C501.493 492.291 506.639 491.063 509.378 488.608C512.116 486.153 513.485 482.281 513.485 476.993C513.485 471.61 512.069 467.928 509.236 465.944C506.403 463.961 501.445 462.97 494.363 462.97H477.791V492.291H493.938Z" fill="#F5F5F5"/>
<path d="M455.694 536.909V538.68H457.464V536.909H455.694ZM455.694 443.989V442.219H453.923V443.989H455.694ZM526.092 451.78L524.988 453.164L524.998 453.172L526.092 451.78ZM517.168 507.588L516.556 505.927L514.392 506.724L515.721 508.609L517.168 507.588ZM537.849 536.909L536.402 537.93L536.931 538.68H537.849V536.909ZM551.163 536.909H552.934V535.139H551.163V536.909ZM551.163 543V544.771H552.934V543H551.163ZM515.044 543L513.59 544.011L514.118 544.771H515.044V543ZM493.088 511.413L494.542 510.402L494.014 509.642H493.088V511.413ZM477.791 511.413V509.642H476.02V511.413H477.791ZM477.791 543V544.771H479.561V543H477.791ZM441.954 543H440.184V544.771H441.954V543ZM441.954 536.909V535.139H440.184V536.909H441.954ZM509.378 488.608L510.56 489.926L509.378 488.608ZM509.236 465.944L510.251 464.494L509.236 465.944ZM477.791 462.97V461.199H476.02V462.97H477.791ZM477.791 492.291H476.02V494.061H477.791V492.291ZM457.464 536.909V443.989H453.923V536.909H457.464ZM455.694 445.76H493.23V442.219H455.694V445.76ZM493.23 445.76C508.519 445.76 518.959 448.358 524.988 453.164L527.196 450.395C520.194 444.814 508.726 442.219 493.23 442.219V445.76ZM524.998 453.172C531.037 457.917 534.237 465.66 534.237 476.851H537.778C537.778 465.002 534.367 456.03 527.186 450.388L524.998 453.172ZM534.237 476.851C534.237 484.559 532.711 490.74 529.788 495.509C526.88 500.253 522.507 503.734 516.556 505.927L517.78 509.25C524.388 506.815 529.436 502.86 532.807 497.359C536.164 491.882 537.778 485.008 537.778 476.851H534.237ZM515.721 508.609L536.402 537.93L539.295 535.889L518.615 506.568L515.721 508.609ZM537.849 538.68H551.163V535.139H537.849V538.68ZM549.393 536.909V543H552.934V536.909H549.393ZM551.163 541.229H515.044V544.771H551.163V541.229ZM516.497 541.989L494.542 510.402L491.634 512.423L513.59 544.011L516.497 541.989ZM493.088 509.642H477.791V513.183H493.088V509.642ZM476.02 511.413V543H479.561V511.413H476.02ZM477.791 541.229H441.954V544.771H477.791V541.229ZM443.725 543V536.909H440.184V543H443.725ZM441.954 538.68H455.694V535.139H441.954V538.68ZM493.938 494.061C501.541 494.061 507.292 492.856 510.56 489.926L508.196 487.29C505.986 489.271 501.444 490.52 493.938 490.52V494.061ZM510.56 489.926C513.813 487.01 515.256 482.559 515.256 476.993H511.715C511.715 482.003 510.42 485.296 508.196 487.29L510.56 489.926ZM515.256 476.993C515.256 471.365 513.777 466.962 510.251 464.494L508.221 467.395C510.361 468.893 511.715 471.856 511.715 476.993H515.256ZM510.251 464.494C506.94 462.176 501.496 461.199 494.363 461.199V464.74C501.395 464.74 505.866 465.747 508.221 467.395L510.251 464.494ZM494.363 461.199H477.791V464.74H494.363V461.199ZM476.02 462.97V492.291H479.561V462.97H476.02ZM477.791 494.061H493.938V490.52H477.791V494.061Z" fill="#2E353A" mask="url(#path-5-outside-2_838_125)"/>
<path d="M446.304 476.151C448.003 474.448 449.258 472.355 449.958 470.054C450.659 467.753 450.783 465.315 450.32 462.955L441.117 472.159C440.594 472.679 439.886 472.971 439.149 472.971C438.411 472.971 437.704 472.679 437.181 472.159L429.531 464.509C429.272 464.25 429.066 463.943 428.926 463.604C428.785 463.266 428.713 462.904 428.713 462.537C428.713 462.171 428.785 461.809 428.926 461.47C429.066 461.132 429.272 460.825 429.531 460.566L438.728 451.369C436.15 450.866 433.485 451.063 431.01 451.941C428.535 452.819 426.341 454.345 424.656 456.36C422.972 458.375 421.859 460.805 421.434 463.397C421.009 465.988 421.288 468.647 422.24 471.094L398.492 494.297L396.202 492.001L399.916 488.288C400.105 488.094 400.212 487.834 400.212 487.563C400.212 487.293 400.105 487.033 399.916 486.839L397.019 483.943C396.828 483.752 396.568 483.645 396.298 483.645C396.028 483.645 395.768 483.752 395.577 483.943L394.129 485.391L390.991 482.259L392.198 481.052C392.453 480.796 392.597 480.449 392.597 480.087C392.597 479.725 392.453 479.378 392.198 479.121L366.284 453.207C365.666 452.589 364.933 452.098 364.126 451.764C363.319 451.429 362.454 451.257 361.58 451.257C360.706 451.257 359.841 451.429 359.034 451.764C358.227 452.098 357.493 452.589 356.876 453.207L354.227 455.856C353.609 456.473 353.119 457.206 352.784 458.012C352.449 458.819 352.277 459.684 352.277 460.557C352.277 461.43 352.449 462.295 352.784 463.101C353.119 463.908 353.609 464.641 354.227 465.258L380.141 491.178C380.398 491.433 380.745 491.577 381.107 491.577C381.469 491.577 381.816 491.433 382.072 491.178L383.279 489.971L386.411 493.109L384.969 494.551C384.873 494.646 384.798 494.759 384.746 494.883C384.694 495.007 384.668 495.141 384.668 495.275C384.668 495.41 384.694 495.543 384.746 495.667C384.798 495.792 384.873 495.904 384.969 495.999L387.859 498.896C388.052 499.086 388.312 499.192 388.583 499.192C388.854 499.192 389.114 499.086 389.307 498.896L393.021 495.182L395.274 497.435L375.58 516.622C373.132 515.67 370.474 515.392 367.882 515.817C365.291 516.242 362.86 517.355 360.845 519.039C358.83 520.723 357.303 522.917 356.424 525.392C355.546 527.866 355.347 530.532 355.849 533.11L365.052 523.912C365.311 523.653 365.618 523.448 365.956 523.307C366.294 523.167 366.657 523.095 367.023 523.095C367.389 523.095 367.752 523.167 368.09 523.307C368.429 523.448 368.736 523.653 368.995 523.912L376.669 531.513C376.928 531.771 377.134 532.079 377.274 532.417C377.414 532.755 377.487 533.118 377.487 533.484C377.487 533.85 377.414 534.213 377.274 534.551C377.134 534.889 376.928 535.197 376.669 535.455L367.472 544.652C370.05 545.155 372.715 544.957 375.19 544.079C377.665 543.201 379.859 541.675 381.544 539.661C383.228 537.646 384.342 535.216 384.768 532.625C385.194 530.034 384.917 527.375 383.966 524.928L403.66 505.741L430.515 532.565C430.129 533.56 430.041 534.645 430.26 535.689C430.48 536.733 430.999 537.69 431.753 538.445L438.233 544.925L446.006 537.145L439.526 530.671C438.772 529.917 437.814 529.398 436.77 529.179C435.727 528.959 434.641 529.047 433.647 529.433L406.835 502.622L430.608 479.443C433.262 480.476 436.158 480.714 438.945 480.13C441.732 479.545 444.289 478.162 446.304 476.151Z" fill="#2E353A" stroke="#2E353A" stroke-width="0.885289" stroke-linecap="round" stroke-linejoin="round"/>
<path d="M382.332 521.629L428.955 476.144C431.404 477.098 434.065 477.377 436.658 476.951C439.252 476.526 441.683 475.411 443.699 473.725C445.715 472.038 447.24 469.841 448.117 467.363C448.993 464.885 449.187 462.217 448.68 459.638L439.483 468.835C439.224 469.094 438.917 469.3 438.579 469.44C438.24 469.58 437.878 469.653 437.512 469.653C437.145 469.653 436.783 469.58 436.445 469.44C436.106 469.3 435.799 469.094 435.54 468.835L427.891 461.185C427.632 460.927 427.426 460.62 427.286 460.283C427.146 459.945 427.073 459.583 427.073 459.217C427.073 458.851 427.146 458.489 427.286 458.151C427.426 457.814 427.632 457.507 427.891 457.249L437.088 448.046C434.509 447.543 431.842 447.742 429.367 448.622C426.891 449.501 424.697 451.03 423.014 453.047C421.33 455.064 420.219 457.496 419.797 460.09C419.374 462.683 419.656 465.342 420.612 467.789L373.989 513.273C371.542 512.321 368.883 512.043 366.292 512.468C363.7 512.893 361.27 514.005 359.255 515.69C357.24 517.374 355.714 519.568 354.836 522.043C353.958 524.518 353.761 527.184 354.264 529.761L363.461 520.564C363.72 520.305 364.027 520.099 364.365 519.959C364.704 519.819 365.066 519.747 365.432 519.747C365.799 519.747 366.161 519.819 366.499 519.959C366.838 520.099 367.145 520.305 367.404 520.564L375.053 528.214C375.312 528.472 375.518 528.779 375.658 529.117C375.798 529.454 375.871 529.816 375.871 530.182C375.871 530.548 375.798 530.91 375.658 531.248C375.518 531.585 375.312 531.892 375.053 532.15L365.838 541.335C368.415 541.838 371.081 541.64 373.556 540.762C376.031 539.884 378.225 538.358 379.909 536.343C381.594 534.329 382.707 531.899 383.134 529.308C383.56 526.716 383.283 524.058 382.332 521.61V521.629Z" fill="white" stroke="#2E353A" stroke-width="0.885289" stroke-miterlimit="10"/>
<path d="M378.742 516.857C378.386 516.499 378.186 516.015 378.186 515.511C378.186 515.006 378.386 514.522 378.742 514.165L420.662 473.384C421.02 473.027 421.505 472.827 422.011 472.827C422.517 472.827 423.002 473.027 423.36 473.384C423.717 473.742 423.917 474.228 423.917 474.733C423.917 475.239 423.717 475.724 423.36 476.083L381.441 516.857C381.082 517.214 380.597 517.414 380.091 517.414C379.586 517.414 379.101 517.214 378.742 516.857Z" fill="white" stroke="#2E353A" stroke-width="0.885289" stroke-miterlimit="10"/>
<path d="M391.175 485.295L388.042 488.428L433.254 533.641L436.388 530.507L391.175 485.295Z" fill="white" stroke="#2E353A" stroke-width="0.885289" stroke-miterlimit="10"/>
<path d="M444.366 533.846L436.593 541.62L430.113 535.146C429.081 534.114 428.502 532.715 428.502 531.256C428.502 529.797 429.081 528.398 430.113 527.366C430.623 526.856 431.229 526.451 431.896 526.174C432.563 525.898 433.278 525.756 434 525.756C434.721 525.756 435.436 525.898 436.103 526.174C436.77 526.451 437.376 526.856 437.886 527.366L444.366 533.846Z" fill="white" stroke="#2E353A" stroke-width="0.885289" stroke-miterlimit="10"/>
<path d="M386.957 476.496L379.241 484.212L385.508 490.479L393.224 482.763L386.957 476.496Z" fill="white" stroke="#2E353A" stroke-width="0.885289" stroke-miterlimit="10"/>
<path d="M352.601 452.507L355.253 449.855C355.871 449.237 356.603 448.748 357.41 448.414C358.216 448.08 359.081 447.908 359.954 447.908C360.827 447.908 361.691 448.08 362.497 448.414C363.304 448.748 364.037 449.237 364.654 449.855L390.571 475.772C390.826 476.027 390.97 476.373 390.97 476.735C390.97 477.096 390.826 477.442 390.571 477.697L380.444 487.824C380.189 488.08 379.842 488.223 379.481 488.223C379.12 488.223 378.774 488.08 378.518 487.824L352.601 461.907C351.355 460.661 350.654 458.97 350.654 457.207C350.654 455.444 351.355 453.753 352.601 452.507Z" fill="white" stroke="#2E353A" stroke-width="0.885289" stroke-miterlimit="10"/>
<path d="M393.946 480.599L383.337 491.208C382.938 491.606 382.938 492.253 383.337 492.652L386.234 495.549C386.633 495.948 387.28 495.948 387.679 495.549L398.287 484.941C398.686 484.542 398.686 483.895 398.287 483.496L395.39 480.599C394.991 480.2 394.344 480.2 393.946 480.599Z" fill="white" stroke="#2E353A" stroke-width="0.885289" stroke-miterlimit="10"/>
<path d="M381.892 483.974L379.763 486.109L354.313 460.659C354.03 460.376 353.871 459.992 353.871 459.591C353.871 459.191 354.03 458.807 354.313 458.524C354.453 458.383 354.62 458.271 354.803 458.195C354.986 458.118 355.183 458.079 355.381 458.079C355.58 458.079 355.776 458.118 355.959 458.195C356.143 458.271 356.309 458.383 356.449 458.524L381.892 483.974Z" fill="white" stroke="#2E353A" stroke-width="0.885289" stroke-miterlimit="10"/>
<path d="M385.526 480.341L383.384 482.476L357.934 457.026C357.651 456.743 357.492 456.359 357.492 455.958C357.492 455.558 357.651 455.174 357.934 454.891C358.074 454.75 358.24 454.638 358.424 454.562C358.607 454.485 358.803 454.446 359.002 454.446C359.2 454.446 359.397 454.485 359.58 454.562C359.763 454.638 359.93 454.75 360.07 454.891L385.526 480.341Z" fill="white" stroke="#2E353A" stroke-width="0.885289" stroke-miterlimit="10"/>
<path d="M389.159 476.708L387.017 478.824L361.567 453.393C361.284 453.11 361.125 452.726 361.125 452.325C361.125 451.925 361.284 451.541 361.567 451.258C361.707 451.117 361.873 451.005 362.057 450.929C362.24 450.852 362.436 450.813 362.635 450.813C362.833 450.813 363.03 450.852 363.213 450.929C363.396 451.005 363.563 451.117 363.702 451.258L389.159 476.708Z" fill="white" stroke="#2E353A" stroke-width="0.885289" stroke-miterlimit="10"/>
<g filter="url(#filter0_d_838_125)">
<path d="M192.651 610.335V602.415L193.169 603.816L184.122 589.013H186.529L194.478 602.019H193.199L201.149 589.013H203.403L194.357 603.816L194.874 602.415V610.335H192.651ZM215.297 610.517C213.693 610.517 212.2 610.253 210.819 609.725C209.459 609.177 208.271 608.416 207.256 607.441C206.261 606.446 205.479 605.299 204.91 603.999C204.362 602.679 204.088 601.237 204.088 599.674C204.088 598.11 204.362 596.679 204.91 595.379C205.479 594.059 206.261 592.912 207.256 591.937C208.271 590.942 209.459 590.181 210.819 589.653C212.18 589.105 213.672 588.83 215.297 588.83C216.901 588.83 218.383 589.105 219.744 589.653C221.104 590.181 222.282 590.932 223.277 591.907C224.292 592.882 225.074 594.029 225.623 595.349C226.191 596.669 226.475 598.11 226.475 599.674C226.475 601.237 226.191 602.679 225.623 603.999C225.074 605.319 224.292 606.466 223.277 607.441C222.282 608.416 221.104 609.177 219.744 609.725C218.383 610.253 216.901 610.517 215.297 610.517ZM215.297 608.507C216.576 608.507 217.754 608.294 218.83 607.867C219.927 607.421 220.871 606.801 221.663 606.009C222.475 605.197 223.105 604.263 223.551 603.207C223.998 602.131 224.221 600.953 224.221 599.674C224.221 598.395 223.998 597.227 223.551 596.171C223.105 595.095 222.475 594.161 221.663 593.369C220.871 592.557 219.927 591.937 218.83 591.511C217.754 591.064 216.576 590.841 215.297 590.841C214.018 590.841 212.83 591.064 211.733 591.511C210.637 591.937 209.682 592.557 208.87 593.369C208.078 594.161 207.449 595.095 206.982 596.171C206.535 597.227 206.311 598.395 206.311 599.674C206.311 600.933 206.535 602.1 206.982 603.177C207.449 604.253 208.078 605.197 208.87 606.009C209.682 606.801 210.637 607.421 211.733 607.867C212.83 608.294 214.018 608.507 215.297 608.507ZM240.117 610.517C237.396 610.517 235.254 609.736 233.69 608.172C232.127 606.608 231.345 604.294 231.345 601.227V589.013H233.599V601.136C233.599 603.654 234.167 605.512 235.304 606.71C236.442 607.908 238.046 608.507 240.117 608.507C242.208 608.507 243.823 607.908 244.96 606.71C246.097 605.512 246.666 603.654 246.666 601.136V589.013H248.859V601.227C248.859 604.294 248.077 606.608 246.513 608.172C244.97 609.736 242.838 610.517 240.117 610.517ZM255.651 610.335V589.013H263.631C265.438 589.013 266.992 589.308 268.291 589.897C269.591 590.465 270.586 591.298 271.276 592.394C271.987 593.47 272.342 594.78 272.342 596.323C272.342 597.826 271.987 599.126 271.276 600.222C270.586 601.298 269.591 602.131 268.291 602.72C266.992 603.288 265.438 603.573 263.631 603.573H256.9L257.905 602.537V610.335H255.651ZM270.21 610.335L264.728 602.598H267.164L272.677 610.335H270.21ZM257.905 602.72L256.9 601.654H263.57C265.702 601.654 267.317 601.187 268.413 600.253C269.53 599.319 270.088 598.009 270.088 596.323C270.088 594.618 269.53 593.298 268.413 592.364C267.317 591.43 265.702 590.963 263.57 590.963H256.9L257.905 589.897V602.72ZM287.644 599.339H298.914V601.288H287.644V599.339ZM287.888 610.335H285.634V589.013H300.254V590.963H287.888V610.335ZM304.909 610.335V589.013H307.163V610.335H304.909ZM311.146 610.335L319.887 598.516V600.253L311.663 589.013H314.252L321.167 598.395L320.161 598.425L327.076 589.013H329.512L321.38 600.1V598.516L330.091 610.335H327.472L320.101 600.314H321.045L313.735 610.335H311.146ZM340.294 614.782L341.634 609.147L341.878 610.456C341.411 610.456 341.015 610.304 340.69 609.999C340.385 609.695 340.233 609.299 340.233 608.812C340.233 608.324 340.385 607.928 340.69 607.624C341.015 607.319 341.401 607.167 341.847 607.167C342.314 607.167 342.69 607.329 342.974 607.654C343.279 607.979 343.431 608.365 343.431 608.812C343.431 608.974 343.421 609.136 343.401 609.299C343.381 609.461 343.34 609.644 343.279 609.847C343.218 610.05 343.137 610.294 343.035 610.578L341.756 614.782H340.294ZM365.808 610.517C364.203 610.517 362.711 610.253 361.33 609.725C359.97 609.177 358.782 608.416 357.766 607.441C356.771 606.446 355.99 605.299 355.421 603.999C354.873 602.679 354.599 601.237 354.599 599.674C354.599 598.11 354.873 596.679 355.421 595.379C355.99 594.059 356.771 592.912 357.766 591.937C358.782 590.942 359.97 590.181 361.33 589.653C362.691 589.105 364.183 588.83 365.808 588.83C367.412 588.83 368.894 589.105 370.255 589.653C371.615 590.181 372.793 590.932 373.788 591.907C374.803 592.882 375.585 594.029 376.133 595.349C376.702 596.669 376.986 598.11 376.986 599.674C376.986 601.237 376.702 602.679 376.133 603.999C375.585 605.319 374.803 606.466 373.788 607.441C372.793 608.416 371.615 609.177 370.255 609.725C368.894 610.253 367.412 610.517 365.808 610.517ZM365.808 608.507C367.087 608.507 368.265 608.294 369.341 607.867C370.437 607.421 371.382 606.801 372.173 606.009C372.986 605.197 373.615 604.263 374.062 603.207C374.509 602.131 374.732 600.953 374.732 599.674C374.732 598.395 374.509 597.227 374.062 596.171C373.615 595.095 372.986 594.161 372.173 593.369C371.382 592.557 370.437 591.937 369.341 591.511C368.265 591.064 367.087 590.841 365.808 590.841C364.528 590.841 363.34 591.064 362.244 591.511C361.147 591.937 360.193 592.557 359.381 593.369C358.589 594.161 357.959 595.095 357.492 596.171C357.045 597.227 356.822 598.395 356.822 599.674C356.822 600.933 357.045 602.1 357.492 603.177C357.959 604.253 358.589 605.197 359.381 606.009C360.193 606.801 361.147 607.421 362.244 607.867C363.34 608.294 364.528 608.507 365.808 608.507ZM390.628 610.517C387.907 610.517 385.764 609.736 384.201 608.172C382.637 606.608 381.855 604.294 381.855 601.227V589.013H384.109V601.136C384.109 603.654 384.678 605.512 385.815 606.71C386.952 607.908 388.556 608.507 390.628 608.507C392.719 608.507 394.333 607.908 395.471 606.71C396.608 605.512 397.176 603.654 397.176 601.136V589.013H399.369V601.227C399.369 604.294 398.588 606.608 397.024 608.172C395.481 609.736 393.349 610.517 390.628 610.517ZM406.161 610.335V589.013H414.142C415.949 589.013 417.502 589.308 418.802 589.897C420.102 590.465 421.097 591.298 421.787 592.394C422.498 593.47 422.853 594.78 422.853 596.323C422.853 597.826 422.498 599.126 421.787 600.222C421.097 601.298 420.102 602.131 418.802 602.72C417.502 603.288 415.949 603.573 414.142 603.573H407.41L408.415 602.537V610.335H406.161ZM420.721 610.335L415.238 602.598H417.675L423.188 610.335H420.721ZM408.415 602.72L407.41 601.654H414.081C416.213 601.654 417.827 601.187 418.924 600.253C420.041 599.319 420.599 598.009 420.599 596.323C420.599 594.618 420.041 593.298 418.924 592.364C417.827 591.43 416.213 590.963 414.081 590.963H407.41L408.415 589.897V602.72ZM438.155 598.547H449.425V600.466H438.155V598.547ZM438.399 608.385H451.222V610.335H436.145V589.013H450.765V590.963H438.399V608.385ZM453.298 610.335L462.04 598.516V600.253L453.816 589.013H456.405L463.319 598.395L462.314 598.425L469.228 589.013H471.665L463.532 600.1V598.516L472.243 610.335H469.624L462.253 600.314H463.197L455.887 610.335H453.298ZM475.498 610.335V589.013H483.478C485.285 589.013 486.838 589.308 488.138 589.897C489.438 590.465 490.433 591.298 491.123 592.394C491.834 593.47 492.189 594.78 492.189 596.323C492.189 597.826 491.834 599.126 491.123 600.222C490.433 601.298 489.438 602.131 488.138 602.72C486.838 603.309 485.285 603.603 483.478 603.603H476.746L477.751 602.537V610.335H475.498ZM477.751 602.72L476.746 601.623H483.417C485.549 601.623 487.163 601.166 488.26 600.253C489.377 599.319 489.935 598.009 489.935 596.323C489.935 594.618 489.377 593.298 488.26 592.364C487.163 591.43 485.549 590.963 483.417 590.963H476.746L477.751 589.897V602.72ZM499.073 598.547H510.343V600.466H499.073V598.547ZM499.317 608.385H512.14V610.335H497.063V589.013H511.683V590.963H499.317V608.385ZM517.438 610.335V589.013H525.418C527.226 589.013 528.779 589.308 530.079 589.897C531.378 590.465 532.373 591.298 533.064 592.394C533.774 593.47 534.13 594.78 534.13 596.323C534.13 597.826 533.774 599.126 533.064 600.222C532.373 601.298 531.378 602.131 530.079 602.72C528.779 603.288 527.226 603.573 525.418 603.573H518.687L519.692 602.537V610.335H517.438ZM531.998 610.335L526.515 602.598H528.952L534.465 610.335H531.998ZM519.692 602.72L518.687 601.654H525.358C527.49 601.654 529.104 601.187 530.201 600.253C531.317 599.319 531.876 598.009 531.876 596.323C531.876 594.618 531.317 593.298 530.201 592.364C529.104 591.43 527.49 590.963 525.358 590.963H518.687L519.692 589.897V602.72ZM543.295 610.335V590.963H535.802V589.013H553.042V590.963H545.549V610.335H543.295ZM556.642 610.335V589.013H558.896V610.335H556.642ZM571.712 610.517C570.128 610.517 568.605 610.263 567.143 609.756C565.702 609.228 564.585 608.558 563.793 607.746L564.676 606.009C565.428 606.74 566.433 607.36 567.692 607.867C568.971 608.355 570.311 608.598 571.712 608.598C573.052 608.598 574.139 608.436 574.971 608.111C575.824 607.766 576.444 607.309 576.829 606.74C577.235 606.172 577.439 605.542 577.439 604.852C577.439 604.019 577.195 603.349 576.708 602.842C576.24 602.334 575.621 601.938 574.85 601.654C574.078 601.349 573.225 601.085 572.291 600.862C571.357 600.638 570.423 600.405 569.489 600.161C568.555 599.897 567.692 599.552 566.9 599.126C566.128 598.699 565.499 598.141 565.011 597.45C564.544 596.74 564.311 595.816 564.311 594.679C564.311 593.623 564.585 592.658 565.133 591.785C565.702 590.892 566.565 590.181 567.722 589.653C568.88 589.105 570.362 588.83 572.169 588.83C573.367 588.83 574.555 589.003 575.733 589.348C576.911 589.673 577.926 590.13 578.779 590.719L578.017 592.516C577.103 591.907 576.129 591.46 575.093 591.176C574.078 590.892 573.093 590.749 572.139 590.749C570.859 590.749 569.803 590.922 568.971 591.267C568.138 591.612 567.519 592.079 567.113 592.668C566.727 593.237 566.534 593.887 566.534 594.618C566.534 595.45 566.768 596.12 567.235 596.628C567.722 597.136 568.352 597.532 569.123 597.816C569.915 598.1 570.778 598.354 571.712 598.577C572.646 598.801 573.57 599.044 574.484 599.308C575.418 599.572 576.271 599.918 577.043 600.344C577.835 600.75 578.464 601.298 578.931 601.989C579.418 602.679 579.662 603.583 579.662 604.7C579.662 605.735 579.378 606.7 578.809 607.593C578.241 608.466 577.367 609.177 576.19 609.725C575.032 610.253 573.54 610.517 571.712 610.517ZM586.583 598.547H597.853V600.466H586.583V598.547ZM586.827 608.385H599.65V610.335H584.573V589.013H599.193V590.963H586.827V608.385ZM605.002 610.487C604.556 610.487 604.17 610.324 603.845 609.999C603.54 609.675 603.388 609.279 603.388 608.812C603.388 608.324 603.54 607.928 603.845 607.624C604.17 607.319 604.556 607.167 605.002 607.167C605.449 607.167 605.825 607.319 606.129 607.624C606.454 607.928 606.617 608.324 606.617 608.812C606.617 609.279 606.454 609.675 606.129 609.999C605.825 610.324 605.449 610.487 605.002 610.487Z" fill="white"/>
</g>
</g>
<defs>
<filter id="filter0_d_838_125" x="181.686" y="588.83" width="427.368" height="32.0429" filterUnits="userSpaceOnUse" color-interpolation-filters="sRGB">
<feFlood flood-opacity="0" result="BackgroundImageFix"/>
<feColorMatrix in="SourceAlpha" type="matrix" values="0 0 0 0 0 0 0 0 0 0 0 0 0 0 0 0 0 0 127 0" result="hardAlpha"/>
<feOffset dy="3.65509"/>
<feGaussianBlur stdDeviation="1.21836"/>
<feComposite in2="hardAlpha" operator="out"/>
<feColorMatrix type="matrix" values="0 0 0 0 0 0 0 0 0 0 0 0 0 0 0 0 0 0 0.25 0"/>
<feBlend mode="normal" in2="BackgroundImageFix" result="effect1_dropShadow_838_125"/>
<feBlend mode="normal" in="SourceGraphic" in2="effect1_dropShadow_838_125" result="shape"/>
</filter>
</defs>
</svg>
