<svg width="155" height="66" viewBox="0 0 155 66" fill="none" xmlns="http://www.w3.org/2000/svg">
<mask id="path-1-outside-1_926_149" maskUnits="userSpaceOnUse" x="-1" y="15" width="61" height="46" fill="black">
<rect fill="white" x="-1" y="15" width="61" height="46"/>
<path d="M37.9472 57.3338V60H0V57.3338H5.33245V16.6583H35.095V25.153H15.0053V34.5158H34.1029V43.0106H15.0053V57.3338H37.9472ZM58.3038 57.3338V60H37.9661V57.3338H43.2986V16.6583H52.9714V57.3338H58.3038Z"/>
</mask>
<path d="M37.9472 57.3338V60H0V57.3338H5.33245V16.6583H35.095V25.153H15.0053V34.5158H34.1029V43.0106H15.0053V57.3338H37.9472ZM58.3038 57.3338V60H37.9661V57.3338H43.2986V16.6583H52.9714V57.3338H58.3038Z" fill="#303564"/>
<path d="M37.9472 57.3338H38.7223V56.5587H37.9472V57.3338ZM37.9472 60V60.7751H38.7223V60H37.9472ZM0 60H-0.775066V60.7751H0V60ZM0 57.3338V56.5587H-0.775066V57.3338H0ZM5.33245 57.3338V58.1088H6.10752V57.3338H5.33245ZM5.33245 16.6583V15.8833H4.55739V16.6583H5.33245ZM35.095 16.6583H35.87V15.8833H35.095V16.6583ZM35.095 25.153V25.9281H35.87V25.153H35.095ZM15.0053 25.153V24.378H14.2302V25.153H15.0053ZM15.0053 34.5158H14.2302V35.2909H15.0053V34.5158ZM34.1029 34.5158H34.878V33.7408H34.1029V34.5158ZM34.1029 43.0106V43.7856H34.878V43.0106H34.1029ZM15.0053 43.0106V42.2355H14.2302V43.0106H15.0053ZM15.0053 57.3338H14.2302V58.1088H15.0053V57.3338ZM37.1722 57.3338V60H38.7223V57.3338H37.1722ZM37.9472 59.2249H0V60.7751H37.9472V59.2249ZM0.775066 60V57.3338H-0.775066V60H0.775066ZM0 58.1088H5.33245V56.5587H0V58.1088ZM6.10752 57.3338V16.6583H4.55739V57.3338H6.10752ZM5.33245 17.4334H35.095V15.8833H5.33245V17.4334ZM34.3199 16.6583V25.153H35.87V16.6583H34.3199ZM35.095 24.378H15.0053V25.9281H35.095V24.378ZM14.2302 25.153V34.5158H15.7803V25.153H14.2302ZM15.0053 35.2909H34.1029V33.7408H15.0053V35.2909ZM33.3278 34.5158V43.0106H34.878V34.5158H33.3278ZM34.1029 42.2355H15.0053V43.7856H34.1029V42.2355ZM14.2302 43.0106V57.3338H15.7803V43.0106H14.2302ZM15.0053 58.1088H37.9472V56.5587H15.0053V58.1088ZM58.3038 57.3338H59.0789V56.5587H58.3038V57.3338ZM58.3038 60V60.7751H59.0789V60H58.3038ZM37.9661 60H37.191V60.7751H37.9661V60ZM37.9661 57.3338V56.5587H37.191V57.3338H37.9661ZM43.2986 57.3338V58.1088H44.0736V57.3338H43.2986ZM43.2986 16.6583V15.8833H42.5235V16.6583H43.2986ZM52.9714 16.6583H53.7464V15.8833H52.9714V16.6583ZM52.9714 57.3338H52.1963V58.1088H52.9714V57.3338ZM57.5288 57.3338V60H59.0789V57.3338H57.5288ZM58.3038 59.2249H37.9661V60.7751H58.3038V59.2249ZM38.7412 60V57.3338H37.191V60H38.7412ZM37.9661 58.1088H43.2986V56.5587H37.9661V58.1088ZM44.0736 57.3338V16.6583H42.5235V57.3338H44.0736ZM43.2986 17.4334H52.9714V15.8833H43.2986V17.4334ZM52.1963 16.6583V57.3338H53.7464V16.6583H52.1963ZM52.9714 58.1088H58.3038V56.5587H52.9714V58.1088Z" fill="#263238" mask="url(#path-1-outside-1_926_149)"/>
<mask id="path-3-outside-2_926_149" maskUnits="userSpaceOnUse" x="95.6583" y="15" width="50" height="46" fill="black">
<rect fill="white" x="95.6583" y="15" width="50" height="46"/>
<path d="M102.991 57.3338V16.6583H119.422C126.16 16.6583 130.955 17.7951 133.807 20.0686C136.701 22.3421 138.148 26.0004 138.148 31.0435C138.148 37.9881 135.399 42.4732 129.901 44.4987L138.954 57.3338H144.782V60H128.971L119.36 46.1728H112.664V60H96.9763V57.3338H102.991ZM119.732 37.8021C123.039 37.8021 125.292 37.2647 126.491 36.19C127.69 35.1152 128.289 33.4204 128.289 31.1055C128.289 28.7493 127.669 27.1372 126.429 26.2691C125.189 25.4011 123.018 24.967 119.918 24.967H112.664V37.8021H119.732Z"/>
</mask>
<path d="M102.991 57.3338V16.6583H119.422C126.16 16.6583 130.955 17.7951 133.807 20.0686C136.701 22.3421 138.148 26.0004 138.148 31.0435C138.148 37.9881 135.399 42.4732 129.901 44.4987L138.954 57.3338H144.782V60H128.971L119.36 46.1728H112.664V60H96.9763V57.3338H102.991ZM119.732 37.8021C123.039 37.8021 125.292 37.2647 126.491 36.19C127.69 35.1152 128.289 33.4204 128.289 31.1055C128.289 28.7493 127.669 27.1372 126.429 26.2691C125.189 25.4011 123.018 24.967 119.918 24.967H112.664V37.8021H119.732Z" fill="#303564"/>
<path d="M102.991 57.3338V58.1088H103.766V57.3338H102.991ZM102.991 16.6583V15.8833H102.216V16.6583H102.991ZM133.807 20.0686L133.324 20.6747L133.329 20.6781L133.807 20.0686ZM129.901 44.4987L129.633 43.7714L128.686 44.1204L129.268 44.9454L129.901 44.4987ZM138.954 57.3338L138.32 57.7805L138.552 58.1088H138.954V57.3338ZM144.782 57.3338H145.557V56.5587H144.782V57.3338ZM144.782 60V60.7751H145.557V60H144.782ZM128.971 60L128.335 60.4424L128.566 60.7751H128.971V60ZM119.36 46.1728L119.997 45.7305L119.765 45.3978H119.36V46.1728ZM112.664 46.1728V45.3978H111.889V46.1728H112.664ZM112.664 60V60.7751H113.439V60H112.664ZM96.9763 60H96.2012V60.7751H96.9763V60ZM96.9763 57.3338V56.5587H96.2012V57.3338H96.9763ZM126.491 36.19L127.008 36.7671L126.491 36.19ZM126.429 26.2691L126.873 25.6342L126.429 26.2691ZM112.664 24.967V24.192H111.889V24.967H112.664ZM112.664 37.8021H111.889V38.5772H112.664V37.8021ZM103.766 57.3338V16.6583H102.216V57.3338H103.766ZM102.991 17.4334H119.422V15.8833H102.991V17.4334ZM119.422 17.4334C126.115 17.4334 130.685 18.5707 133.324 20.6747L134.291 19.4625C131.226 17.0194 126.205 15.8833 119.422 15.8833V17.4334ZM133.329 20.6781C135.972 22.7551 137.373 26.1445 137.373 31.0435H138.923C138.923 25.8564 137.43 21.9292 134.286 19.4592L133.329 20.6781ZM137.373 31.0435C137.373 34.4175 136.705 37.1233 135.425 39.2108C134.152 41.2878 132.238 42.8116 129.633 43.7714L130.169 45.226C133.062 44.1602 135.271 42.4288 136.747 40.0208C138.216 37.6232 138.923 34.6142 138.923 31.0435H137.373ZM129.268 44.9454L138.32 57.7805L139.587 56.887L130.534 44.052L129.268 44.9454ZM138.954 58.1088H144.782V56.5587H138.954V58.1088ZM144.007 57.3338V60H145.557V57.3338H144.007ZM144.782 59.2249H128.971V60.7751H144.782V59.2249ZM129.607 59.5576L119.997 45.7305L118.724 46.6152L128.335 60.4424L129.607 59.5576ZM119.36 45.3978H112.664V46.9479H119.36V45.3978ZM111.889 46.1728V60H113.439V46.1728H111.889ZM112.664 59.2249H96.9763V60.7751H112.664V59.2249ZM97.7513 60V57.3338H96.2012V60H97.7513ZM96.9763 58.1088H102.991V56.5587H96.9763V58.1088ZM119.732 38.5772C123.06 38.5772 125.578 38.0494 127.008 36.7671L125.973 35.6129C125.006 36.4801 123.018 37.0271 119.732 37.0271V38.5772ZM127.008 36.7671C128.432 35.4903 129.064 33.5421 129.064 31.1055H127.514C127.514 33.2987 126.947 34.7401 125.973 35.6129L127.008 36.7671ZM129.064 31.1055C129.064 28.6419 128.416 26.7144 126.873 25.6342L125.984 26.9041C126.921 27.56 127.514 28.8568 127.514 31.1055H129.064ZM126.873 25.6342C125.424 24.6194 123.041 24.192 119.918 24.192V25.7421C122.996 25.7421 124.954 26.1827 125.984 26.9041L126.873 25.6342ZM119.918 24.192H112.664V25.7421H119.918V24.192ZM111.889 24.967V37.8021H113.439V24.967H111.889ZM112.664 38.5772H119.732V37.0271H112.664V38.5772Z" fill="#2E353A" mask="url(#path-3-outside-2_926_149)"/>
<path d="M98.8804 30.7091C99.6242 29.964 100.174 29.0475 100.48 28.0403C100.787 27.0331 100.841 25.966 100.639 24.9329L96.61 28.9616C96.381 29.1892 96.0713 29.317 95.7484 29.317C95.4256 29.317 95.1158 29.1892 94.8869 28.9616L91.5382 25.6129C91.4247 25.4996 91.3347 25.3651 91.2733 25.2171C91.2119 25.069 91.1803 24.9103 91.1803 24.75C91.1803 24.5897 91.2119 24.4309 91.2733 24.2829C91.3347 24.1348 91.4247 24.0003 91.5382 23.8871L95.5642 19.861C94.4359 19.6407 93.2691 19.7272 92.1856 20.1115C91.1021 20.4958 90.1416 21.1638 89.4043 22.0459C88.667 22.9279 88.1799 23.9917 87.9939 25.1261C87.8078 26.2606 87.9297 27.4242 88.3466 28.4956L77.951 38.6527L76.9486 37.6476L78.5742 36.022C78.6573 35.9374 78.7038 35.8236 78.7038 35.705C78.7038 35.5865 78.6573 35.4726 78.5742 35.388L77.3062 34.1201C77.2224 34.0365 77.1089 33.9896 76.9906 33.9896C76.8723 33.9896 76.7588 34.0365 76.675 34.1201L76.041 34.7541L74.6674 33.3832L75.1957 32.8548C75.3075 32.7426 75.3703 32.5906 75.3703 32.4322C75.3703 32.2737 75.3075 32.1218 75.1957 32.0095L63.8519 20.6657C63.5816 20.395 63.2606 20.1803 62.9073 20.0338C62.554 19.8873 62.1753 19.8119 61.7928 19.8119C61.4103 19.8119 61.0316 19.8873 60.6783 20.0338C60.3249 20.1803 60.004 20.395 59.7337 20.6657L58.5741 21.8253C58.3036 22.0953 58.0889 22.416 57.9424 22.7691C57.796 23.1222 57.7206 23.5007 57.7206 23.883C57.7206 24.2653 57.796 24.6438 57.9424 24.9969C58.0889 25.3499 58.3036 25.6707 58.5741 25.9407L69.918 37.2873C70.0302 37.3991 70.1822 37.4619 70.3406 37.4619C70.4991 37.4619 70.6511 37.3991 70.7633 37.2873L71.2916 36.7589L72.6625 38.1326L72.0312 38.7638C71.9895 38.8054 71.9563 38.8548 71.9337 38.9092C71.9111 38.9636 71.8994 39.0219 71.8994 39.0808C71.8994 39.1397 71.9111 39.1981 71.9337 39.2525C71.9563 39.3069 71.9895 39.3563 72.0312 39.3978L73.2965 40.6657C73.3811 40.7488 73.4949 40.7954 73.6135 40.7954C73.732 40.7954 73.8458 40.7488 73.9305 40.6657L75.556 39.0402L76.5422 40.0264L67.9212 48.4252C66.8498 48.0085 65.6861 47.8869 64.5516 48.073C63.4172 48.2591 62.3534 48.7461 61.4712 49.4833C60.589 50.2205 59.9207 51.1808 59.536 52.2642C59.1513 53.3476 59.0643 54.5143 59.284 55.6428L63.3127 51.6167C63.4259 51.5033 63.5605 51.4133 63.7085 51.3519C63.8566 51.2904 64.0153 51.2588 64.1756 51.2588C64.3359 51.2588 64.4946 51.2904 64.6427 51.3519C64.7908 51.4133 64.9253 51.5033 65.0385 51.6167L68.3981 54.9438C68.5115 55.057 68.6015 55.1915 68.6629 55.3396C68.7244 55.4876 68.756 55.6464 68.756 55.8067C68.756 55.967 68.7244 56.1257 68.6629 56.2738C68.6015 56.4218 68.5115 56.5563 68.3981 56.6696L64.372 60.6956C65.5004 60.9156 66.6671 60.8289 67.7505 60.4446C68.8339 60.0602 69.7944 59.3923 70.5319 58.5104C71.2693 57.6285 71.7567 56.565 71.9432 55.4306C72.1297 54.2963 72.0086 53.1326 71.5923 52.0611L80.2133 43.6622L91.969 55.4043C91.8 55.8397 91.7613 56.3148 91.8575 56.7718C91.9537 57.2287 92.1807 57.6479 92.5108 57.9782L95.3475 60.8148L98.7503 57.4092L95.9137 54.5753C95.5834 54.2452 95.1643 54.0182 94.7073 53.922C94.2503 53.8258 93.7752 53.8645 93.3399 54.0334L81.6032 42.2968L92.0096 32.1504C93.1713 32.6024 94.4393 32.7068 95.6592 32.4509C96.8791 32.1949 97.9983 31.5898 98.8804 30.7091Z" fill="#2E353A" stroke="#303564" stroke-width="0.387533" stroke-linecap="round" stroke-linejoin="round"/>
<path d="M70.877 50.6161L91.2861 30.7055C92.3582 31.1231 93.5228 31.2451 94.6581 31.0587C95.7935 30.8724 96.8579 30.3845 97.7403 29.6462C98.6226 28.9078 99.2905 27.946 99.674 26.8612C100.058 25.7765 100.143 24.6087 99.9207 23.4798L95.8946 27.5058C95.7814 27.6192 95.6469 27.7093 95.4988 27.7707C95.3507 27.8321 95.192 27.8637 95.0317 27.8637C94.8714 27.8637 94.7127 27.8321 94.5646 27.7707C94.4166 27.7093 94.2821 27.6192 94.1688 27.5058L90.8201 24.1571C90.7067 24.0441 90.6168 23.9098 90.5554 23.762C90.494 23.6141 90.4624 23.4556 90.4624 23.2955C90.4624 23.1355 90.494 22.9769 90.5554 22.8291C90.6168 22.6813 90.7067 22.547 90.8201 22.434L94.8461 18.4052C93.7173 18.1852 92.55 18.2723 91.4663 18.6575C90.3826 19.0426 89.4221 19.7116 88.6853 20.5946C87.9484 21.4777 87.4621 22.5424 87.2772 23.6775C87.0922 24.8127 87.2155 25.9766 87.634 27.0479L67.2248 46.9586C66.1535 46.5416 64.9899 46.4198 63.8554 46.6058C62.7209 46.7919 61.6572 47.2789 60.7751 48.0162C59.8931 48.7535 59.225 49.7141 58.8407 50.7976C58.4564 51.881 58.3699 53.0478 58.5903 54.1761L62.6163 50.1501C62.7296 50.0367 62.8641 49.9466 63.0121 49.8852C63.1602 49.8238 63.3189 49.7922 63.4792 49.7922C63.6395 49.7922 63.7983 49.8238 63.9463 49.8852C64.0944 49.9466 64.2289 50.0367 64.3421 50.1501L67.6908 53.4988C67.8042 53.6118 67.8942 53.7461 67.9555 53.8939C68.0169 54.0418 68.0485 54.2003 68.0485 54.3604C68.0485 54.5204 68.0169 54.6789 67.9555 54.8268C67.8942 54.9746 67.8042 55.1089 67.6908 55.2219L63.6567 59.2425C64.785 59.4625 65.9517 59.3758 67.0351 58.9915C68.1186 58.6071 69.0791 57.9392 69.8165 57.0573C70.554 56.1754 71.0413 55.1119 71.2279 53.9775C71.4144 52.8432 71.2932 51.6796 70.877 50.608V50.6161Z" fill="white" stroke="#303564" stroke-width="0.387533" stroke-miterlimit="10"/>
<path d="M69.3058 48.5274C69.1497 48.371 69.0621 48.1591 69.0621 47.9381C69.0621 47.7172 69.1497 47.5053 69.3058 47.3489L87.6558 29.4973C87.8127 29.3411 88.0251 29.2534 88.2465 29.2534C88.4679 29.2534 88.6802 29.3411 88.8371 29.4973C88.9933 29.6542 89.081 29.8665 89.081 30.0879C89.081 30.3093 88.9933 30.5216 88.8371 30.6785L70.487 48.5274C70.3301 48.6836 70.1178 48.7713 69.8964 48.7713C69.675 48.7713 69.4627 48.6836 69.3058 48.5274Z" fill="white" stroke="#303564" stroke-width="0.387533" stroke-miterlimit="10"/>
<path d="M74.748 34.7108L73.3763 36.0825L93.1681 55.8743L94.5398 54.5026L74.748 34.7108Z" fill="white" stroke="#303564" stroke-width="0.387533" stroke-miterlimit="10"/>
<path d="M98.0324 55.9644L94.6295 59.3673L91.7929 56.5333C91.3414 56.0817 91.0878 55.4692 91.0878 54.8305C91.0878 54.1919 91.3414 53.5794 91.7929 53.1278C92.0163 52.9043 92.2816 52.727 92.5735 52.606C92.8654 52.4851 93.1783 52.4229 93.4943 52.4229C93.8103 52.4229 94.1232 52.4851 94.4152 52.606C94.7071 52.727 94.9724 52.9043 95.1958 53.1278L98.0324 55.9644Z" fill="white" stroke="#303564" stroke-width="0.387533" stroke-miterlimit="10"/>
<path d="M72.9017 30.8598L69.5242 34.2373L72.2675 36.9807L75.645 33.6032L72.9017 30.8598Z" fill="white" stroke="#303564" stroke-width="0.387533" stroke-miterlimit="10"/>
<path d="M57.8623 20.358L59.0233 19.197C59.2935 18.9268 59.6143 18.7125 59.9673 18.5663C60.3203 18.4201 60.6987 18.3448 61.0808 18.3448C61.4629 18.3448 61.8413 18.42 62.1944 18.5663C62.5474 18.7125 62.8682 18.9268 63.1383 19.197L74.4835 30.5422C74.5953 30.654 74.6581 30.8056 74.6581 30.9637C74.6581 31.1217 74.5953 31.2734 74.4835 31.3851L70.0504 35.8182C69.9386 35.93 69.787 35.9928 69.629 35.9928C69.4709 35.9928 69.3193 35.93 69.2075 35.8182L57.8623 24.4731C57.3166 23.9274 57.0101 23.1873 57.0101 22.4155C57.0101 21.6438 57.3166 20.9037 57.8623 20.358Z" fill="white" stroke="#303564" stroke-width="0.387533" stroke-miterlimit="10"/>
<path d="M75.9608 32.6553L71.317 37.2991C71.1424 37.4737 71.1424 37.7568 71.317 37.9313L72.5852 39.1996C72.7598 39.3741 73.0428 39.3741 73.2174 39.1996L77.8612 34.5558C78.0358 34.3812 78.0358 34.0981 77.8612 33.9236L76.593 32.6553C76.4184 32.4807 76.1353 32.4807 75.9608 32.6553Z" fill="white" stroke="#303564" stroke-width="0.387533" stroke-miterlimit="10"/>
<path d="M70.685 34.1334L69.753 35.0681L58.6124 23.9275C58.4884 23.8035 58.4188 23.6354 58.4188 23.4601C58.4188 23.2848 58.4884 23.1167 58.6124 22.9928C58.6736 22.9311 58.7464 22.8821 58.8266 22.8487C58.9068 22.8153 58.9928 22.7981 59.0797 22.7981C59.1666 22.7981 59.2526 22.8153 59.3328 22.8487C59.4131 22.8821 59.4859 22.9311 59.5471 22.9928L70.685 34.1334Z" fill="white" stroke="#303564" stroke-width="0.387533" stroke-miterlimit="10"/>
<path d="M72.275 32.5428L71.3376 33.4775L60.1969 22.3369C60.073 22.2129 60.0034 22.0448 60.0034 21.8695C60.0034 21.6943 60.073 21.5261 60.1969 21.4022C60.2581 21.3405 60.331 21.2915 60.4112 21.2581C60.4914 21.2247 60.5774 21.2075 60.6643 21.2075C60.7512 21.2075 60.8372 21.2247 60.9174 21.2581C60.9977 21.2915 61.0705 21.3405 61.1317 21.4022L72.275 32.5428Z" fill="white" stroke="#303564" stroke-width="0.387533" stroke-miterlimit="10"/>
<path d="M73.8655 30.9525L72.928 31.8791L61.7874 20.7466C61.6635 20.6226 61.5939 20.4545 61.5939 20.2792C61.5939 20.1039 61.6635 19.9358 61.7874 19.8118C61.8486 19.7502 61.9214 19.7012 62.0016 19.6678C62.0818 19.6344 62.1679 19.6172 62.2548 19.6172C62.3416 19.6172 62.4277 19.6344 62.5079 19.6678C62.5881 19.7012 62.6609 19.7502 62.7221 19.8118L73.8655 30.9525Z" fill="white" stroke="#303564" stroke-width="0.387533" stroke-miterlimit="10"/>
</svg>
