<svg width="35" height="35" viewBox="0 0 35 35" fill="none" xmlns="http://www.w3.org/2000/svg">
<rect width="35" height="35" rx="5" fill="#EFF0F4"/>
<path d="M25.9167 18H24.1575M24.1575 18C24.1575 19.6332 23.5092 21.1991 22.3543 22.3539C21.1995 23.5088 19.6332 24.1575 18 24.1575M24.1575 18C24.1575 16.3669 23.5092 14.8002 22.3543 13.6453C21.1995 12.4905 19.6332 11.8425 18 11.8425M18 10.0834V11.8425M18 11.8425C16.367 11.8425 14.8008 12.4904 13.646 13.6452C12.4913 14.8 11.8425 16.3661 11.8425 17.9992C11.8425 19.6323 12.4913 21.1985 13.646 22.3532C14.8008 23.508 16.367 24.1575 18 24.1575M10.0834 18H11.8425M18 25.9167V24.1575" stroke="#303564" stroke-width="0.8" stroke-miterlimit="10" stroke-linecap="round"/>
<path d="M18 21.5184C18.9331 21.5184 19.828 21.1477 20.4879 20.4879C21.1477 19.828 21.5184 18.9331 21.5184 18C21.5184 17.0669 21.1477 16.172 20.4879 15.5122C19.828 14.8524 18.9331 14.4817 18 14.4817C17.0669 14.4817 16.172 14.8524 15.5122 15.5122C14.8524 16.172 14.4817 17.0669 14.4817 18C14.4817 18.9331 14.8524 19.828 15.5122 20.4879C16.172 21.1477 17.0669 21.5184 18 21.5184Z" stroke="#303564" stroke-width="0.8" stroke-miterlimit="10" stroke-linecap="round"/>
</svg>
