<svg width="35" height="35" viewBox="0 0 35 35" fill="none" xmlns="http://www.w3.org/2000/svg">
<rect width="35" height="35" rx="5" fill="#EFF0F4"/>
<g clip-path="url(#clip0_792_516)">
<path d="M10.1429 20.1428V26.5714C10.1429 26.7609 10.2181 26.9425 10.3521 27.0765C10.486 27.2104 10.6677 27.2857 10.8572 27.2857H25.1429C25.3323 27.2857 25.514 27.2104 25.6479 27.0765C25.7819 26.9425 25.8572 26.7609 25.8572 26.5714V20.1428M8.71429 13V15.8571C8.71429 16.0466 8.78955 16.2282 8.9235 16.3622C9.05746 16.4962 9.23914 16.5714 9.42858 16.5714H26.5714C26.7609 16.5714 26.9426 16.4962 27.0765 16.3622C27.2105 16.2282 27.2857 16.0466 27.2857 15.8571V13M8.71429 13L10.4572 9.49998C10.577 9.26222 10.7608 9.06266 10.988 8.92383C11.2152 8.785 11.4766 8.71242 11.7429 8.71427H24.2572C24.5234 8.71242 24.7848 8.785 25.012 8.92383C25.2392 9.06266 25.4231 9.26222 25.5429 9.49998L27.2857 13M8.71429 13H27.2857M19.4286 20.1428V27.2857M10.1429 22.2857H19.4286" stroke="#303564" stroke-linecap="round" stroke-linejoin="round"/>
</g>
<defs>
<clipPath id="clip0_792_516">
<rect width="20" height="20" fill="white" transform="translate(8 8)"/>
</clipPath>
</defs>
</svg>
