<svg width="35" height="35" viewBox="0 0 35 35" fill="none" xmlns="http://www.w3.org/2000/svg">
<rect width="35" height="35" rx="5" fill="#EFF0F4"/>
<path d="M16.8681 11.5849L18 12.7168M19.0065 13.7232L20.1384 14.8551M21.1449 15.8616L22.2768 16.9935M23.2832 18L24.4151 19.1319M25.547 13.0946C25.195 13.4365 24.7226 13.6261 24.2319 13.6225C23.7412 13.6189 23.2716 13.4224 22.9246 13.0754C22.5776 12.7284 22.381 12.2588 22.3775 11.7681C22.3739 11.2774 22.5635 10.805 22.9054 10.453L20.4535 8L8 20.453L10.453 22.9059C10.8056 22.5674 11.2769 22.3805 11.7657 22.3855C12.2545 22.3904 12.7219 22.5868 13.0676 22.9324C13.4133 23.278 13.6097 23.7454 13.6148 24.2342C13.6198 24.723 13.4331 25.1943 13.0946 25.547L15.547 28L28 15.547L25.547 13.0946Z" stroke="#303564" stroke-linecap="round" stroke-linejoin="round"/>
</svg>
